G75*
%MOIN*%
%OFA0B0*%
%FSLAX24Y24*%
%IPPOS*%
%LPD*%
%AMOC8*
5,1,8,0,0,1.08239X$1,22.5*
%
%ADD10C,0.0050*%
%ADD11C,0.0020*%
%ADD12R,0.0000X0.0337*%
%ADD13R,0.0000X0.0337*%
%ADD14R,0.0001X0.0344*%
%ADD15R,0.0000X0.0348*%
%ADD16R,0.0000X0.0347*%
%ADD17R,0.0000X0.0350*%
%ADD18R,0.0000X0.0350*%
%ADD19R,0.0001X0.0352*%
%ADD20R,0.0000X0.0355*%
%ADD21R,0.0000X0.0354*%
%ADD22R,0.0001X0.0356*%
%ADD23R,0.0000X0.0359*%
%ADD24R,0.0000X0.0360*%
%ADD25R,0.0001X0.0361*%
%ADD26R,0.0000X0.0363*%
%ADD27R,0.0000X0.0362*%
%ADD28R,0.0001X0.0365*%
%ADD29R,0.0001X0.0364*%
%ADD30R,0.0000X0.0365*%
%ADD31R,0.0000X0.0366*%
%ADD32R,0.0000X0.0366*%
%ADD33R,0.0001X0.0367*%
%ADD34R,0.0000X0.0369*%
%ADD35R,0.0001X0.0370*%
%ADD36R,0.0001X0.0369*%
%ADD37R,0.0000X0.0370*%
%ADD38R,0.0000X0.0371*%
%ADD39R,0.0000X0.0371*%
%ADD40R,0.0001X0.0372*%
%ADD41R,0.0001X0.0372*%
%ADD42R,0.0000X0.0373*%
%ADD43R,0.0000X0.0373*%
%ADD44R,0.0001X0.0374*%
%ADD45R,0.0001X0.0374*%
%ADD46R,0.0000X0.0375*%
%ADD47R,0.0000X0.0374*%
%ADD48R,0.0000X0.0375*%
%ADD49R,0.0000X0.0375*%
%ADD50R,0.0001X0.0375*%
%ADD51R,0.0001X0.0376*%
%ADD52R,0.0000X0.0376*%
%ADD53R,0.0001X0.0377*%
%ADD54R,0.0001X0.0376*%
%ADD55R,0.0000X0.0377*%
%ADD56R,0.0000X0.0378*%
%ADD57R,0.0000X0.0378*%
%ADD58R,0.0001X0.0379*%
%ADD59R,0.0000X0.0379*%
%ADD60R,0.0000X0.0379*%
%ADD61R,0.0001X0.0380*%
%ADD62R,0.0001X0.0379*%
%ADD63R,0.0000X0.0380*%
%ADD64R,0.0000X0.0379*%
%ADD65R,0.0000X0.0380*%
%ADD66R,0.0000X0.0380*%
%ADD67R,0.0001X0.0380*%
%ADD68R,0.0001X0.0381*%
%ADD69R,0.0000X0.0381*%
%ADD70R,0.0001X0.0381*%
%ADD71R,0.0001X0.0381*%
%ADD72R,0.0000X0.0381*%
%ADD73R,0.0001X0.0382*%
%ADD74R,0.0001X0.0381*%
%ADD75R,0.0000X0.0382*%
%ADD76R,0.0000X0.0382*%
%ADD77R,0.0001X0.0382*%
%ADD78R,0.0000X0.0382*%
%ADD79R,0.0000X0.0383*%
%ADD80R,0.0001X0.0383*%
%ADD81R,0.0001X0.0383*%
%ADD82R,0.0000X0.0383*%
%ADD83R,0.0001X0.0382*%
%ADD84R,0.0001X0.0379*%
%ADD85R,0.0000X0.0381*%
%ADD86R,0.0001X0.0378*%
%ADD87R,0.0000X0.0377*%
%ADD88R,0.0000X0.0376*%
%ADD89R,0.0000X0.0374*%
%ADD90R,0.0001X0.0377*%
%ADD91R,0.0000X0.0372*%
%ADD92R,0.0001X0.0371*%
%ADD93R,0.0001X0.0376*%
%ADD94R,0.0000X0.0371*%
%ADD95R,0.0000X0.0376*%
%ADD96R,0.0000X0.0370*%
%ADD97R,0.0001X0.0369*%
%ADD98R,0.0001X0.0374*%
%ADD99R,0.0000X0.0368*%
%ADD100R,0.0000X0.0374*%
%ADD101R,0.0001X0.0367*%
%ADD102R,0.0001X0.0373*%
%ADD103R,0.0000X0.0366*%
%ADD104R,0.0000X0.0372*%
%ADD105R,0.0000X0.0365*%
%ADD106R,0.0000X0.0371*%
%ADD107R,0.0001X0.0364*%
%ADD108R,0.0001X0.0371*%
%ADD109R,0.0000X0.0362*%
%ADD110R,0.0000X0.0369*%
%ADD111R,0.0001X0.0360*%
%ADD112R,0.0001X0.0369*%
%ADD113R,0.0000X0.0359*%
%ADD114R,0.0000X0.0367*%
%ADD115R,0.0000X0.0357*%
%ADD116R,0.0001X0.0355*%
%ADD117R,0.0001X0.0365*%
%ADD118R,0.0000X0.0354*%
%ADD119R,0.0000X0.0364*%
%ADD120R,0.0001X0.0351*%
%ADD121R,0.0001X0.0363*%
%ADD122R,0.0000X0.0348*%
%ADD123R,0.0000X0.0361*%
%ADD124R,0.0000X0.0345*%
%ADD125R,0.0001X0.0340*%
%ADD126R,0.0001X0.0359*%
%ADD127R,0.0000X0.0258*%
%ADD128R,0.0000X0.0356*%
%ADD129R,0.0001X0.0257*%
%ADD130R,0.0001X0.0354*%
%ADD131R,0.0000X0.0257*%
%ADD132R,0.0000X0.0352*%
%ADD133R,0.0001X0.0347*%
%ADD134R,0.0000X0.0257*%
%ADD135R,0.0000X0.0344*%
%ADD136R,0.0001X0.0257*%
%ADD137R,0.0001X0.0338*%
%ADD138R,0.0000X0.0239*%
%ADD139R,0.0000X0.0256*%
%ADD140R,0.0001X0.0256*%
%ADD141R,0.0001X0.0239*%
%ADD142R,0.0001X0.0239*%
%ADD143R,0.0000X0.0256*%
%ADD144R,0.0000X0.0239*%
%ADD145R,0.0001X0.0256*%
%ADD146R,0.0000X0.0255*%
%ADD147R,0.0000X0.0238*%
%ADD148R,0.0001X0.0255*%
%ADD149R,0.0001X0.0238*%
%ADD150R,0.0000X0.0255*%
%ADD151R,0.0001X0.0255*%
%ADD152R,0.0001X0.0238*%
%ADD153R,0.0000X0.0238*%
%ADD154R,0.0000X0.0255*%
%ADD155R,0.0000X0.0238*%
%ADD156R,0.0001X0.0255*%
%ADD157R,0.0001X0.0238*%
%ADD158R,0.0000X0.0254*%
%ADD159R,0.0001X0.0254*%
%ADD160R,0.0000X0.0237*%
%ADD161R,0.0001X0.0254*%
%ADD162R,0.0001X0.0237*%
%ADD163R,0.0000X0.0254*%
%ADD164R,0.0000X0.0253*%
%ADD165R,0.0000X0.0236*%
%ADD166R,0.0001X0.0253*%
%ADD167R,0.0001X0.0236*%
%ADD168R,0.0000X0.0253*%
%ADD169R,0.0001X0.0253*%
%ADD170R,0.0001X0.0236*%
%ADD171R,0.0000X0.0236*%
%ADD172R,0.0001X0.0252*%
%ADD173R,0.0000X0.0252*%
%ADD174R,0.0000X0.0235*%
%ADD175R,0.0001X0.0235*%
%ADD176R,0.0000X0.0251*%
%ADD177R,0.0001X0.0251*%
%ADD178R,0.0001X0.0235*%
%ADD179R,0.0000X0.0235*%
%ADD180R,0.0001X0.0251*%
%ADD181R,0.0000X0.0251*%
%ADD182R,0.0000X0.0234*%
%ADD183R,0.0001X0.0250*%
%ADD184R,0.0001X0.0234*%
%ADD185R,0.0000X0.0250*%
%ADD186R,0.0000X0.0250*%
%ADD187R,0.0000X0.0234*%
%ADD188R,0.0001X0.0250*%
%ADD189R,0.0001X0.0234*%
%ADD190R,0.0001X0.0250*%
%ADD191R,0.0000X0.0250*%
%ADD192R,0.0000X0.0233*%
%ADD193R,0.0001X0.0249*%
%ADD194R,0.0001X0.0233*%
%ADD195R,0.0000X0.0249*%
%ADD196R,0.0001X0.0233*%
%ADD197R,0.0000X0.0233*%
%ADD198R,0.0000X0.0249*%
%ADD199R,0.0001X0.0249*%
%ADD200R,0.0000X0.0232*%
%ADD201R,0.0001X0.0248*%
%ADD202R,0.0001X0.0232*%
%ADD203R,0.0000X0.0248*%
%ADD204R,0.0001X0.0248*%
%ADD205R,0.0001X0.0232*%
%ADD206R,0.0000X0.0248*%
%ADD207R,0.0000X0.0232*%
%ADD208R,0.0000X0.0247*%
%ADD209R,0.0000X0.0231*%
%ADD210R,0.0001X0.0247*%
%ADD211R,0.0001X0.0231*%
%ADD212R,0.0001X0.0246*%
%ADD213R,0.0000X0.0246*%
%ADD214R,0.0000X0.0231*%
%ADD215R,0.0001X0.0231*%
%ADD216R,0.0000X0.0246*%
%ADD217R,0.0001X0.0246*%
%ADD218R,0.0000X0.0230*%
%ADD219R,0.0000X0.0245*%
%ADD220R,0.0001X0.0245*%
%ADD221R,0.0001X0.0230*%
%ADD222R,0.0001X0.0245*%
%ADD223R,0.0001X0.0230*%
%ADD224R,0.0000X0.0245*%
%ADD225R,0.0000X0.0230*%
%ADD226R,0.0000X0.0245*%
%ADD227R,0.0000X0.0229*%
%ADD228R,0.0001X0.0245*%
%ADD229R,0.0001X0.0229*%
%ADD230R,0.0000X0.0244*%
%ADD231R,0.0001X0.0244*%
%ADD232R,0.0001X0.0229*%
%ADD233R,0.0000X0.0229*%
%ADD234R,0.0000X0.0244*%
%ADD235R,0.0000X0.0228*%
%ADD236R,0.0001X0.0244*%
%ADD237R,0.0001X0.0228*%
%ADD238R,0.0000X0.0243*%
%ADD239R,0.0001X0.0243*%
%ADD240R,0.0000X0.0243*%
%ADD241R,0.0000X0.0228*%
%ADD242R,0.0001X0.0243*%
%ADD243R,0.0001X0.0228*%
%ADD244R,0.0000X0.0242*%
%ADD245R,0.0000X0.0227*%
%ADD246R,0.0001X0.0242*%
%ADD247R,0.0001X0.0227*%
%ADD248R,0.0000X0.0241*%
%ADD249R,0.0001X0.0241*%
%ADD250R,0.0001X0.0227*%
%ADD251R,0.0000X0.0227*%
%ADD252R,0.0001X0.0241*%
%ADD253R,0.0000X0.0241*%
%ADD254R,0.0000X0.0226*%
%ADD255R,0.0001X0.0226*%
%ADD256R,0.0000X0.0240*%
%ADD257R,0.0001X0.0240*%
%ADD258R,0.0001X0.0226*%
%ADD259R,0.0000X0.0240*%
%ADD260R,0.0000X0.0226*%
%ADD261R,0.0001X0.0240*%
%ADD262R,0.0000X0.0225*%
%ADD263R,0.0001X0.0240*%
%ADD264R,0.0001X0.0225*%
%ADD265R,0.0000X0.0240*%
%ADD266R,0.0000X0.0225*%
%ADD267R,0.0001X0.0225*%
%ADD268R,0.0001X0.0239*%
%ADD269R,0.0000X0.0239*%
%ADD270R,0.0000X0.0224*%
%ADD271R,0.0001X0.0224*%
%ADD272R,0.0001X0.0224*%
%ADD273R,0.0000X0.0224*%
%ADD274R,0.0000X0.0223*%
%ADD275R,0.0001X0.0237*%
%ADD276R,0.0001X0.0223*%
%ADD277R,0.0000X0.0237*%
%ADD278R,0.0001X0.0223*%
%ADD279R,0.0000X0.0223*%
%ADD280R,0.0000X0.0236*%
%ADD281R,0.0000X0.0222*%
%ADD282R,0.0001X0.0236*%
%ADD283R,0.0001X0.0222*%
%ADD284R,0.0000X0.0222*%
%ADD285R,0.0001X0.0222*%
%ADD286R,0.0000X0.0221*%
%ADD287R,0.0000X0.0235*%
%ADD288R,0.0001X0.0235*%
%ADD289R,0.0001X0.0221*%
%ADD290R,0.0001X0.0221*%
%ADD291R,0.0000X0.0221*%
%ADD292R,0.0000X0.0234*%
%ADD293R,0.0000X0.0220*%
%ADD294R,0.0001X0.0234*%
%ADD295R,0.0001X0.0220*%
%ADD296R,0.0001X0.0220*%
%ADD297R,0.0000X0.0220*%
%ADD298R,0.0000X0.0219*%
%ADD299R,0.0001X0.0219*%
%ADD300R,0.0000X0.0232*%
%ADD301R,0.0001X0.0232*%
%ADD302R,0.0000X0.0219*%
%ADD303R,0.0001X0.0219*%
%ADD304R,0.0000X0.0231*%
%ADD305R,0.0000X0.0218*%
%ADD306R,0.0001X0.0231*%
%ADD307R,0.0001X0.0218*%
%ADD308R,0.0001X0.0218*%
%ADD309R,0.0000X0.0218*%
%ADD310R,0.0000X0.0217*%
%ADD311R,0.0001X0.0217*%
%ADD312R,0.0000X0.0230*%
%ADD313R,0.0001X0.0230*%
%ADD314R,0.0001X0.0217*%
%ADD315R,0.0000X0.0217*%
%ADD316R,0.0000X0.0216*%
%ADD317R,0.0001X0.0229*%
%ADD318R,0.0001X0.0216*%
%ADD319R,0.0000X0.0229*%
%ADD320R,0.0000X0.0216*%
%ADD321R,0.0001X0.0216*%
%ADD322R,0.0000X0.0215*%
%ADD323R,0.0001X0.0227*%
%ADD324R,0.0001X0.0215*%
%ADD325R,0.0000X0.0227*%
%ADD326R,0.0001X0.0215*%
%ADD327R,0.0000X0.0215*%
%ADD328R,0.0000X0.0214*%
%ADD329R,0.0001X0.0226*%
%ADD330R,0.0001X0.0214*%
%ADD331R,0.0000X0.0226*%
%ADD332R,0.0001X0.0214*%
%ADD333R,0.0000X0.0214*%
%ADD334R,0.0000X0.0213*%
%ADD335R,0.0001X0.0213*%
%ADD336R,0.0001X0.0225*%
%ADD337R,0.0000X0.0225*%
%ADD338R,0.0000X0.0213*%
%ADD339R,0.0001X0.0213*%
%ADD340R,0.0000X0.0213*%
%ADD341R,0.0000X0.0224*%
%ADD342R,0.0001X0.0224*%
%ADD343R,0.0001X0.0213*%
%ADD344R,0.0001X0.0212*%
%ADD345R,0.0000X0.0212*%
%ADD346R,0.0000X0.0211*%
%ADD347R,0.0001X0.0211*%
%ADD348R,0.0000X0.0222*%
%ADD349R,0.0001X0.0222*%
%ADD350R,0.0001X0.0211*%
%ADD351R,0.0000X0.0211*%
%ADD352R,0.0000X0.0210*%
%ADD353R,0.0001X0.0210*%
%ADD354R,0.0000X0.0221*%
%ADD355R,0.0001X0.0221*%
%ADD356R,0.0000X0.0210*%
%ADD357R,0.0001X0.0210*%
%ADD358R,0.0000X0.0209*%
%ADD359R,0.0001X0.0209*%
%ADD360R,0.0000X0.0220*%
%ADD361R,0.0001X0.0220*%
%ADD362R,0.0001X0.0209*%
%ADD363R,0.0000X0.0209*%
%ADD364R,0.0000X0.0208*%
%ADD365R,0.0001X0.0208*%
%ADD366R,0.0000X0.0219*%
%ADD367R,0.0001X0.0219*%
%ADD368R,0.0001X0.0208*%
%ADD369R,0.0000X0.0208*%
%ADD370R,0.0000X0.0208*%
%ADD371R,0.0001X0.0208*%
%ADD372R,0.0000X0.0217*%
%ADD373R,0.0000X0.0207*%
%ADD374R,0.0001X0.0217*%
%ADD375R,0.0001X0.0207*%
%ADD376R,0.0000X0.0206*%
%ADD377R,0.0001X0.0216*%
%ADD378R,0.0001X0.0206*%
%ADD379R,0.0000X0.0216*%
%ADD380R,0.0001X0.0206*%
%ADD381R,0.0000X0.0206*%
%ADD382R,0.0000X0.0205*%
%ADD383R,0.0001X0.0205*%
%ADD384R,0.0001X0.0215*%
%ADD385R,0.0001X0.0205*%
%ADD386R,0.0000X0.0215*%
%ADD387R,0.0000X0.0205*%
%ADD388R,0.0000X0.0204*%
%ADD389R,0.0001X0.0204*%
%ADD390R,0.0001X0.0214*%
%ADD391R,0.0000X0.0214*%
%ADD392R,0.0000X0.0204*%
%ADD393R,0.0001X0.0204*%
%ADD394R,0.0000X0.0203*%
%ADD395R,0.0001X0.0203*%
%ADD396R,0.0001X0.0212*%
%ADD397R,0.0001X0.0203*%
%ADD398R,0.0000X0.0212*%
%ADD399R,0.0000X0.0203*%
%ADD400R,0.0000X0.0203*%
%ADD401R,0.0001X0.0203*%
%ADD402R,0.0000X0.0211*%
%ADD403R,0.0001X0.0211*%
%ADD404R,0.0001X0.0202*%
%ADD405R,0.0000X0.0202*%
%ADD406R,0.0000X0.0201*%
%ADD407R,0.0001X0.0201*%
%ADD408R,0.0000X0.0210*%
%ADD409R,0.0000X0.0201*%
%ADD410R,0.0001X0.0210*%
%ADD411R,0.0001X0.0201*%
%ADD412R,0.0000X0.0200*%
%ADD413R,0.0001X0.0200*%
%ADD414R,0.0000X0.0209*%
%ADD415R,0.0001X0.0209*%
%ADD416R,0.0001X0.0200*%
%ADD417R,0.0000X0.0200*%
%ADD418R,0.0000X0.0199*%
%ADD419R,0.0001X0.0199*%
%ADD420R,0.0001X0.0199*%
%ADD421R,0.0000X0.0207*%
%ADD422R,0.0000X0.0199*%
%ADD423R,0.0001X0.0207*%
%ADD424R,0.0000X0.0198*%
%ADD425R,0.0001X0.0198*%
%ADD426R,0.0000X0.0206*%
%ADD427R,0.0000X0.0198*%
%ADD428R,0.0001X0.0206*%
%ADD429R,0.0001X0.0198*%
%ADD430R,0.0000X0.0198*%
%ADD431R,0.0001X0.0198*%
%ADD432R,0.0001X0.0197*%
%ADD433R,0.0000X0.0205*%
%ADD434R,0.0000X0.0197*%
%ADD435R,0.0001X0.0205*%
%ADD436R,0.0000X0.0196*%
%ADD437R,0.0001X0.0196*%
%ADD438R,0.0001X0.0204*%
%ADD439R,0.0001X0.0196*%
%ADD440R,0.0000X0.0204*%
%ADD441R,0.0000X0.0196*%
%ADD442R,0.0000X0.0195*%
%ADD443R,0.0001X0.0195*%
%ADD444R,0.0000X0.0195*%
%ADD445R,0.0001X0.0202*%
%ADD446R,0.0001X0.0195*%
%ADD447R,0.0000X0.0202*%
%ADD448R,0.0000X0.0194*%
%ADD449R,0.0001X0.0194*%
%ADD450R,0.0001X0.0201*%
%ADD451R,0.0001X0.0194*%
%ADD452R,0.0000X0.0201*%
%ADD453R,0.0000X0.0194*%
%ADD454R,0.0000X0.0193*%
%ADD455R,0.0001X0.0193*%
%ADD456R,0.0001X0.0193*%
%ADD457R,0.0000X0.0193*%
%ADD458R,0.0001X0.0200*%
%ADD459R,0.0000X0.0200*%
%ADD460R,0.0000X0.0192*%
%ADD461R,0.0001X0.0192*%
%ADD462R,0.0000X0.0199*%
%ADD463R,0.0000X0.0192*%
%ADD464R,0.0001X0.0199*%
%ADD465R,0.0001X0.0192*%
%ADD466R,0.0000X0.0191*%
%ADD467R,0.0001X0.0191*%
%ADD468R,0.0001X0.0191*%
%ADD469R,0.0000X0.0191*%
%ADD470R,0.0000X0.0197*%
%ADD471R,0.0001X0.0197*%
%ADD472R,0.0000X0.0190*%
%ADD473R,0.0001X0.0190*%
%ADD474R,0.0001X0.0190*%
%ADD475R,0.0000X0.0196*%
%ADD476R,0.0000X0.0190*%
%ADD477R,0.0001X0.0196*%
%ADD478R,0.0000X0.0189*%
%ADD479R,0.0001X0.0189*%
%ADD480R,0.0000X0.0189*%
%ADD481R,0.0001X0.0189*%
%ADD482R,0.0000X0.0195*%
%ADD483R,0.0001X0.0195*%
%ADD484R,0.0000X0.0188*%
%ADD485R,0.0001X0.0188*%
%ADD486R,0.0001X0.0188*%
%ADD487R,0.0000X0.0194*%
%ADD488R,0.0000X0.0188*%
%ADD489R,0.0001X0.0194*%
%ADD490R,0.0000X0.0187*%
%ADD491R,0.0001X0.0187*%
%ADD492R,0.0001X0.0187*%
%ADD493R,0.0000X0.0187*%
%ADD494R,0.0000X0.0192*%
%ADD495R,0.0000X0.0186*%
%ADD496R,0.0001X0.0192*%
%ADD497R,0.0001X0.0186*%
%ADD498R,0.0000X0.0186*%
%ADD499R,0.0001X0.0191*%
%ADD500R,0.0001X0.0186*%
%ADD501R,0.0000X0.0191*%
%ADD502R,0.0000X0.0185*%
%ADD503R,0.0001X0.0185*%
%ADD504R,0.0001X0.0185*%
%ADD505R,0.0000X0.0185*%
%ADD506R,0.0001X0.0190*%
%ADD507R,0.0000X0.0190*%
%ADD508R,0.0000X0.0184*%
%ADD509R,0.0001X0.0184*%
%ADD510R,0.0001X0.0184*%
%ADD511R,0.0000X0.0184*%
%ADD512R,0.0001X0.0189*%
%ADD513R,0.0000X0.0189*%
%ADD514R,0.0000X0.0183*%
%ADD515R,0.0001X0.0183*%
%ADD516R,0.0000X0.0183*%
%ADD517R,0.0001X0.0183*%
%ADD518R,0.0001X0.0187*%
%ADD519R,0.0000X0.0187*%
%ADD520R,0.0000X0.0182*%
%ADD521R,0.0001X0.0182*%
%ADD522R,0.0001X0.0182*%
%ADD523R,0.0000X0.0182*%
%ADD524R,0.0000X0.0186*%
%ADD525R,0.0001X0.0186*%
%ADD526R,0.0000X0.0181*%
%ADD527R,0.0001X0.0181*%
%ADD528R,0.0001X0.0181*%
%ADD529R,0.0000X0.0181*%
%ADD530R,0.0000X0.0185*%
%ADD531R,0.0000X0.0180*%
%ADD532R,0.0001X0.0185*%
%ADD533R,0.0001X0.0180*%
%ADD534R,0.0000X0.0180*%
%ADD535R,0.0001X0.0180*%
%ADD536R,0.0000X0.0184*%
%ADD537R,0.0001X0.0184*%
%ADD538R,0.0000X0.0179*%
%ADD539R,0.0001X0.0179*%
%ADD540R,0.0001X0.0179*%
%ADD541R,0.0000X0.0179*%
%ADD542R,0.0000X0.0182*%
%ADD543R,0.0000X0.0178*%
%ADD544R,0.0001X0.0182*%
%ADD545R,0.0001X0.0178*%
%ADD546R,0.0001X0.0178*%
%ADD547R,0.0000X0.0178*%
%ADD548R,0.0000X0.0181*%
%ADD549R,0.0000X0.0177*%
%ADD550R,0.0001X0.0181*%
%ADD551R,0.0001X0.0177*%
%ADD552R,0.0000X0.0177*%
%ADD553R,0.0001X0.0177*%
%ADD554R,0.0000X0.0180*%
%ADD555R,0.0000X0.0176*%
%ADD556R,0.0001X0.0180*%
%ADD557R,0.0001X0.0176*%
%ADD558R,0.0001X0.0176*%
%ADD559R,0.0000X0.0176*%
%ADD560R,0.0001X0.0179*%
%ADD561R,0.0000X0.0179*%
%ADD562R,0.0000X0.0175*%
%ADD563R,0.0001X0.0175*%
%ADD564R,0.0001X0.0175*%
%ADD565R,0.0000X0.0175*%
%ADD566R,0.0000X0.0174*%
%ADD567R,0.0001X0.0177*%
%ADD568R,0.0001X0.0174*%
%ADD569R,0.0000X0.0177*%
%ADD570R,0.0000X0.0174*%
%ADD571R,0.0001X0.0174*%
%ADD572R,0.0001X0.0176*%
%ADD573R,0.0000X0.0176*%
%ADD574R,0.0000X0.0173*%
%ADD575R,0.0001X0.0173*%
%ADD576R,0.0001X0.0173*%
%ADD577R,0.0000X0.0173*%
%ADD578R,0.0000X0.0173*%
%ADD579R,0.0001X0.0175*%
%ADD580R,0.0001X0.0173*%
%ADD581R,0.0000X0.0175*%
%ADD582R,0.0001X0.0172*%
%ADD583R,0.0000X0.0172*%
%ADD584R,0.0000X0.0174*%
%ADD585R,0.0000X0.0171*%
%ADD586R,0.0001X0.0174*%
%ADD587R,0.0001X0.0171*%
%ADD588R,0.0000X0.0171*%
%ADD589R,0.0001X0.0171*%
%ADD590R,0.0000X0.0170*%
%ADD591R,0.0000X0.0172*%
%ADD592R,0.0001X0.0172*%
%ADD593R,0.0001X0.0170*%
%ADD594R,0.0001X0.0170*%
%ADD595R,0.0000X0.0170*%
%ADD596R,0.0000X0.0171*%
%ADD597R,0.0000X0.0169*%
%ADD598R,0.0001X0.0171*%
%ADD599R,0.0001X0.0169*%
%ADD600R,0.0001X0.0169*%
%ADD601R,0.0000X0.0169*%
%ADD602R,0.0000X0.0168*%
%ADD603R,0.0001X0.0168*%
%ADD604R,0.0000X0.0170*%
%ADD605R,0.0001X0.0170*%
%ADD606R,0.0000X0.0168*%
%ADD607R,0.0001X0.0168*%
%ADD608R,0.0000X0.0169*%
%ADD609R,0.0000X0.0168*%
%ADD610R,0.0001X0.0169*%
%ADD611R,0.0001X0.0168*%
%ADD612R,0.0001X0.0167*%
%ADD613R,0.0000X0.0167*%
%ADD614R,0.0000X0.0166*%
%ADD615R,0.0001X0.0166*%
%ADD616R,0.0000X0.0167*%
%ADD617R,0.0001X0.0167*%
%ADD618R,0.0001X0.0166*%
%ADD619R,0.0000X0.0166*%
%ADD620R,0.0000X0.0165*%
%ADD621R,0.0001X0.0166*%
%ADD622R,0.0001X0.0165*%
%ADD623R,0.0000X0.0166*%
%ADD624R,0.0000X0.0165*%
%ADD625R,0.0001X0.0165*%
%ADD626R,0.0000X0.0164*%
%ADD627R,0.0001X0.0165*%
%ADD628R,0.0001X0.0164*%
%ADD629R,0.0000X0.0165*%
%ADD630R,0.0001X0.0164*%
%ADD631R,0.0000X0.0164*%
%ADD632R,0.0000X0.0163*%
%ADD633R,0.0001X0.0164*%
%ADD634R,0.0001X0.0163*%
%ADD635R,0.0000X0.0164*%
%ADD636R,0.0001X0.0163*%
%ADD637R,0.0000X0.0163*%
%ADD638R,0.0000X0.0163*%
%ADD639R,0.0001X0.0163*%
%ADD640R,0.0001X0.0162*%
%ADD641R,0.0000X0.0162*%
%ADD642R,0.0000X0.0162*%
%ADD643R,0.0001X0.0161*%
%ADD644R,0.0001X0.0162*%
%ADD645R,0.0000X0.0161*%
%ADD646R,0.0000X0.0161*%
%ADD647R,0.0001X0.0161*%
%ADD648R,0.0001X0.0160*%
%ADD649R,0.0001X0.0161*%
%ADD650R,0.0000X0.0160*%
%ADD651R,0.0000X0.0161*%
%ADD652R,0.0000X0.0160*%
%ADD653R,0.0001X0.0160*%
%ADD654R,0.0000X0.0160*%
%ADD655R,0.0001X0.0160*%
%ADD656R,0.0001X0.0159*%
%ADD657R,0.0000X0.0159*%
%ADD658R,0.0000X0.0159*%
%ADD659R,0.0001X0.0159*%
%ADD660R,0.0000X0.0159*%
%ADD661R,0.0001X0.0159*%
%ADD662R,0.0000X0.0158*%
%ADD663R,0.0001X0.0158*%
%ADD664R,0.0000X0.0158*%
%ADD665R,0.0000X0.0158*%
%ADD666R,0.0001X0.0158*%
%ADD667R,0.0001X0.0158*%
%ADD668R,0.0000X0.0157*%
%ADD669R,0.0001X0.0157*%
%ADD670R,0.0000X0.0156*%
%ADD671R,0.0001X0.0156*%
%ADD672R,0.0000X0.0156*%
%ADD673R,0.0001X0.0156*%
%ADD674R,0.0001X0.0157*%
%ADD675R,0.0000X0.0155*%
%ADD676R,0.0000X0.0157*%
%ADD677R,0.0001X0.0155*%
%ADD678R,0.0001X0.0155*%
%ADD679R,0.0000X0.0155*%
%ADD680R,0.0000X0.0155*%
%ADD681R,0.0000X0.0156*%
%ADD682R,0.0001X0.0155*%
%ADD683R,0.0001X0.0156*%
%ADD684R,0.0000X0.0154*%
%ADD685R,0.0001X0.0154*%
%ADD686R,0.0001X0.0154*%
%ADD687R,0.0000X0.0154*%
%ADD688R,0.0000X0.0153*%
%ADD689R,0.0001X0.0153*%
%ADD690R,0.0000X0.0154*%
%ADD691R,0.0001X0.0152*%
%ADD692R,0.0001X0.0154*%
%ADD693R,0.0000X0.0152*%
%ADD694R,0.0001X0.0152*%
%ADD695R,0.0000X0.0152*%
%ADD696R,0.0000X0.0151*%
%ADD697R,0.0000X0.0153*%
%ADD698R,0.0001X0.0151*%
%ADD699R,0.0001X0.0153*%
%ADD700R,0.0001X0.0151*%
%ADD701R,0.0000X0.0151*%
%ADD702R,0.0001X0.0150*%
%ADD703R,0.0000X0.0150*%
%ADD704R,0.0000X0.0150*%
%ADD705R,0.0001X0.0150*%
%ADD706R,0.0001X0.0150*%
%ADD707R,0.0001X0.0152*%
%ADD708R,0.0000X0.0150*%
%ADD709R,0.0000X0.0152*%
%ADD710R,0.0000X0.0149*%
%ADD711R,0.0001X0.0149*%
%ADD712R,0.0000X0.0149*%
%ADD713R,0.0001X0.0149*%
%ADD714R,0.0001X0.0151*%
%ADD715R,0.0000X0.0151*%
%ADD716R,0.0001X0.0148*%
%ADD717R,0.0000X0.0148*%
%ADD718R,0.0000X0.0260*%
%ADD719R,0.0000X0.0259*%
%ADD720R,0.0001X0.0260*%
%ADD721R,0.0001X0.0259*%
%ADD722R,0.0000X0.0868*%
%ADD723R,0.0001X0.0868*%
%ADD724R,0.0000X0.0321*%
%ADD725R,0.0000X0.0305*%
%ADD726R,0.0001X0.0321*%
%ADD727R,0.0001X0.0305*%
%ADD728R,0.0000X0.0867*%
%ADD729R,0.0001X0.0867*%
%ADD730R,0.0000X0.0867*%
%ADD731R,0.0001X0.0867*%
%ADD732R,0.0000X0.0866*%
%ADD733R,0.0000X0.0866*%
%ADD734R,0.0001X0.0866*%
%ADD735R,0.0000X0.0866*%
%ADD736R,0.0001X0.0866*%
%ADD737R,0.0000X0.0865*%
%ADD738R,0.0001X0.0865*%
%ADD739R,0.0001X0.0864*%
%ADD740R,0.0000X0.0864*%
%ADD741R,0.0001X0.0864*%
%ADD742R,0.0000X0.0864*%
%ADD743R,0.0001X0.0864*%
%ADD744R,0.0000X0.0864*%
%ADD745R,0.0001X0.0863*%
%ADD746R,0.0000X0.0863*%
%ADD747R,0.0001X0.0862*%
%ADD748R,0.0000X0.0862*%
%ADD749R,0.0001X0.0862*%
%ADD750R,0.0000X0.0862*%
%ADD751R,0.0001X0.0861*%
%ADD752R,0.0000X0.0861*%
%ADD753R,0.0001X0.0861*%
%ADD754R,0.0001X0.0860*%
%ADD755R,0.0000X0.0860*%
%ADD756R,0.0000X0.0859*%
%ADD757R,0.0001X0.0859*%
%ADD758R,0.0000X0.0858*%
%ADD759R,0.0001X0.0858*%
%ADD760R,0.0001X0.0857*%
%ADD761R,0.0000X0.0857*%
%ADD762R,0.0000X0.0856*%
%ADD763R,0.0001X0.0856*%
%ADD764R,0.0000X0.0855*%
%ADD765R,0.0001X0.0855*%
%ADD766R,0.0000X0.0855*%
%ADD767R,0.0001X0.0855*%
%ADD768R,0.0000X0.0854*%
%ADD769R,0.0001X0.0854*%
%ADD770R,0.0000X0.0853*%
%ADD771R,0.0001X0.0853*%
%ADD772R,0.0000X0.0853*%
%ADD773R,0.0000X0.0853*%
%ADD774R,0.0001X0.0852*%
%ADD775R,0.0000X0.0852*%
%ADD776R,0.0001X0.0852*%
%ADD777R,0.0000X0.0851*%
%ADD778R,0.0001X0.0850*%
%ADD779R,0.0000X0.0850*%
%ADD780R,0.0001X0.0850*%
%ADD781R,0.0000X0.0849*%
%ADD782R,0.0001X0.0848*%
%ADD783R,0.0000X0.0848*%
%ADD784R,0.0001X0.0848*%
%ADD785R,0.0000X0.0848*%
%ADD786R,0.0000X0.0847*%
%ADD787R,0.0001X0.0847*%
%ADD788R,0.0000X0.0846*%
%ADD789R,0.0001X0.0846*%
%ADD790R,0.0000X0.0845*%
%ADD791R,0.0000X0.0845*%
%ADD792R,0.0001X0.0845*%
%ADD793R,0.0000X0.0843*%
%ADD794R,0.0001X0.0843*%
%ADD795R,0.0000X0.0841*%
%ADD796R,0.0000X0.0840*%
%ADD797R,0.0001X0.0839*%
%ADD798R,0.0000X0.0838*%
%ADD799R,0.0001X0.0837*%
%ADD800R,0.0000X0.0836*%
%ADD801R,0.0000X0.0835*%
%ADD802R,0.0001X0.0834*%
%ADD803R,0.0000X0.0833*%
%ADD804R,0.0001X0.0832*%
%ADD805R,0.0000X0.0831*%
%ADD806R,0.0000X0.0830*%
%ADD807R,0.0001X0.0829*%
%ADD808R,0.0000X0.0828*%
%ADD809R,0.0001X0.0827*%
%ADD810R,0.0000X0.0826*%
%ADD811R,0.0000X0.0825*%
%ADD812R,0.0001X0.0824*%
%ADD813R,0.0000X0.0823*%
%ADD814R,0.0001X0.0822*%
%ADD815R,0.0000X0.0821*%
%ADD816R,0.0000X0.0820*%
%ADD817R,0.0001X0.0819*%
%ADD818R,0.0000X0.0818*%
%ADD819R,0.0001X0.0817*%
%ADD820R,0.0000X0.0816*%
%ADD821R,0.0000X0.0815*%
%ADD822R,0.0001X0.0814*%
%ADD823R,0.0000X0.0813*%
%ADD824R,0.0001X0.0812*%
%ADD825R,0.0000X0.0811*%
%ADD826R,0.0000X0.0810*%
%ADD827R,0.0001X0.0808*%
%ADD828R,0.0000X0.0808*%
%ADD829R,0.0001X0.0807*%
%ADD830R,0.0000X0.0805*%
%ADD831R,0.0000X0.0805*%
%ADD832R,0.0001X0.0803*%
%ADD833R,0.0000X0.0803*%
%ADD834R,0.0001X0.0802*%
%ADD835R,0.0000X0.0800*%
%ADD836R,0.0000X0.0800*%
%ADD837R,0.0001X0.0798*%
%ADD838R,0.0000X0.0798*%
%ADD839R,0.0001X0.0797*%
%ADD840R,0.0000X0.0795*%
%ADD841R,0.0000X0.0795*%
%ADD842R,0.0001X0.0793*%
%ADD843R,0.0000X0.0793*%
%ADD844R,0.0001X0.0791*%
%ADD845R,0.0000X0.0790*%
%ADD846R,0.0000X0.0789*%
%ADD847R,0.0001X0.0788*%
%ADD848R,0.0000X0.0787*%
%ADD849R,0.0001X0.0786*%
%ADD850R,0.0000X0.0785*%
%ADD851R,0.0000X0.0784*%
%ADD852R,0.0001X0.0783*%
%ADD853R,0.0000X0.0782*%
%ADD854R,0.0001X0.0781*%
%ADD855R,0.0000X0.0780*%
%ADD856R,0.0000X0.0779*%
%ADD857R,0.0001X0.0778*%
%ADD858R,0.0000X0.0777*%
%ADD859R,0.0001X0.0776*%
%ADD860R,0.0000X0.0775*%
%ADD861R,0.0000X0.0774*%
%ADD862R,0.0001X0.0773*%
%ADD863R,0.0000X0.0772*%
%ADD864R,0.0001X0.0771*%
%ADD865R,0.0000X0.0770*%
%ADD866R,0.0000X0.0769*%
%ADD867R,0.0001X0.0768*%
%ADD868R,0.0000X0.0767*%
%ADD869R,0.0001X0.0766*%
%ADD870R,0.0000X0.0765*%
%ADD871R,0.0000X0.0764*%
%ADD872R,0.0001X0.0763*%
%ADD873R,0.0000X0.0762*%
%ADD874R,0.0001X0.0761*%
%ADD875R,0.0000X0.0760*%
%ADD876R,0.0000X0.0758*%
%ADD877R,0.0001X0.0757*%
%ADD878R,0.0000X0.0757*%
%ADD879R,0.0001X0.0755*%
%ADD880R,0.0000X0.0755*%
%ADD881R,0.0000X0.0753*%
%ADD882R,0.0001X0.0752*%
%ADD883R,0.0000X0.0752*%
%ADD884R,0.0001X0.0750*%
%ADD885R,0.0000X0.0750*%
%ADD886R,0.0000X0.0748*%
%ADD887R,0.0001X0.0747*%
%ADD888R,0.0000X0.0747*%
%ADD889R,0.0001X0.0745*%
%ADD890R,0.0000X0.0745*%
%ADD891R,0.0000X0.0743*%
%ADD892R,0.0001X0.0742*%
%ADD893R,0.0000X0.0741*%
%ADD894R,0.0001X0.0740*%
%ADD895R,0.0000X0.0739*%
%ADD896R,0.0000X0.0738*%
%ADD897R,0.0001X0.0737*%
%ADD898R,0.0000X0.0736*%
%ADD899R,0.0001X0.0735*%
%ADD900R,0.0000X0.0734*%
%ADD901R,0.0000X0.0733*%
%ADD902R,0.0001X0.0732*%
%ADD903R,0.0000X0.0731*%
%ADD904R,0.0001X0.0730*%
%ADD905R,0.0000X0.0729*%
%ADD906R,0.0000X0.0728*%
%ADD907R,0.0001X0.0727*%
%ADD908R,0.0000X0.0726*%
%ADD909R,0.0001X0.0725*%
%ADD910R,0.0000X0.0724*%
%ADD911R,0.0000X0.0723*%
%ADD912R,0.0001X0.0722*%
%ADD913R,0.0000X0.0721*%
%ADD914R,0.0001X0.0720*%
%ADD915R,0.0000X0.0719*%
%ADD916R,0.0000X0.0718*%
%ADD917R,0.0001X0.0717*%
%ADD918R,0.0000X0.0716*%
%ADD919R,0.0001X0.0715*%
%ADD920R,0.0000X0.0714*%
%ADD921R,0.0000X0.0713*%
%ADD922R,0.0001X0.0712*%
%ADD923R,0.0000X0.0711*%
%ADD924R,0.0001X0.0710*%
%ADD925R,0.0000X0.0709*%
%ADD926R,0.0000X0.0707*%
%ADD927R,0.0001X0.0707*%
%ADD928R,0.0000X0.0705*%
%ADD929R,0.0001X0.0705*%
%ADD930R,0.0000X0.0703*%
%ADD931R,0.0000X0.0703*%
%ADD932R,0.0001X0.0702*%
%ADD933R,0.0000X0.0700*%
%ADD934R,0.0001X0.0700*%
%ADD935R,0.0000X0.0698*%
%ADD936R,0.0000X0.0698*%
%ADD937R,0.0001X0.0697*%
%ADD938R,0.0000X0.0695*%
%ADD939R,0.0001X0.0695*%
%ADD940R,0.0000X0.0693*%
%ADD941R,0.0000X0.0692*%
%ADD942R,0.0001X0.0691*%
%ADD943R,0.0000X0.0690*%
%ADD944R,0.0001X0.0689*%
%ADD945R,0.0000X0.0688*%
%ADD946R,0.0000X0.0687*%
%ADD947R,0.0001X0.0686*%
%ADD948R,0.0000X0.0685*%
%ADD949R,0.0001X0.0684*%
%ADD950R,0.0000X0.0683*%
%ADD951R,0.0000X0.0682*%
%ADD952R,0.0001X0.0681*%
%ADD953R,0.0000X0.0680*%
%ADD954R,0.0001X0.0679*%
%ADD955R,0.0000X0.0678*%
%ADD956R,0.0000X0.0677*%
%ADD957R,0.0001X0.0676*%
%ADD958R,0.0000X0.0675*%
%ADD959R,0.0001X0.0674*%
%ADD960R,0.0000X0.0673*%
%ADD961R,0.0000X0.0672*%
%ADD962R,0.0001X0.0671*%
%ADD963R,0.0000X0.0670*%
%ADD964R,0.0001X0.0669*%
%ADD965R,0.0000X0.0668*%
%ADD966R,0.0000X0.0667*%
%ADD967R,0.0001X0.0666*%
%ADD968R,0.0000X0.0665*%
%ADD969R,0.0001X0.0664*%
%ADD970R,0.0000X0.0663*%
%ADD971R,0.0000X0.0662*%
%ADD972R,0.0001X0.0661*%
%ADD973R,0.0000X0.0660*%
%ADD974R,0.0001X0.0659*%
%ADD975R,0.0000X0.0658*%
%ADD976R,0.0000X0.0657*%
%ADD977R,0.0001X0.0655*%
%ADD978R,0.0000X0.0655*%
%ADD979R,0.0001X0.0653*%
%ADD980R,0.0000X0.0653*%
%ADD981R,0.0000X0.0652*%
%ADD982R,0.0001X0.0650*%
%ADD983R,0.0000X0.0650*%
%ADD984R,0.0001X0.0648*%
%ADD985R,0.0000X0.0648*%
%ADD986R,0.0000X0.0647*%
%ADD987R,0.0001X0.0645*%
%ADD988R,0.0000X0.0645*%
%ADD989R,0.0001X0.0643*%
%ADD990R,0.0000X0.0642*%
%ADD991R,0.0000X0.0641*%
%ADD992R,0.0001X0.0640*%
%ADD993R,0.0000X0.0639*%
%ADD994R,0.0001X0.0638*%
%ADD995R,0.0000X0.0637*%
%ADD996R,0.0000X0.0636*%
%ADD997R,0.0001X0.0635*%
%ADD998R,0.0000X0.0634*%
%ADD999R,0.0001X0.0633*%
%ADD1000R,0.0000X0.0632*%
%ADD1001R,0.0000X0.0631*%
%ADD1002R,0.0001X0.0630*%
%ADD1003R,0.0000X0.0629*%
%ADD1004R,0.0001X0.0628*%
%ADD1005R,0.0000X0.0627*%
%ADD1006R,0.0000X0.0626*%
%ADD1007R,0.0001X0.0625*%
%ADD1008R,0.0000X0.0624*%
%ADD1009R,0.0001X0.0623*%
%ADD1010R,0.0000X0.0622*%
%ADD1011R,0.0000X0.0621*%
%ADD1012R,0.0001X0.0620*%
%ADD1013R,0.0000X0.0619*%
%ADD1014R,0.0001X0.0618*%
%ADD1015R,0.0000X0.0617*%
%ADD1016R,0.0000X0.0616*%
%ADD1017R,0.0001X0.0615*%
%ADD1018R,0.0000X0.0614*%
%ADD1019R,0.0001X0.0613*%
%ADD1020R,0.0000X0.0612*%
%ADD1021R,0.0000X0.0611*%
%ADD1022R,0.0001X0.0610*%
%ADD1023R,0.0000X0.0609*%
%ADD1024R,0.0001X0.0607*%
%ADD1025R,0.0000X0.0607*%
%ADD1026R,0.0000X0.0605*%
%ADD1027R,0.0001X0.0605*%
%ADD1028R,0.0000X0.0603*%
%ADD1029R,0.0001X0.0602*%
%ADD1030R,0.0000X0.0602*%
%ADD1031R,0.0000X0.0600*%
%ADD1032R,0.0001X0.0600*%
%ADD1033R,0.0000X0.0598*%
%ADD1034R,0.0001X0.0597*%
%ADD1035R,0.0000X0.0597*%
%ADD1036R,0.0000X0.0595*%
%ADD1037R,0.0001X0.0595*%
%ADD1038R,0.0000X0.0593*%
%ADD1039R,0.0001X0.0592*%
%ADD1040R,0.0000X0.0591*%
%ADD1041R,0.0000X0.0590*%
%ADD1042R,0.0001X0.0589*%
%ADD1043R,0.0000X0.0588*%
%ADD1044R,0.0001X0.0587*%
%ADD1045R,0.0000X0.0586*%
%ADD1046R,0.0000X0.0585*%
%ADD1047R,0.0001X0.0584*%
%ADD1048R,0.0000X0.0583*%
%ADD1049R,0.0001X0.0582*%
%ADD1050R,0.0000X0.0581*%
%ADD1051R,0.0000X0.0580*%
%ADD1052R,0.0001X0.0579*%
%ADD1053R,0.0000X0.0578*%
%ADD1054R,0.0001X0.0577*%
%ADD1055R,0.0000X0.0576*%
%ADD1056R,0.0000X0.0575*%
%ADD1057R,0.0001X0.0574*%
%ADD1058R,0.0000X0.0573*%
%ADD1059R,0.0001X0.0571*%
%ADD1060R,0.0000X0.0568*%
%ADD1061R,0.0000X0.0565*%
%ADD1062R,0.0001X0.0563*%
%ADD1063R,0.0000X0.0560*%
%ADD1064R,0.0001X0.0557*%
%ADD1065R,0.0000X0.0554*%
%ADD1066R,0.0000X0.0551*%
%ADD1067R,0.0001X0.0548*%
%ADD1068R,0.0000X0.0545*%
%ADD1069R,0.0001X0.0542*%
%ADD1070R,0.0000X0.0537*%
%ADD1071R,0.0000X0.0533*%
%ADD1072R,0.0001X0.0530*%
%ADD1073R,0.0000X0.0526*%
%ADD1074R,0.0001X0.0522*%
%ADD1075R,0.0000X0.0518*%
%ADD1076R,0.0000X0.0513*%
%ADD1077R,0.0001X0.0508*%
%ADD1078R,0.0000X0.0503*%
%ADD1079R,0.0001X0.0496*%
%ADD1080R,0.0000X0.0489*%
%ADD1081R,0.0000X0.0477*%
%ADD1082C,0.0000*%
D10*
X001369Y002753D02*
X001519Y002753D01*
X001594Y002828D01*
X001519Y002978D02*
X001369Y002978D01*
X001294Y002903D01*
X001294Y002828D01*
X001369Y002753D01*
X001519Y002978D02*
X001594Y003053D01*
X001594Y003128D01*
X001519Y003203D01*
X001369Y003203D01*
X001294Y003128D01*
X001754Y003203D02*
X001754Y002828D01*
X001829Y002753D01*
X001979Y002753D01*
X002054Y002828D01*
X002054Y003203D01*
X002214Y003128D02*
X002214Y003053D01*
X002289Y002978D01*
X002515Y002978D01*
X002214Y002978D01*
X002214Y002903D02*
X002214Y002828D01*
X002289Y002753D01*
X002515Y002753D01*
X002515Y003203D01*
X002289Y003203D01*
X002214Y003128D01*
X002289Y002978D02*
X002214Y002903D01*
X002675Y002903D02*
X002675Y003203D01*
X002675Y003128D02*
X002750Y003203D01*
X002975Y003203D01*
X002975Y002903D01*
X002825Y002753D01*
X002675Y002903D01*
X002675Y002828D02*
X002675Y003128D01*
X002675Y002828D02*
X002750Y002753D01*
X002975Y002753D01*
X002975Y003203D01*
X002575Y003753D02*
X002350Y003753D01*
X002275Y003828D01*
X002275Y004128D01*
X002350Y004203D01*
X002575Y004203D01*
X002575Y003753D01*
X002115Y003978D02*
X001814Y003978D01*
X002350Y004753D02*
X002275Y004828D01*
X002275Y005128D01*
X002350Y005203D01*
X002575Y005203D01*
X002575Y004753D01*
X002350Y004753D01*
X002115Y004978D02*
X001814Y004978D01*
X001964Y005128D02*
X001964Y004828D01*
X002029Y005753D02*
X001879Y005753D01*
X001804Y005828D01*
X001804Y005903D01*
X001879Y005978D01*
X002029Y005978D01*
X002104Y006053D01*
X002104Y006128D01*
X002029Y006203D01*
X001879Y006203D01*
X001804Y006128D01*
X001644Y006203D02*
X001419Y006203D01*
X001344Y006128D01*
X001344Y006053D01*
X001419Y005978D01*
X001644Y005978D01*
X001644Y005753D02*
X001644Y006203D01*
X001419Y005978D02*
X001344Y005903D01*
X001344Y005828D01*
X001419Y005753D01*
X001644Y005753D01*
X002029Y005753D02*
X002104Y005828D01*
X002264Y005828D02*
X002264Y006203D01*
X002264Y005828D02*
X002339Y005753D01*
X002490Y005753D01*
X002565Y005828D01*
X002565Y006203D01*
X002725Y006203D02*
X002725Y005903D01*
X002875Y005753D01*
X003025Y005903D01*
X003025Y006203D01*
D11*
X002970Y005168D02*
X002970Y005057D01*
X003007Y005021D01*
X003080Y005021D01*
X003117Y005057D01*
X003117Y005168D01*
X003190Y005168D02*
X002970Y005168D01*
X003043Y004910D02*
X003043Y004836D01*
X003080Y004800D01*
X003190Y004800D01*
X003190Y004910D01*
X003153Y004947D01*
X003117Y004910D01*
X003117Y004800D01*
X003080Y004726D02*
X003043Y004689D01*
X003043Y004579D01*
X003117Y004615D02*
X003117Y004689D01*
X003080Y004726D01*
X003117Y004615D02*
X003153Y004579D01*
X003190Y004615D01*
X003190Y004726D01*
X003153Y004505D02*
X003117Y004468D01*
X003117Y004358D01*
X003080Y004358D02*
X003190Y004358D01*
X003190Y004468D01*
X003153Y004505D01*
X003043Y004394D02*
X003080Y004358D01*
X003043Y004394D02*
X003043Y004468D01*
X003080Y004284D02*
X003043Y004247D01*
X003043Y004137D01*
X002970Y004137D02*
X003190Y004137D01*
X003190Y004247D01*
X003153Y004284D01*
X003080Y004284D01*
X003080Y004063D02*
X003043Y004026D01*
X003043Y003953D01*
X003080Y003916D01*
X003117Y003916D01*
X003117Y004063D01*
X003153Y004063D02*
X003080Y004063D01*
X003153Y004063D02*
X003190Y004026D01*
X003190Y003953D01*
X003190Y003842D02*
X003043Y003842D01*
X003043Y003732D01*
X003080Y003695D01*
X003190Y003695D01*
X003153Y003621D02*
X003117Y003584D01*
X003117Y003474D01*
X003080Y003474D02*
X003190Y003474D01*
X003190Y003584D01*
X003153Y003621D01*
X003043Y003511D02*
X003080Y003474D01*
X003043Y003511D02*
X003043Y003584D01*
X003153Y003363D02*
X003190Y003363D01*
X003190Y003326D01*
X003153Y003326D01*
X003153Y003363D01*
X003190Y003326D02*
X003263Y003400D01*
X003153Y003031D02*
X003007Y003031D01*
X002970Y002995D01*
X002970Y002921D01*
X003007Y002885D01*
X003043Y002810D02*
X002970Y002737D01*
X003043Y002664D01*
X003190Y002664D01*
X003190Y002810D02*
X003043Y002810D01*
X003080Y002810D02*
X003080Y002664D01*
X003153Y002885D02*
X003190Y002921D01*
X003190Y002995D01*
X003153Y003031D01*
X001640Y003281D02*
X001603Y003318D01*
X001457Y003318D01*
X001493Y003355D02*
X001493Y003281D01*
X001493Y003429D02*
X001640Y003429D01*
X001640Y003539D01*
X001603Y003576D01*
X001493Y003576D01*
X001530Y003650D02*
X001493Y003686D01*
X001493Y003760D01*
X001530Y003797D01*
X001603Y003797D01*
X001640Y003760D01*
X001640Y003686D01*
X001603Y003650D01*
X001530Y003650D01*
X001493Y003871D02*
X001567Y003981D01*
X001640Y003871D01*
X001640Y003981D02*
X001420Y003981D01*
X001493Y004092D02*
X001530Y004055D01*
X001640Y004055D01*
X001640Y004165D01*
X001603Y004202D01*
X001567Y004165D01*
X001567Y004055D01*
X001493Y004092D02*
X001493Y004165D01*
X001530Y004276D02*
X001567Y004276D01*
X001567Y004423D01*
X001603Y004423D02*
X001530Y004423D01*
X001493Y004386D01*
X001493Y004313D01*
X001530Y004276D01*
X001640Y004313D02*
X001640Y004386D01*
X001603Y004423D01*
X001493Y004533D02*
X001567Y004607D01*
X001640Y004607D02*
X001493Y004607D01*
X001493Y004533D02*
X001493Y004497D01*
X001493Y004681D02*
X001457Y004681D01*
X001420Y004718D01*
X001420Y004828D01*
X001640Y004828D01*
X001640Y004718D01*
X001603Y004681D01*
X001567Y004681D01*
X001530Y004718D01*
X001530Y004828D01*
X001530Y004718D02*
X001493Y004681D01*
X001280Y004699D02*
X001133Y004699D01*
X001133Y004736D01*
X001060Y004699D02*
X001023Y004699D01*
X001060Y004810D02*
X001280Y004810D01*
X001280Y004736D02*
X001280Y004662D01*
X001243Y004588D02*
X001280Y004552D01*
X001280Y004442D01*
X001280Y004367D02*
X001133Y004367D01*
X001133Y004294D02*
X001133Y004257D01*
X001133Y004294D02*
X001207Y004367D01*
X001133Y004442D02*
X001133Y004552D01*
X001170Y004588D01*
X001243Y004588D01*
X001060Y004810D02*
X001133Y004883D01*
X001060Y004957D01*
X001280Y004957D01*
X001243Y004183D02*
X001170Y004183D01*
X001133Y004147D01*
X001133Y004073D01*
X001170Y004036D01*
X001243Y004036D01*
X001280Y004073D01*
X001280Y004147D01*
X001243Y004183D01*
X001170Y003962D02*
X001170Y003816D01*
X001243Y003741D02*
X001280Y003705D01*
X001280Y003631D01*
X001243Y003595D01*
X001060Y003595D01*
X001097Y003520D02*
X001133Y003520D01*
X001170Y003484D01*
X001170Y003410D01*
X001207Y003374D01*
X001243Y003374D01*
X001280Y003410D01*
X001280Y003484D01*
X001243Y003520D01*
X001097Y003520D02*
X001060Y003484D01*
X001060Y003410D01*
X001097Y003374D01*
X001060Y003299D02*
X001060Y003189D01*
X001097Y003153D01*
X001133Y003153D01*
X001170Y003189D01*
X001170Y003299D01*
X001170Y003189D02*
X001207Y003153D01*
X001243Y003153D01*
X001280Y003189D01*
X001280Y003299D01*
X001060Y003299D01*
X001060Y003741D02*
X001243Y003741D01*
D12*
X002875Y004361D03*
D13*
X002875Y003744D03*
D14*
X002875Y003745D03*
X002875Y004361D03*
D15*
X002874Y004361D03*
D16*
X002874Y003744D03*
D17*
X002874Y004361D03*
D18*
X002874Y003744D03*
X002624Y003744D03*
D19*
X002873Y003745D03*
X002873Y004361D03*
D20*
X002873Y004361D03*
D21*
X002873Y003745D03*
D22*
X002872Y003745D03*
X002872Y004361D03*
D23*
X002871Y004361D03*
X002871Y003745D03*
D24*
X002871Y003744D03*
X002626Y003744D03*
X002871Y004361D03*
D25*
X002871Y004361D03*
X002871Y003745D03*
D26*
X002870Y004361D03*
D27*
X002870Y003745D03*
D28*
X002870Y004361D03*
D29*
X002870Y003744D03*
D30*
X002869Y004361D03*
D31*
X002869Y003745D03*
D32*
X002869Y003745D03*
X002629Y003745D03*
X002869Y004361D03*
D33*
X002868Y004361D03*
X002868Y003745D03*
D34*
X002868Y003745D03*
X002868Y004361D03*
D35*
X002867Y004361D03*
D36*
X002867Y003745D03*
D37*
X002866Y004361D03*
D38*
X002866Y003745D03*
D39*
X002866Y003745D03*
X002866Y004361D03*
D40*
X002866Y004361D03*
D41*
X002866Y003744D03*
D42*
X002865Y004361D03*
D43*
X002865Y003744D03*
D44*
X002865Y004361D03*
D45*
X002636Y004361D03*
X002865Y003745D03*
D46*
X002864Y004361D03*
X002636Y004361D03*
D47*
X002864Y003745D03*
D48*
X002864Y004361D03*
D49*
X002864Y003744D03*
X002634Y003744D03*
D50*
X002637Y004361D03*
X002863Y004361D03*
D51*
X002863Y003745D03*
D52*
X002863Y003745D03*
X002635Y003745D03*
X002863Y004361D03*
D53*
X002862Y004361D03*
D54*
X002638Y004361D03*
X002862Y003745D03*
D55*
X002861Y003745D03*
X002861Y004361D03*
X002639Y004361D03*
D56*
X002861Y004361D03*
D57*
X002861Y003744D03*
X002636Y003744D03*
D58*
X002637Y003745D03*
X002861Y003745D03*
X002861Y004361D03*
D59*
X002860Y004361D03*
D60*
X002640Y004361D03*
X002636Y003745D03*
X002860Y003745D03*
D61*
X002860Y004361D03*
D62*
X002860Y003745D03*
X002638Y003745D03*
D63*
X002641Y004361D03*
X002859Y004361D03*
D64*
X002859Y003745D03*
X002638Y003745D03*
D65*
X002643Y004361D03*
X002858Y004361D03*
X002859Y004361D03*
D66*
X002641Y004361D03*
X002639Y003744D03*
X002859Y003744D03*
D67*
X002858Y004361D03*
X002642Y004361D03*
D68*
X002640Y003745D03*
X002858Y003745D03*
D69*
X002858Y003745D03*
X002639Y003745D03*
D70*
X002643Y004361D03*
X002857Y004361D03*
D71*
X002857Y003744D03*
D72*
X002856Y003745D03*
X002856Y003745D03*
X002641Y003745D03*
X002641Y003745D03*
X002644Y004361D03*
X002644Y004361D03*
X002856Y004361D03*
X002856Y004361D03*
D73*
X002856Y004361D03*
D74*
X002645Y004361D03*
X002641Y003745D03*
X002856Y003745D03*
D75*
X002855Y004361D03*
X002645Y004361D03*
D76*
X002855Y003744D03*
D77*
X002855Y003745D03*
X002853Y003745D03*
X002645Y003745D03*
X002643Y003745D03*
X002646Y004361D03*
X002647Y004361D03*
X002853Y004361D03*
X002855Y004361D03*
D78*
X002854Y004361D03*
X002854Y004361D03*
X002648Y004361D03*
X002646Y004361D03*
X002646Y004361D03*
X002644Y003745D03*
X002644Y003745D03*
X002643Y003745D03*
X002853Y003745D03*
X002854Y003745D03*
X002854Y003745D03*
D79*
X002853Y004361D03*
X002851Y004361D03*
X002851Y004361D03*
X002850Y004361D03*
X002849Y004361D03*
X002849Y004361D03*
X002848Y004361D03*
X002846Y004361D03*
X002846Y004361D03*
X002845Y004361D03*
X002844Y004361D03*
X002844Y004361D03*
X002843Y004361D03*
X002841Y004361D03*
X002841Y004361D03*
X002840Y004361D03*
X002839Y004361D03*
X002839Y004361D03*
X002838Y004361D03*
X002836Y004361D03*
X002836Y004361D03*
X002835Y004361D03*
X002834Y004361D03*
X002834Y004361D03*
X002833Y004361D03*
X002831Y004361D03*
X002831Y004361D03*
X002830Y004361D03*
X002829Y004361D03*
X002829Y004361D03*
X002828Y004361D03*
X002826Y004361D03*
X002826Y004361D03*
X002825Y004361D03*
X002824Y004361D03*
X002824Y004361D03*
X002823Y004361D03*
X002821Y004361D03*
X002821Y004361D03*
X002820Y004361D03*
X002819Y004361D03*
X002819Y004361D03*
X002818Y004361D03*
X002816Y004361D03*
X002816Y004361D03*
X002815Y004361D03*
X002814Y004361D03*
X002814Y004361D03*
X002813Y004361D03*
X002811Y004361D03*
X002811Y004361D03*
X002810Y004361D03*
X002809Y004361D03*
X002809Y004361D03*
X002808Y004361D03*
X002806Y004361D03*
X002806Y004361D03*
X002805Y004361D03*
X002804Y004361D03*
X002804Y004361D03*
X002803Y004361D03*
X002801Y004361D03*
X002801Y004361D03*
X002800Y004361D03*
X002799Y004361D03*
X002799Y004361D03*
X002798Y004361D03*
X002796Y004361D03*
X002796Y004361D03*
X002795Y004361D03*
X002794Y004361D03*
X002794Y004361D03*
X002793Y004361D03*
X002791Y004361D03*
X002791Y004361D03*
X002790Y004361D03*
X002789Y004361D03*
X002789Y004361D03*
X002788Y004361D03*
X002786Y004361D03*
X002786Y004361D03*
X002785Y004361D03*
X002784Y004361D03*
X002784Y004361D03*
X002783Y004361D03*
X002781Y004361D03*
X002781Y004361D03*
X002780Y004361D03*
X002779Y004361D03*
X002779Y004361D03*
X002778Y004361D03*
X002776Y004361D03*
X002776Y004361D03*
X002775Y004361D03*
X002774Y004361D03*
X002774Y004361D03*
X002773Y004361D03*
X002771Y004361D03*
X002771Y004361D03*
X002770Y004361D03*
X002769Y004361D03*
X002769Y004361D03*
X002768Y004361D03*
X002766Y004361D03*
X002766Y004361D03*
X002765Y004361D03*
X002764Y004361D03*
X002764Y004361D03*
X002763Y004361D03*
X002761Y004361D03*
X002761Y004361D03*
X002760Y004361D03*
X002759Y004361D03*
X002759Y004361D03*
X002758Y004361D03*
X002756Y004361D03*
X002756Y004361D03*
X002755Y004361D03*
X002754Y004361D03*
X002754Y004361D03*
X002753Y004361D03*
X002751Y004361D03*
X002751Y004361D03*
X002750Y004361D03*
X002749Y004361D03*
X002749Y004361D03*
X002748Y004361D03*
X002746Y004361D03*
X002746Y004361D03*
X002745Y004361D03*
X002744Y004361D03*
X002744Y004361D03*
X002743Y004361D03*
X002741Y004361D03*
X002741Y004361D03*
X002740Y004361D03*
X002739Y004361D03*
X002739Y004361D03*
X002738Y004361D03*
X002736Y004361D03*
X002736Y004361D03*
X002735Y004361D03*
X002734Y004361D03*
X002734Y004361D03*
X002733Y004361D03*
X002731Y004361D03*
X002731Y004361D03*
X002730Y004361D03*
X002729Y004361D03*
X002729Y004361D03*
X002728Y004361D03*
X002726Y004361D03*
X002726Y004361D03*
X002725Y004361D03*
X002724Y004361D03*
X002724Y004361D03*
X002723Y004361D03*
X002721Y004361D03*
X002721Y004361D03*
X002720Y004361D03*
X002719Y004361D03*
X002719Y004361D03*
X002718Y004361D03*
X002716Y004361D03*
X002716Y004361D03*
X002715Y004361D03*
X002714Y004361D03*
X002714Y004361D03*
X002713Y004361D03*
X002711Y004361D03*
X002711Y004361D03*
X002710Y004361D03*
X002709Y004361D03*
X002709Y004361D03*
X002708Y004361D03*
X002706Y004361D03*
X002706Y004361D03*
X002705Y004361D03*
X002704Y004361D03*
X002704Y004361D03*
X002703Y004361D03*
X002701Y004361D03*
X002701Y004361D03*
X002700Y004361D03*
X002699Y004361D03*
X002699Y004361D03*
X002698Y004361D03*
X002696Y004361D03*
X002696Y004361D03*
X002695Y004361D03*
X002694Y004361D03*
X002694Y004361D03*
X002693Y004361D03*
X002691Y004361D03*
X002691Y004361D03*
X002690Y004361D03*
X002689Y004361D03*
X002689Y004361D03*
X002688Y004361D03*
X002686Y004361D03*
X002686Y004361D03*
X002685Y004361D03*
X002684Y004361D03*
X002684Y004361D03*
X002683Y004361D03*
X002681Y004361D03*
X002681Y004361D03*
X002680Y004361D03*
X002679Y004361D03*
X002679Y004361D03*
X002678Y004361D03*
X002676Y004361D03*
X002676Y004361D03*
X002675Y004361D03*
X002674Y004361D03*
X002674Y004361D03*
X002673Y004361D03*
X002671Y004361D03*
X002671Y004361D03*
X002670Y004361D03*
X002669Y004361D03*
X002669Y004361D03*
X002668Y004361D03*
X002666Y004361D03*
X002666Y004361D03*
X002665Y004361D03*
X002664Y004361D03*
X002664Y004361D03*
X002663Y004361D03*
X002661Y004361D03*
X002661Y004361D03*
X002660Y004361D03*
X002659Y004361D03*
X002659Y004361D03*
X002658Y004361D03*
X002656Y004361D03*
X002656Y004361D03*
X002655Y004361D03*
X002654Y004361D03*
X002654Y004361D03*
X002653Y004361D03*
X002651Y004361D03*
X002651Y004361D03*
X002650Y004361D03*
X002649Y004361D03*
X002649Y004361D03*
D80*
X002650Y004361D03*
X002651Y004361D03*
X002652Y004361D03*
X002653Y004361D03*
X002655Y004361D03*
X002656Y004361D03*
X002657Y004361D03*
X002658Y004361D03*
X002660Y004361D03*
X002661Y004361D03*
X002662Y004361D03*
X002663Y004361D03*
X002665Y004361D03*
X002666Y004361D03*
X002667Y004361D03*
X002668Y004361D03*
X002670Y004361D03*
X002671Y004361D03*
X002672Y004361D03*
X002673Y004361D03*
X002675Y004361D03*
X002676Y004361D03*
X002677Y004361D03*
X002678Y004361D03*
X002680Y004361D03*
X002681Y004361D03*
X002682Y004361D03*
X002683Y004361D03*
X002685Y004361D03*
X002686Y004361D03*
X002687Y004361D03*
X002688Y004361D03*
X002690Y004361D03*
X002691Y004361D03*
X002692Y004361D03*
X002693Y004361D03*
X002695Y004361D03*
X002696Y004361D03*
X002697Y004361D03*
X002698Y004361D03*
X002700Y004361D03*
X002701Y004361D03*
X002702Y004361D03*
X002703Y004361D03*
X002705Y004361D03*
X002706Y004361D03*
X002707Y004361D03*
X002708Y004361D03*
X002710Y004361D03*
X002711Y004361D03*
X002712Y004361D03*
X002713Y004361D03*
X002715Y004361D03*
X002716Y004361D03*
X002717Y004361D03*
X002718Y004361D03*
X002720Y004361D03*
X002721Y004361D03*
X002722Y004361D03*
X002723Y004361D03*
X002725Y004361D03*
X002726Y004361D03*
X002727Y004361D03*
X002728Y004361D03*
X002730Y004361D03*
X002731Y004361D03*
X002732Y004361D03*
X002733Y004361D03*
X002735Y004361D03*
X002736Y004361D03*
X002737Y004361D03*
X002738Y004361D03*
X002740Y004361D03*
X002741Y004361D03*
X002742Y004361D03*
X002743Y004361D03*
X002745Y004361D03*
X002746Y004361D03*
X002747Y004361D03*
X002748Y004361D03*
X002750Y004361D03*
X002751Y004361D03*
X002752Y004361D03*
X002753Y004361D03*
X002755Y004361D03*
X002756Y004361D03*
X002757Y004361D03*
X002758Y004361D03*
X002760Y004361D03*
X002761Y004361D03*
X002762Y004361D03*
X002763Y004361D03*
X002765Y004361D03*
X002766Y004361D03*
X002767Y004361D03*
X002768Y004361D03*
X002770Y004361D03*
X002771Y004361D03*
X002772Y004361D03*
X002773Y004361D03*
X002775Y004361D03*
X002776Y004361D03*
X002777Y004361D03*
X002778Y004361D03*
X002780Y004361D03*
X002781Y004361D03*
X002782Y004361D03*
X002783Y004361D03*
X002785Y004361D03*
X002786Y004361D03*
X002787Y004361D03*
X002788Y004361D03*
X002790Y004361D03*
X002791Y004361D03*
X002792Y004361D03*
X002793Y004361D03*
X002795Y004361D03*
X002796Y004361D03*
X002797Y004361D03*
X002798Y004361D03*
X002800Y004361D03*
X002801Y004361D03*
X002802Y004361D03*
X002803Y004361D03*
X002805Y004361D03*
X002806Y004361D03*
X002807Y004361D03*
X002808Y004361D03*
X002810Y004361D03*
X002811Y004361D03*
X002812Y004361D03*
X002813Y004361D03*
X002815Y004361D03*
X002816Y004361D03*
X002817Y004361D03*
X002818Y004361D03*
X002820Y004361D03*
X002821Y004361D03*
X002822Y004361D03*
X002823Y004361D03*
X002825Y004361D03*
X002826Y004361D03*
X002827Y004361D03*
X002828Y004361D03*
X002830Y004361D03*
X002831Y004361D03*
X002832Y004361D03*
X002833Y004361D03*
X002835Y004361D03*
X002836Y004361D03*
X002837Y004361D03*
X002838Y004361D03*
X002840Y004361D03*
X002841Y004361D03*
X002842Y004361D03*
X002843Y004361D03*
X002845Y004361D03*
X002846Y004361D03*
X002847Y004361D03*
X002848Y004361D03*
X002850Y004361D03*
X002851Y004361D03*
X002852Y004361D03*
X002648Y004361D03*
D81*
X002647Y003744D03*
X002648Y003744D03*
X002650Y003744D03*
X002651Y003744D03*
X002652Y003744D03*
X002653Y003744D03*
X002655Y003744D03*
X002656Y003744D03*
X002657Y003744D03*
X002658Y003744D03*
X002660Y003744D03*
X002661Y003744D03*
X002662Y003744D03*
X002663Y003744D03*
X002665Y003744D03*
X002666Y003744D03*
X002667Y003744D03*
X002668Y003744D03*
X002670Y003744D03*
X002671Y003744D03*
X002672Y003744D03*
X002673Y003744D03*
X002675Y003744D03*
X002676Y003744D03*
X002677Y003744D03*
X002678Y003744D03*
X002680Y003744D03*
X002681Y003744D03*
X002682Y003744D03*
X002683Y003744D03*
X002685Y003744D03*
X002686Y003744D03*
X002687Y003744D03*
X002688Y003744D03*
X002690Y003744D03*
X002691Y003744D03*
X002692Y003744D03*
X002693Y003744D03*
X002695Y003744D03*
X002696Y003744D03*
X002697Y003744D03*
X002698Y003744D03*
X002700Y003744D03*
X002701Y003744D03*
X002702Y003744D03*
X002703Y003744D03*
X002705Y003744D03*
X002706Y003744D03*
X002707Y003744D03*
X002708Y003744D03*
X002710Y003744D03*
X002711Y003744D03*
X002712Y003744D03*
X002713Y003744D03*
X002715Y003744D03*
X002716Y003744D03*
X002717Y003744D03*
X002718Y003744D03*
X002720Y003744D03*
X002721Y003744D03*
X002722Y003744D03*
X002723Y003744D03*
X002725Y003744D03*
X002726Y003744D03*
X002727Y003744D03*
X002728Y003744D03*
X002730Y003744D03*
X002731Y003744D03*
X002732Y003744D03*
X002733Y003744D03*
X002735Y003744D03*
X002736Y003744D03*
X002737Y003744D03*
X002738Y003744D03*
X002740Y003744D03*
X002741Y003744D03*
X002742Y003744D03*
X002743Y003744D03*
X002745Y003744D03*
X002746Y003744D03*
X002747Y003744D03*
X002748Y003744D03*
X002750Y003744D03*
X002751Y003744D03*
X002752Y003744D03*
X002753Y003744D03*
X002755Y003744D03*
X002756Y003744D03*
X002757Y003744D03*
X002758Y003744D03*
X002760Y003744D03*
X002761Y003744D03*
X002762Y003744D03*
X002763Y003744D03*
X002765Y003744D03*
X002766Y003744D03*
X002767Y003744D03*
X002768Y003744D03*
X002770Y003744D03*
X002771Y003744D03*
X002772Y003744D03*
X002773Y003744D03*
X002775Y003744D03*
X002776Y003744D03*
X002777Y003744D03*
X002778Y003744D03*
X002780Y003744D03*
X002781Y003744D03*
X002782Y003744D03*
X002783Y003744D03*
X002785Y003744D03*
X002786Y003744D03*
X002787Y003744D03*
X002788Y003744D03*
X002790Y003744D03*
X002791Y003744D03*
X002792Y003744D03*
X002793Y003744D03*
X002795Y003744D03*
X002796Y003744D03*
X002797Y003744D03*
X002798Y003744D03*
X002800Y003744D03*
X002801Y003744D03*
X002802Y003744D03*
X002803Y003744D03*
X002805Y003744D03*
X002806Y003744D03*
X002807Y003744D03*
X002808Y003744D03*
X002810Y003744D03*
X002811Y003744D03*
X002812Y003744D03*
X002813Y003744D03*
X002815Y003744D03*
X002816Y003744D03*
X002817Y003744D03*
X002818Y003744D03*
X002820Y003744D03*
X002821Y003744D03*
X002822Y003744D03*
X002823Y003744D03*
X002825Y003744D03*
X002826Y003744D03*
X002827Y003744D03*
X002828Y003744D03*
X002830Y003744D03*
X002831Y003744D03*
X002832Y003744D03*
X002833Y003744D03*
X002835Y003744D03*
X002836Y003744D03*
X002837Y003744D03*
X002838Y003744D03*
X002840Y003744D03*
X002841Y003744D03*
X002842Y003744D03*
X002843Y003744D03*
X002845Y003744D03*
X002846Y003744D03*
X002847Y003744D03*
X002848Y003744D03*
X002850Y003744D03*
X002851Y003744D03*
X002852Y003744D03*
X002646Y003744D03*
D82*
X002646Y003744D03*
X002646Y003744D03*
X002645Y003744D03*
X002648Y003744D03*
X002649Y003744D03*
X002649Y003744D03*
X002650Y003744D03*
X002651Y003744D03*
X002651Y003744D03*
X002653Y003744D03*
X002654Y003744D03*
X002654Y003744D03*
X002655Y003744D03*
X002656Y003744D03*
X002656Y003744D03*
X002658Y003744D03*
X002659Y003744D03*
X002659Y003744D03*
X002660Y003744D03*
X002661Y003744D03*
X002661Y003744D03*
X002663Y003744D03*
X002664Y003744D03*
X002664Y003744D03*
X002665Y003744D03*
X002666Y003744D03*
X002666Y003744D03*
X002668Y003744D03*
X002669Y003744D03*
X002669Y003744D03*
X002670Y003744D03*
X002671Y003744D03*
X002671Y003744D03*
X002673Y003744D03*
X002674Y003744D03*
X002674Y003744D03*
X002675Y003744D03*
X002676Y003744D03*
X002676Y003744D03*
X002678Y003744D03*
X002679Y003744D03*
X002679Y003744D03*
X002680Y003744D03*
X002681Y003744D03*
X002681Y003744D03*
X002683Y003744D03*
X002684Y003744D03*
X002684Y003744D03*
X002685Y003744D03*
X002686Y003744D03*
X002686Y003744D03*
X002688Y003744D03*
X002689Y003744D03*
X002689Y003744D03*
X002690Y003744D03*
X002691Y003744D03*
X002691Y003744D03*
X002693Y003744D03*
X002694Y003744D03*
X002694Y003744D03*
X002695Y003744D03*
X002696Y003744D03*
X002696Y003744D03*
X002698Y003744D03*
X002699Y003744D03*
X002699Y003744D03*
X002700Y003744D03*
X002701Y003744D03*
X002701Y003744D03*
X002703Y003744D03*
X002704Y003744D03*
X002704Y003744D03*
X002705Y003744D03*
X002706Y003744D03*
X002706Y003744D03*
X002708Y003744D03*
X002709Y003744D03*
X002709Y003744D03*
X002710Y003744D03*
X002711Y003744D03*
X002711Y003744D03*
X002713Y003744D03*
X002714Y003744D03*
X002714Y003744D03*
X002715Y003744D03*
X002716Y003744D03*
X002716Y003744D03*
X002718Y003744D03*
X002719Y003744D03*
X002719Y003744D03*
X002720Y003744D03*
X002721Y003744D03*
X002721Y003744D03*
X002723Y003744D03*
X002724Y003744D03*
X002724Y003744D03*
X002725Y003744D03*
X002726Y003744D03*
X002726Y003744D03*
X002728Y003744D03*
X002729Y003744D03*
X002729Y003744D03*
X002730Y003744D03*
X002731Y003744D03*
X002731Y003744D03*
X002733Y003744D03*
X002734Y003744D03*
X002734Y003744D03*
X002735Y003744D03*
X002736Y003744D03*
X002736Y003744D03*
X002738Y003744D03*
X002739Y003744D03*
X002739Y003744D03*
X002740Y003744D03*
X002741Y003744D03*
X002741Y003744D03*
X002743Y003744D03*
X002744Y003744D03*
X002744Y003744D03*
X002745Y003744D03*
X002746Y003744D03*
X002746Y003744D03*
X002748Y003744D03*
X002749Y003744D03*
X002749Y003744D03*
X002750Y003744D03*
X002751Y003744D03*
X002751Y003744D03*
X002753Y003744D03*
X002754Y003744D03*
X002754Y003744D03*
X002755Y003744D03*
X002756Y003744D03*
X002756Y003744D03*
X002758Y003744D03*
X002759Y003744D03*
X002759Y003744D03*
X002760Y003744D03*
X002761Y003744D03*
X002761Y003744D03*
X002763Y003744D03*
X002764Y003744D03*
X002764Y003744D03*
X002765Y003744D03*
X002766Y003744D03*
X002766Y003744D03*
X002768Y003744D03*
X002769Y003744D03*
X002769Y003744D03*
X002770Y003744D03*
X002771Y003744D03*
X002771Y003744D03*
X002773Y003744D03*
X002774Y003744D03*
X002774Y003744D03*
X002775Y003744D03*
X002776Y003744D03*
X002776Y003744D03*
X002778Y003744D03*
X002779Y003744D03*
X002779Y003744D03*
X002780Y003744D03*
X002781Y003744D03*
X002781Y003744D03*
X002783Y003744D03*
X002784Y003744D03*
X002784Y003744D03*
X002785Y003744D03*
X002786Y003744D03*
X002786Y003744D03*
X002788Y003744D03*
X002789Y003744D03*
X002789Y003744D03*
X002790Y003744D03*
X002791Y003744D03*
X002791Y003744D03*
X002793Y003744D03*
X002794Y003744D03*
X002794Y003744D03*
X002795Y003744D03*
X002796Y003744D03*
X002796Y003744D03*
X002798Y003744D03*
X002799Y003744D03*
X002799Y003744D03*
X002800Y003744D03*
X002801Y003744D03*
X002801Y003744D03*
X002803Y003744D03*
X002804Y003744D03*
X002804Y003744D03*
X002805Y003744D03*
X002806Y003744D03*
X002806Y003744D03*
X002808Y003744D03*
X002809Y003744D03*
X002809Y003744D03*
X002810Y003744D03*
X002811Y003744D03*
X002811Y003744D03*
X002813Y003744D03*
X002814Y003744D03*
X002814Y003744D03*
X002815Y003744D03*
X002816Y003744D03*
X002816Y003744D03*
X002818Y003744D03*
X002819Y003744D03*
X002819Y003744D03*
X002820Y003744D03*
X002821Y003744D03*
X002821Y003744D03*
X002823Y003744D03*
X002824Y003744D03*
X002824Y003744D03*
X002825Y003744D03*
X002826Y003744D03*
X002826Y003744D03*
X002828Y003744D03*
X002829Y003744D03*
X002829Y003744D03*
X002830Y003744D03*
X002831Y003744D03*
X002831Y003744D03*
X002833Y003744D03*
X002834Y003744D03*
X002834Y003744D03*
X002835Y003744D03*
X002836Y003744D03*
X002836Y003744D03*
X002838Y003744D03*
X002839Y003744D03*
X002839Y003744D03*
X002840Y003744D03*
X002841Y003744D03*
X002841Y003744D03*
X002843Y003744D03*
X002844Y003744D03*
X002844Y003744D03*
X002845Y003744D03*
X002846Y003744D03*
X002846Y003744D03*
X002848Y003744D03*
X002849Y003744D03*
X002849Y003744D03*
X002850Y003744D03*
X002851Y003744D03*
X002851Y003744D03*
D83*
X002642Y003744D03*
D84*
X002641Y004361D03*
D85*
X002640Y003744D03*
D86*
X002640Y004361D03*
D87*
X002639Y004361D03*
D88*
X002638Y004361D03*
D89*
X002636Y004361D03*
D90*
X002636Y003745D03*
D91*
X002635Y004361D03*
D92*
X002635Y004361D03*
D93*
X002635Y003744D03*
D94*
X002634Y004361D03*
D95*
X002634Y003745D03*
D96*
X002634Y004361D03*
D97*
X002633Y004361D03*
D98*
X002633Y003745D03*
D99*
X002633Y004361D03*
D100*
X002633Y003745D03*
D101*
X002632Y004361D03*
D102*
X002632Y003744D03*
D103*
X002631Y004361D03*
D104*
X002631Y003744D03*
D105*
X002631Y004361D03*
D106*
X002631Y003744D03*
D107*
X002631Y004361D03*
D108*
X002631Y003745D03*
D109*
X002630Y004361D03*
D110*
X002630Y003745D03*
D111*
X002630Y004361D03*
D112*
X002630Y003745D03*
D113*
X002629Y004361D03*
D114*
X002629Y003745D03*
D115*
X002629Y004361D03*
D116*
X002628Y004361D03*
D117*
X002628Y003744D03*
D118*
X002628Y004361D03*
D119*
X002628Y003744D03*
D120*
X002627Y004361D03*
D121*
X002627Y003744D03*
D122*
X002626Y004361D03*
D123*
X002626Y003745D03*
D124*
X002626Y004361D03*
D125*
X002626Y004361D03*
D126*
X002626Y003745D03*
D127*
X002625Y004360D03*
D128*
X002625Y003745D03*
D129*
X002625Y004360D03*
X002623Y004360D03*
D130*
X002625Y003745D03*
D131*
X002624Y004360D03*
X002624Y004360D03*
D132*
X002624Y003745D03*
D133*
X002623Y003744D03*
D134*
X002623Y004360D03*
X002621Y004360D03*
D135*
X002623Y003745D03*
D136*
X002622Y004360D03*
D137*
X002622Y003745D03*
D138*
X002621Y003741D03*
X002621Y003741D03*
X002620Y003741D03*
D139*
X002620Y004361D03*
X002621Y004361D03*
D140*
X002621Y004361D03*
X002620Y004361D03*
D141*
X002621Y003741D03*
D142*
X002620Y003740D03*
X002618Y003740D03*
X002561Y004369D03*
D143*
X002619Y004361D03*
X002619Y004361D03*
D144*
X002561Y004369D03*
X002561Y004369D03*
X002560Y004369D03*
X002619Y003740D03*
X002619Y003740D03*
D145*
X002618Y004361D03*
D146*
X002618Y004361D03*
X002616Y004361D03*
D147*
X002616Y003740D03*
X002616Y003740D03*
X002618Y003740D03*
D148*
X002617Y004361D03*
D149*
X002617Y003740D03*
D150*
X002616Y004361D03*
X002615Y004361D03*
D151*
X002615Y004361D03*
X002616Y004361D03*
D152*
X002558Y004370D03*
X002557Y004370D03*
X002615Y003740D03*
X002616Y003740D03*
D153*
X002615Y003740D03*
X002614Y003740D03*
X002558Y004370D03*
D154*
X002614Y004362D03*
X002614Y004362D03*
D155*
X002556Y004370D03*
X002556Y004370D03*
X002555Y004370D03*
X002611Y003740D03*
X002613Y003740D03*
X002614Y003740D03*
D156*
X002613Y004362D03*
D157*
X002556Y004370D03*
X002612Y003740D03*
X002613Y003740D03*
D158*
X002613Y004362D03*
X002611Y004362D03*
X002611Y004362D03*
D159*
X002612Y004362D03*
D160*
X002611Y003739D03*
X002610Y003739D03*
D161*
X002610Y004362D03*
X002611Y004362D03*
D162*
X002611Y003739D03*
X002610Y003739D03*
D163*
X002610Y004362D03*
D164*
X002609Y004362D03*
X002609Y004362D03*
D165*
X002553Y004371D03*
X002551Y004371D03*
X002608Y003739D03*
X002609Y003739D03*
X002609Y003739D03*
D166*
X002608Y004362D03*
D167*
X002553Y004371D03*
X002552Y004371D03*
X002608Y003739D03*
D168*
X002608Y004363D03*
X002606Y004363D03*
X002606Y004363D03*
D169*
X002607Y004363D03*
D170*
X002607Y003739D03*
X002606Y003739D03*
D171*
X002606Y003739D03*
X002606Y003739D03*
D172*
X002606Y004363D03*
X002605Y004363D03*
D173*
X002605Y004363D03*
D174*
X002549Y004371D03*
X002549Y004371D03*
X002604Y003739D03*
X002604Y003739D03*
X002605Y003739D03*
D175*
X002605Y003739D03*
X002550Y004371D03*
D176*
X002603Y004363D03*
X002604Y004363D03*
X002604Y004363D03*
D177*
X002603Y004363D03*
D178*
X002548Y004371D03*
X002547Y004371D03*
X002602Y003738D03*
X002603Y003738D03*
D179*
X002603Y003738D03*
X002601Y003738D03*
X002548Y004371D03*
X002546Y004371D03*
D180*
X002602Y004363D03*
D181*
X002601Y004363D03*
X002601Y004363D03*
D182*
X002600Y003738D03*
X002599Y003738D03*
X002601Y003738D03*
D183*
X002601Y004364D03*
X002600Y004364D03*
D184*
X002600Y003738D03*
X002601Y003738D03*
D185*
X002600Y004364D03*
D186*
X002599Y004364D03*
X002599Y004364D03*
X002598Y004364D03*
D187*
X002544Y004372D03*
X002544Y004372D03*
X002598Y003738D03*
X002599Y003738D03*
D188*
X002598Y004364D03*
D189*
X002545Y004372D03*
X002543Y004372D03*
X002597Y003738D03*
X002598Y003738D03*
D190*
X002597Y004364D03*
D191*
X002596Y004364D03*
X002596Y004364D03*
D192*
X002595Y003738D03*
X002596Y003738D03*
X002596Y003738D03*
D193*
X002596Y004364D03*
X002595Y004364D03*
D194*
X002596Y003738D03*
D195*
X002595Y004364D03*
X002594Y004364D03*
D196*
X002541Y004372D03*
X002593Y003737D03*
X002595Y003737D03*
D197*
X002594Y003737D03*
X002594Y003737D03*
X002541Y004372D03*
X002540Y004372D03*
D198*
X002593Y004365D03*
X002594Y004365D03*
D199*
X002593Y004365D03*
D200*
X002539Y004373D03*
X002539Y004373D03*
X002591Y003737D03*
X002591Y003737D03*
X002593Y003737D03*
D201*
X002592Y004365D03*
D202*
X002540Y004373D03*
X002538Y004373D03*
X002592Y003737D03*
D203*
X002591Y004365D03*
X002591Y004365D03*
D204*
X002591Y004365D03*
X002590Y004365D03*
D205*
X002590Y003737D03*
X002591Y003737D03*
D206*
X002590Y004365D03*
X002589Y004365D03*
D207*
X002589Y003737D03*
X002590Y003737D03*
D208*
X002589Y004365D03*
X002588Y004365D03*
D209*
X002536Y004373D03*
X002535Y004373D03*
X002586Y003737D03*
X002588Y003737D03*
X002589Y003737D03*
D210*
X002588Y004365D03*
D211*
X002536Y004373D03*
X002535Y004373D03*
X002587Y003737D03*
X002588Y003737D03*
D212*
X002587Y004366D03*
X002586Y004366D03*
D213*
X002586Y004366D03*
X002586Y004366D03*
D214*
X002585Y003736D03*
X002586Y003736D03*
D215*
X002586Y003736D03*
X002585Y003736D03*
D216*
X002584Y004366D03*
X002585Y004366D03*
D217*
X002585Y004366D03*
D218*
X002533Y004374D03*
X002531Y004374D03*
X002583Y003736D03*
X002584Y003736D03*
X002584Y003736D03*
D219*
X002584Y004366D03*
X002583Y004366D03*
D220*
X002583Y004366D03*
D221*
X002532Y004374D03*
X002583Y003736D03*
D222*
X002582Y004366D03*
X002581Y004366D03*
D223*
X002531Y004374D03*
X002530Y004374D03*
X002581Y003736D03*
X002582Y003736D03*
D224*
X002581Y004366D03*
X002581Y004366D03*
D225*
X002531Y004374D03*
X002530Y004374D03*
X002581Y003736D03*
X002581Y003736D03*
D226*
X002580Y004367D03*
X002579Y004367D03*
D227*
X002579Y003736D03*
X002579Y003736D03*
X002580Y003736D03*
D228*
X002580Y004367D03*
D229*
X002580Y003736D03*
D230*
X002579Y004367D03*
X002578Y004367D03*
D231*
X002578Y004367D03*
X002577Y004367D03*
D232*
X002527Y004374D03*
X002577Y003735D03*
X002578Y003735D03*
D233*
X002578Y003735D03*
X002576Y003735D03*
X002528Y004374D03*
X002526Y004374D03*
X002526Y004374D03*
D234*
X002576Y004367D03*
X002576Y004367D03*
D235*
X002575Y003735D03*
X002574Y003735D03*
X002576Y003735D03*
D236*
X002576Y004367D03*
D237*
X002576Y003735D03*
X002575Y003735D03*
D238*
X002574Y004367D03*
X002575Y004367D03*
D239*
X002575Y004367D03*
D240*
X002574Y004368D03*
X002573Y004368D03*
D241*
X002524Y004375D03*
X002524Y004375D03*
X002573Y003735D03*
X002574Y003735D03*
D242*
X002573Y004368D03*
X002572Y004368D03*
D243*
X002523Y004375D03*
X002572Y003735D03*
X002573Y003735D03*
D244*
X002571Y004368D03*
X002571Y004368D03*
D245*
X002523Y004375D03*
X002521Y004375D03*
X002521Y004375D03*
X002570Y003735D03*
X002571Y003735D03*
X002571Y003735D03*
D246*
X002571Y004368D03*
D247*
X002522Y004375D03*
X002571Y003735D03*
D248*
X002570Y004368D03*
X002569Y004368D03*
X002569Y004368D03*
D249*
X002570Y004368D03*
D250*
X002570Y003734D03*
X002568Y003734D03*
D251*
X002569Y003734D03*
X002569Y003734D03*
D252*
X002568Y004368D03*
X002567Y004368D03*
D253*
X002568Y004368D03*
D254*
X002519Y004376D03*
X002519Y004376D03*
X002518Y004376D03*
X002566Y003734D03*
X002566Y003734D03*
X002568Y003734D03*
D255*
X002567Y003734D03*
X002518Y004376D03*
D256*
X002566Y004369D03*
X002566Y004369D03*
D257*
X002566Y004369D03*
D258*
X002566Y003734D03*
X002565Y003734D03*
D259*
X002564Y004369D03*
X002564Y004369D03*
X002565Y004369D03*
D260*
X002564Y003734D03*
X002565Y003734D03*
D261*
X002565Y004369D03*
D262*
X002515Y004376D03*
X002514Y004376D03*
X002561Y003734D03*
X002563Y003734D03*
X002564Y003734D03*
D263*
X002563Y004369D03*
X002562Y004369D03*
D264*
X002516Y004376D03*
X002515Y004376D03*
X002562Y003734D03*
X002563Y003734D03*
D265*
X002563Y004369D03*
D266*
X002514Y004376D03*
X002513Y004376D03*
X002560Y003733D03*
X002561Y003733D03*
D267*
X002561Y003733D03*
X002560Y003733D03*
X002513Y004376D03*
D268*
X002560Y004370D03*
D269*
X002559Y004370D03*
X002559Y004370D03*
D270*
X002559Y003733D03*
X002559Y003733D03*
X002558Y003733D03*
D271*
X002558Y003733D03*
D272*
X002557Y003733D03*
X002556Y003733D03*
X002511Y004377D03*
X002510Y004377D03*
D273*
X002510Y004377D03*
X002509Y004377D03*
X002556Y003733D03*
X002556Y003733D03*
D274*
X002555Y003733D03*
X002554Y003733D03*
X002554Y003733D03*
D275*
X002555Y004370D03*
D276*
X002555Y003733D03*
D277*
X002554Y004370D03*
X002554Y004370D03*
D278*
X002507Y004377D03*
X002506Y004377D03*
X002552Y003732D03*
X002553Y003732D03*
D279*
X002553Y003732D03*
X002551Y003732D03*
X002506Y004377D03*
X002506Y004377D03*
D280*
X002550Y004371D03*
X002551Y004371D03*
D281*
X002505Y004378D03*
X002504Y004378D03*
X002549Y003732D03*
X002550Y003732D03*
X002551Y003732D03*
D282*
X002551Y004371D03*
D283*
X002505Y004378D03*
X002550Y003732D03*
X002551Y003732D03*
D284*
X002549Y003732D03*
X002548Y003732D03*
D285*
X002548Y003732D03*
X002547Y003732D03*
D286*
X002546Y003732D03*
X002546Y003732D03*
X002545Y003732D03*
X002501Y004378D03*
X002501Y004378D03*
D287*
X002545Y004372D03*
X002546Y004372D03*
D288*
X002546Y004372D03*
D289*
X002502Y004378D03*
X002501Y004378D03*
X002546Y003732D03*
D290*
X002545Y003731D03*
X002543Y003731D03*
D291*
X002544Y003731D03*
X002544Y003731D03*
D292*
X002543Y004372D03*
X002541Y004372D03*
D293*
X002499Y004379D03*
X002498Y004379D03*
X002541Y003731D03*
X002541Y003731D03*
X002543Y003731D03*
D294*
X002542Y004372D03*
D295*
X002498Y004379D03*
X002497Y004379D03*
X002542Y003731D03*
D296*
X002541Y003731D03*
X002540Y003731D03*
X002496Y004379D03*
D297*
X002496Y004379D03*
X002496Y004379D03*
X002539Y003731D03*
X002540Y003731D03*
D298*
X002539Y003731D03*
X002538Y003731D03*
X002536Y003731D03*
D299*
X002537Y003731D03*
X002538Y003731D03*
D300*
X002538Y004373D03*
X002536Y004373D03*
D301*
X002537Y004373D03*
D302*
X002494Y004379D03*
X002493Y004379D03*
X002535Y003730D03*
X002536Y003730D03*
D303*
X002536Y003730D03*
X002535Y003730D03*
X002493Y004379D03*
X002492Y004379D03*
D304*
X002534Y004373D03*
X002534Y004373D03*
D305*
X002534Y003730D03*
X002534Y003730D03*
X002533Y003730D03*
D306*
X002533Y004373D03*
D307*
X002533Y003730D03*
D308*
X002532Y003730D03*
X002531Y003730D03*
X002490Y004380D03*
D309*
X002490Y004380D03*
X002489Y004380D03*
X002489Y004380D03*
X002531Y003730D03*
X002531Y003730D03*
D310*
X002530Y003730D03*
X002529Y003730D03*
X002529Y003730D03*
X002488Y004380D03*
D311*
X002488Y004380D03*
X002487Y004380D03*
X002530Y003730D03*
D312*
X002529Y004374D03*
X002529Y004374D03*
D313*
X002528Y004374D03*
D314*
X002527Y003729D03*
X002528Y003729D03*
D315*
X002528Y003729D03*
X002526Y003729D03*
D316*
X002526Y003729D03*
X002525Y003729D03*
X002524Y003729D03*
X002485Y004381D03*
X002484Y004381D03*
X002484Y004381D03*
D317*
X002525Y004375D03*
X002526Y004375D03*
D318*
X002485Y004381D03*
X002525Y003729D03*
X002526Y003729D03*
D319*
X002525Y004375D03*
D320*
X002524Y003729D03*
X002523Y003729D03*
D321*
X002523Y003729D03*
X002522Y003729D03*
D322*
X002521Y003729D03*
X002521Y003729D03*
X002520Y003729D03*
X002481Y004381D03*
X002481Y004381D03*
X002480Y004381D03*
D323*
X002520Y004375D03*
X002521Y004375D03*
D324*
X002481Y004381D03*
X002521Y003729D03*
D325*
X002520Y004375D03*
D326*
X002480Y004381D03*
X002518Y003728D03*
X002520Y003728D03*
D327*
X002519Y003728D03*
X002519Y003728D03*
X002479Y004381D03*
X002479Y004381D03*
D328*
X002516Y003728D03*
X002516Y003728D03*
X002518Y003728D03*
D329*
X002517Y004376D03*
D330*
X002517Y003728D03*
D331*
X002516Y004376D03*
X002516Y004376D03*
D332*
X002476Y004382D03*
X002515Y003728D03*
X002516Y003728D03*
D333*
X002515Y003728D03*
X002514Y003728D03*
X002476Y004382D03*
X002476Y004382D03*
X002475Y004382D03*
D334*
X002511Y003728D03*
X002513Y003728D03*
X002514Y003728D03*
D335*
X002513Y003728D03*
X002512Y003728D03*
D336*
X002512Y004377D03*
D337*
X002511Y004377D03*
X002511Y004377D03*
D338*
X002473Y004382D03*
X002471Y004382D03*
X002510Y003727D03*
X002511Y003727D03*
D339*
X002511Y003727D03*
X002510Y003727D03*
X002473Y004382D03*
X002472Y004382D03*
D340*
X002471Y004383D03*
X002470Y004383D03*
X002508Y003727D03*
X002509Y003727D03*
X002509Y003727D03*
D341*
X002509Y004377D03*
X002508Y004377D03*
D342*
X002508Y004377D03*
D343*
X002471Y004383D03*
X002508Y003727D03*
D344*
X002507Y003727D03*
X002506Y003727D03*
D345*
X002506Y003727D03*
X002506Y003727D03*
D346*
X002505Y003727D03*
X002504Y003727D03*
X002504Y003727D03*
X002468Y004383D03*
X002466Y004383D03*
D347*
X002467Y004383D03*
X002468Y004383D03*
X002505Y003727D03*
D348*
X002504Y004378D03*
X002503Y004378D03*
D349*
X002503Y004378D03*
D350*
X002502Y003726D03*
X002503Y003726D03*
D351*
X002503Y003726D03*
X002501Y003726D03*
D352*
X002501Y003726D03*
X002500Y003726D03*
X002499Y003726D03*
X002464Y004384D03*
X002464Y004384D03*
D353*
X002465Y004384D03*
X002463Y004384D03*
X002500Y003726D03*
X002501Y003726D03*
D354*
X002500Y004378D03*
X002499Y004378D03*
D355*
X002500Y004378D03*
D356*
X002463Y004384D03*
X002461Y004384D03*
X002498Y003726D03*
X002499Y003726D03*
D357*
X002498Y003726D03*
X002497Y003726D03*
X002462Y004384D03*
D358*
X002495Y003726D03*
X002496Y003726D03*
X002496Y003726D03*
D359*
X002496Y003726D03*
D360*
X002495Y004379D03*
X002494Y004379D03*
D361*
X002495Y004379D03*
D362*
X002460Y004384D03*
X002458Y004384D03*
X002493Y003725D03*
X002495Y003725D03*
D363*
X002494Y003725D03*
X002494Y003725D03*
X002459Y004384D03*
X002459Y004384D03*
D364*
X002491Y003725D03*
X002491Y003725D03*
X002493Y003725D03*
D365*
X002492Y003725D03*
D366*
X002491Y004380D03*
X002491Y004380D03*
D367*
X002491Y004380D03*
D368*
X002456Y004385D03*
X002455Y004385D03*
X002490Y003725D03*
X002491Y003725D03*
D369*
X002490Y003725D03*
X002489Y003725D03*
X002456Y004385D03*
X002455Y004385D03*
D370*
X002454Y004385D03*
X002454Y004385D03*
X002486Y003725D03*
X002488Y003725D03*
X002489Y003725D03*
D371*
X002488Y003725D03*
X002487Y003725D03*
X002453Y004385D03*
D372*
X002486Y004380D03*
X002486Y004380D03*
D373*
X002485Y003724D03*
X002486Y003724D03*
D374*
X002486Y004380D03*
D375*
X002486Y003724D03*
X002485Y003724D03*
D376*
X002484Y003724D03*
X002484Y003724D03*
X002483Y003724D03*
X002451Y004386D03*
X002450Y004386D03*
D377*
X002482Y004381D03*
X002483Y004381D03*
D378*
X002451Y004386D03*
X002450Y004386D03*
X002483Y003724D03*
D379*
X002483Y004381D03*
D380*
X002482Y003724D03*
X002481Y003724D03*
D381*
X002481Y003724D03*
X002481Y003724D03*
D382*
X002480Y003724D03*
X002479Y003724D03*
X002479Y003724D03*
X002448Y004386D03*
X002446Y004386D03*
X002446Y004386D03*
D383*
X002447Y004386D03*
X002480Y003724D03*
D384*
X002478Y004382D03*
X002477Y004382D03*
D385*
X002446Y004386D03*
X002445Y004386D03*
X002477Y003723D03*
X002478Y003723D03*
D386*
X002478Y004382D03*
D387*
X002445Y004386D03*
X002476Y003723D03*
X002478Y003723D03*
D388*
X002476Y003723D03*
X002475Y003723D03*
X002474Y003723D03*
D389*
X002475Y003723D03*
X002476Y003723D03*
D390*
X002475Y004382D03*
D391*
X002474Y004382D03*
X002474Y004382D03*
D392*
X002443Y004387D03*
X002441Y004387D03*
X002441Y004387D03*
X002473Y003723D03*
X002474Y003723D03*
D393*
X002473Y003723D03*
X002472Y003723D03*
X002442Y004387D03*
D394*
X002470Y003723D03*
X002471Y003723D03*
X002471Y003723D03*
D395*
X002471Y003723D03*
D396*
X002470Y004383D03*
D397*
X002438Y004387D03*
X002468Y003722D03*
X002470Y003722D03*
D398*
X002469Y004383D03*
X002469Y004383D03*
D399*
X002439Y004387D03*
X002439Y004387D03*
X002438Y004387D03*
X002469Y003722D03*
X002469Y003722D03*
D400*
X002468Y003722D03*
X002466Y003722D03*
X002466Y003722D03*
X002436Y004388D03*
X002436Y004388D03*
D401*
X002437Y004388D03*
X002467Y003722D03*
D402*
X002466Y004383D03*
X002465Y004383D03*
D403*
X002466Y004383D03*
D404*
X002466Y003722D03*
X002465Y003722D03*
D405*
X002465Y003722D03*
X002464Y003722D03*
D406*
X002464Y003722D03*
X002463Y003722D03*
X002461Y003722D03*
X002434Y004388D03*
X002434Y004388D03*
X002433Y004388D03*
D407*
X002433Y004388D03*
X002462Y003722D03*
X002463Y003722D03*
D408*
X002461Y004384D03*
X002460Y004384D03*
D409*
X002460Y003721D03*
X002461Y003721D03*
D410*
X002461Y004384D03*
D411*
X002461Y003721D03*
X002460Y003721D03*
D412*
X002459Y003721D03*
X002459Y003721D03*
X002458Y003721D03*
X002430Y004389D03*
X002429Y004389D03*
D413*
X002430Y004389D03*
X002431Y004389D03*
X002458Y003721D03*
D414*
X002458Y004385D03*
X002456Y004385D03*
D415*
X002457Y004385D03*
D416*
X002428Y004389D03*
X002456Y003721D03*
X002457Y003721D03*
D417*
X002456Y003721D03*
X002456Y003721D03*
X002429Y004389D03*
X002428Y004389D03*
D418*
X002454Y003721D03*
X002454Y003721D03*
X002455Y003721D03*
D419*
X002455Y003721D03*
D420*
X002453Y003720D03*
X002452Y003720D03*
X002426Y004389D03*
X002425Y004389D03*
D421*
X002451Y004385D03*
X002453Y004385D03*
D422*
X002425Y004389D03*
X002424Y004389D03*
X002451Y003720D03*
X002453Y003720D03*
D423*
X002452Y004385D03*
D424*
X002451Y003720D03*
X002450Y003720D03*
X002449Y003720D03*
D425*
X002450Y003720D03*
X002451Y003720D03*
D426*
X002449Y004386D03*
X002449Y004386D03*
D427*
X002421Y004390D03*
X002421Y004390D03*
X002448Y003720D03*
X002449Y003720D03*
D428*
X002448Y004386D03*
D429*
X002422Y004390D03*
X002421Y004390D03*
X002447Y003720D03*
X002448Y003720D03*
D430*
X002446Y003720D03*
X002446Y003720D03*
X002445Y003720D03*
X002420Y004390D03*
X002419Y004390D03*
D431*
X002420Y004390D03*
X002446Y003720D03*
D432*
X002445Y003719D03*
X002443Y003719D03*
D433*
X002444Y004387D03*
X002444Y004387D03*
D434*
X002444Y003719D03*
X002444Y003719D03*
D435*
X002443Y004387D03*
D436*
X002416Y004391D03*
X002416Y004391D03*
X002441Y003719D03*
X002441Y003719D03*
X002443Y003719D03*
D437*
X002442Y003719D03*
X002417Y004391D03*
X002416Y004391D03*
D438*
X002440Y004387D03*
X002441Y004387D03*
D439*
X002441Y003719D03*
X002440Y003719D03*
D440*
X002440Y004387D03*
D441*
X002439Y003719D03*
X002440Y003719D03*
D442*
X002439Y003719D03*
X002438Y003719D03*
X002436Y003719D03*
X002414Y004391D03*
X002413Y004391D03*
D443*
X002413Y004391D03*
X002412Y004391D03*
X002437Y003719D03*
X002438Y003719D03*
D444*
X002436Y003718D03*
X002435Y003718D03*
X002411Y004391D03*
X002411Y004391D03*
D445*
X002435Y004388D03*
X002436Y004388D03*
D446*
X002411Y004391D03*
X002435Y003718D03*
X002436Y003718D03*
D447*
X002435Y004388D03*
D448*
X002434Y003718D03*
X002434Y003718D03*
X002433Y003718D03*
D449*
X002433Y003718D03*
D450*
X002432Y004388D03*
D451*
X002408Y004392D03*
X002407Y004392D03*
X002431Y003718D03*
X002432Y003718D03*
D452*
X002431Y004388D03*
X002431Y004388D03*
D453*
X002409Y004392D03*
X002408Y004392D03*
X002431Y003718D03*
X002431Y003718D03*
D454*
X002430Y003718D03*
X002429Y003718D03*
X002429Y003718D03*
D455*
X002430Y003718D03*
D456*
X002428Y003717D03*
X002427Y003717D03*
X002405Y004392D03*
D457*
X002405Y004392D03*
X002404Y004392D03*
X002404Y004392D03*
X002426Y003717D03*
X002428Y003717D03*
D458*
X002427Y004389D03*
D459*
X002426Y004389D03*
X002426Y004389D03*
D460*
X002403Y004393D03*
X002424Y003717D03*
X002425Y003717D03*
X002426Y003717D03*
D461*
X002426Y003717D03*
X002425Y003717D03*
X002403Y004393D03*
X002402Y004393D03*
D462*
X002423Y004390D03*
X002424Y004390D03*
D463*
X002424Y003717D03*
X002423Y003717D03*
D464*
X002423Y004390D03*
D465*
X002422Y003717D03*
X002423Y003717D03*
D466*
X002421Y003717D03*
X002421Y003717D03*
X002420Y003717D03*
X002400Y004393D03*
X002399Y004393D03*
X002399Y004393D03*
D467*
X002400Y004393D03*
X002421Y003717D03*
D468*
X002420Y003716D03*
X002418Y003716D03*
D469*
X002419Y003716D03*
X002419Y003716D03*
D470*
X002419Y004390D03*
X002418Y004390D03*
D471*
X002418Y004390D03*
D472*
X002396Y004394D03*
X002396Y004394D03*
X002395Y004394D03*
X002416Y003716D03*
X002416Y003716D03*
X002418Y003716D03*
D473*
X002417Y003716D03*
X002396Y004394D03*
D474*
X002395Y004394D03*
X002415Y003716D03*
X002416Y003716D03*
D475*
X002415Y004391D03*
X002414Y004391D03*
D476*
X002394Y004394D03*
X002394Y004394D03*
X002414Y003716D03*
X002415Y003716D03*
D477*
X002415Y004391D03*
D478*
X002414Y003716D03*
X002413Y003716D03*
X002411Y003716D03*
D479*
X002412Y003716D03*
X002413Y003716D03*
D480*
X002411Y003715D03*
X002410Y003715D03*
X002391Y004394D03*
X002391Y004394D03*
X002390Y004394D03*
D481*
X002391Y004394D03*
X002410Y003715D03*
X002411Y003715D03*
D482*
X002410Y004392D03*
X002409Y004392D03*
D483*
X002410Y004392D03*
D484*
X002409Y003715D03*
X002409Y003715D03*
X002408Y003715D03*
D485*
X002408Y003715D03*
D486*
X002407Y003715D03*
X002406Y003715D03*
X002388Y004395D03*
X002387Y004395D03*
D487*
X002406Y004392D03*
X002406Y004392D03*
D488*
X002388Y004395D03*
X002386Y004395D03*
X002406Y003715D03*
X002406Y003715D03*
D489*
X002406Y004392D03*
D490*
X002386Y004395D03*
X002385Y004395D03*
X002404Y003715D03*
X002404Y003715D03*
X002405Y003715D03*
D491*
X002405Y003715D03*
X002386Y004395D03*
D492*
X002402Y003714D03*
X002403Y003714D03*
D493*
X002403Y003714D03*
X002401Y003714D03*
D494*
X002401Y004393D03*
X002401Y004393D03*
D495*
X002383Y004396D03*
X002381Y004396D03*
X002399Y003714D03*
X002400Y003714D03*
X002401Y003714D03*
D496*
X002401Y004393D03*
D497*
X002383Y004396D03*
X002382Y004396D03*
X002400Y003714D03*
X002401Y003714D03*
D498*
X002399Y003714D03*
X002398Y003714D03*
D499*
X002397Y004393D03*
X002398Y004393D03*
D500*
X002397Y003714D03*
X002398Y003714D03*
D501*
X002398Y004393D03*
D502*
X002379Y004396D03*
X002379Y004396D03*
X002395Y003714D03*
X002396Y003714D03*
X002396Y003714D03*
D503*
X002396Y003714D03*
X002380Y004396D03*
X002378Y004396D03*
D504*
X002377Y004396D03*
X002393Y003713D03*
X002395Y003713D03*
D505*
X002394Y003713D03*
X002394Y003713D03*
X002378Y004396D03*
X002376Y004396D03*
D506*
X002392Y004394D03*
X002393Y004394D03*
D507*
X002393Y004394D03*
D508*
X002393Y003713D03*
X002391Y003713D03*
X002391Y003713D03*
D509*
X002392Y003713D03*
D510*
X002391Y003713D03*
X002390Y003713D03*
X002375Y004397D03*
X002373Y004397D03*
D511*
X002374Y004397D03*
X002374Y004397D03*
X002389Y003713D03*
X002390Y003713D03*
D512*
X002390Y004395D03*
D513*
X002389Y004395D03*
X002389Y004395D03*
D514*
X002389Y003713D03*
X002388Y003713D03*
X002386Y003713D03*
D515*
X002387Y003713D03*
X002388Y003713D03*
D516*
X002386Y003712D03*
X002385Y003712D03*
X002371Y004397D03*
X002370Y004397D03*
D517*
X002370Y004397D03*
X002371Y004397D03*
X002385Y003712D03*
X002386Y003712D03*
D518*
X002385Y004395D03*
D519*
X002384Y004395D03*
X002384Y004395D03*
D520*
X002369Y004398D03*
X002369Y004398D03*
X002383Y003712D03*
X002384Y003712D03*
X002384Y003712D03*
D521*
X002383Y003712D03*
X002368Y004398D03*
D522*
X002381Y003712D03*
X002382Y003712D03*
D523*
X002381Y003712D03*
X002381Y003712D03*
D524*
X002380Y004396D03*
X002381Y004396D03*
D525*
X002381Y004396D03*
D526*
X002366Y004398D03*
X002365Y004398D03*
X002379Y003712D03*
X002379Y003712D03*
X002380Y003712D03*
D527*
X002380Y003712D03*
X002366Y004398D03*
X002365Y004398D03*
D528*
X002377Y003711D03*
X002378Y003711D03*
D529*
X002378Y003711D03*
X002376Y003711D03*
D530*
X002375Y004397D03*
X002376Y004397D03*
D531*
X002363Y004399D03*
X002361Y004399D03*
X002361Y004399D03*
X002374Y003711D03*
X002375Y003711D03*
X002376Y003711D03*
D532*
X002376Y004397D03*
D533*
X002362Y004399D03*
X002375Y003711D03*
X002376Y003711D03*
D534*
X002374Y003711D03*
X002373Y003711D03*
X002360Y004399D03*
D535*
X002360Y004399D03*
X002361Y004399D03*
X002372Y003711D03*
X002373Y003711D03*
D536*
X002373Y004397D03*
X002371Y004397D03*
D537*
X002372Y004397D03*
D538*
X002371Y003711D03*
X002371Y003711D03*
X002370Y003711D03*
D539*
X002371Y003711D03*
D540*
X002370Y003710D03*
X002368Y003710D03*
X002357Y004399D03*
D541*
X002358Y004399D03*
X002356Y004399D03*
X002356Y004399D03*
X002369Y003710D03*
X002369Y003710D03*
D542*
X002368Y004398D03*
X002366Y004398D03*
D543*
X002366Y003710D03*
X002366Y003710D03*
X002368Y003710D03*
D544*
X002367Y004398D03*
D545*
X002367Y003710D03*
D546*
X002366Y003710D03*
X002365Y003710D03*
X002353Y004400D03*
D547*
X002353Y004400D03*
X002354Y004400D03*
X002354Y004400D03*
X002364Y003710D03*
X002365Y003710D03*
D548*
X002364Y004398D03*
X002364Y004398D03*
D549*
X002351Y004400D03*
X002351Y004400D03*
X002361Y003710D03*
X002363Y003710D03*
X002364Y003710D03*
D550*
X002363Y004398D03*
D551*
X002352Y004400D03*
X002362Y003710D03*
X002363Y003710D03*
D552*
X002361Y003709D03*
X002360Y003709D03*
D553*
X002360Y003709D03*
X002361Y003709D03*
D554*
X002359Y004399D03*
X002359Y004399D03*
D555*
X002349Y004401D03*
X002349Y004401D03*
X002348Y004401D03*
X002358Y003709D03*
X002359Y003709D03*
X002359Y003709D03*
D556*
X002358Y004399D03*
D557*
X002348Y004401D03*
X002358Y003709D03*
D558*
X002357Y003709D03*
X002356Y003709D03*
D559*
X002356Y003709D03*
X002356Y003709D03*
D560*
X002356Y004400D03*
X002355Y004400D03*
D561*
X002355Y004400D03*
D562*
X002345Y004401D03*
X002344Y004401D03*
X002354Y003709D03*
X002354Y003709D03*
X002355Y003709D03*
D563*
X002355Y003709D03*
X002346Y004401D03*
X002345Y004401D03*
D564*
X002343Y004401D03*
X002352Y003708D03*
X002353Y003708D03*
D565*
X002353Y003708D03*
X002351Y003708D03*
X002344Y004401D03*
X002343Y004401D03*
D566*
X002349Y003708D03*
X002350Y003708D03*
X002351Y003708D03*
D567*
X002351Y004400D03*
X002350Y004400D03*
D568*
X002350Y003708D03*
X002351Y003708D03*
D569*
X002350Y004400D03*
D570*
X002340Y004402D03*
X002339Y004402D03*
X002348Y003708D03*
X002349Y003708D03*
D571*
X002348Y003708D03*
X002347Y003708D03*
X002341Y004402D03*
X002340Y004402D03*
D572*
X002347Y004401D03*
D573*
X002346Y004401D03*
X002346Y004401D03*
D574*
X002345Y003708D03*
X002346Y003708D03*
X002346Y003708D03*
D575*
X002346Y003708D03*
D576*
X002345Y003707D03*
X002343Y003707D03*
X002337Y004402D03*
X002336Y004402D03*
D577*
X002336Y004402D03*
X002336Y004402D03*
X002344Y003707D03*
X002344Y003707D03*
D578*
X002343Y003707D03*
X002341Y003707D03*
X002341Y003707D03*
X002335Y004403D03*
X002334Y004403D03*
D579*
X002342Y004402D03*
D580*
X002335Y004403D03*
X002342Y003707D03*
D581*
X002341Y004402D03*
X002341Y004402D03*
D582*
X002341Y003707D03*
X002340Y003707D03*
D583*
X002340Y003707D03*
X002339Y003707D03*
D584*
X002339Y004402D03*
X002338Y004402D03*
D585*
X002331Y004403D03*
X002331Y004403D03*
X002336Y003707D03*
X002338Y003707D03*
X002339Y003707D03*
D586*
X002338Y004402D03*
D587*
X002332Y004403D03*
X002331Y004403D03*
X002337Y003707D03*
X002338Y003707D03*
D588*
X002336Y003706D03*
X002335Y003706D03*
D589*
X002335Y003706D03*
X002336Y003706D03*
D590*
X002334Y003706D03*
X002334Y003706D03*
X002333Y003706D03*
X002329Y004404D03*
X002328Y004404D03*
D591*
X002333Y004403D03*
X002334Y004403D03*
D592*
X002333Y004403D03*
D593*
X002328Y004404D03*
X002327Y004404D03*
X002333Y003706D03*
D594*
X002332Y003706D03*
X002331Y003706D03*
X002326Y004404D03*
D595*
X002326Y004404D03*
X002326Y004404D03*
X002331Y003706D03*
X002331Y003706D03*
D596*
X002330Y004403D03*
X002329Y004403D03*
D597*
X002329Y003706D03*
X002329Y003706D03*
X002330Y003706D03*
D598*
X002330Y004403D03*
D599*
X002330Y003706D03*
D600*
X002328Y003705D03*
X002327Y003705D03*
X002323Y004404D03*
X002322Y004404D03*
D601*
X002323Y004404D03*
X002324Y004404D03*
X002326Y003705D03*
X002328Y003705D03*
D602*
X002326Y003705D03*
X002325Y003705D03*
X002324Y003705D03*
D603*
X002325Y003705D03*
X002326Y003705D03*
D604*
X002325Y004404D03*
X002324Y004404D03*
D605*
X002325Y004404D03*
D606*
X002320Y004405D03*
X002319Y004405D03*
X002319Y004405D03*
X002323Y003705D03*
X002324Y003705D03*
D607*
X002323Y003705D03*
X002322Y003705D03*
X002320Y004405D03*
D608*
X002321Y004405D03*
X002321Y004405D03*
D609*
X002318Y004405D03*
X002320Y003705D03*
X002321Y003705D03*
X002321Y003705D03*
D610*
X002321Y004405D03*
D611*
X002318Y004405D03*
X002317Y004405D03*
X002321Y003705D03*
D612*
X002320Y003704D03*
X002318Y003704D03*
D613*
X002319Y003704D03*
X002319Y003704D03*
D614*
X002318Y003704D03*
X002316Y003704D03*
X002316Y003704D03*
X002315Y004406D03*
X002314Y004406D03*
X002314Y004406D03*
D615*
X002315Y004406D03*
X002317Y003704D03*
D616*
X002316Y004405D03*
X002316Y004405D03*
D617*
X002316Y004405D03*
D618*
X002316Y003704D03*
X002315Y003704D03*
D619*
X002315Y003704D03*
X002314Y003704D03*
D620*
X002314Y003704D03*
X002313Y003704D03*
X002311Y003704D03*
X002310Y004406D03*
X002311Y004406D03*
X002311Y004406D03*
D621*
X002312Y004406D03*
X002313Y004406D03*
D622*
X002311Y004406D03*
X002312Y003704D03*
X002313Y003704D03*
D623*
X002313Y004406D03*
D624*
X002309Y004406D03*
X002309Y004406D03*
X002310Y003703D03*
X002311Y003703D03*
D625*
X002311Y003703D03*
X002310Y003703D03*
X002310Y004406D03*
D626*
X002309Y003703D03*
X002309Y003703D03*
X002308Y003703D03*
D627*
X002307Y004407D03*
X002308Y004407D03*
D628*
X002308Y003703D03*
D629*
X002308Y004407D03*
D630*
X002306Y004407D03*
X002306Y003703D03*
X002307Y003703D03*
D631*
X002306Y003703D03*
X002306Y003703D03*
X002305Y004407D03*
X002306Y004407D03*
X002306Y004407D03*
D632*
X002305Y003703D03*
X002304Y003703D03*
X002304Y003703D03*
D633*
X002305Y004407D03*
D634*
X002305Y003703D03*
D635*
X002304Y004407D03*
X002304Y004407D03*
D636*
X002303Y004407D03*
X002302Y004407D03*
X002302Y003702D03*
X002303Y003702D03*
D637*
X002303Y003702D03*
X002301Y003702D03*
X002301Y004407D03*
X002303Y004407D03*
D638*
X002301Y004408D03*
X002300Y004408D03*
X002299Y003702D03*
X002300Y003702D03*
X002301Y003702D03*
D639*
X002301Y003702D03*
X002300Y003702D03*
X002301Y004408D03*
D640*
X002300Y004408D03*
D641*
X002299Y004408D03*
X002299Y004408D03*
D642*
X002299Y003702D03*
X002298Y003702D03*
D643*
X002296Y003702D03*
X002297Y004408D03*
X002298Y004408D03*
D644*
X002297Y003702D03*
X002298Y003702D03*
D645*
X002296Y003702D03*
X002296Y003702D03*
X002295Y003702D03*
X002296Y004408D03*
X002298Y004408D03*
D646*
X002296Y004408D03*
X002295Y004408D03*
D647*
X002296Y004408D03*
D648*
X002295Y004409D03*
X002293Y004409D03*
X002292Y003701D03*
D649*
X002293Y003701D03*
X002295Y003701D03*
D650*
X002293Y003701D03*
X002291Y003701D03*
X002291Y003701D03*
X002294Y004409D03*
X002294Y004409D03*
D651*
X002294Y003701D03*
X002294Y003701D03*
D652*
X002290Y003701D03*
X002289Y003701D03*
X002291Y004409D03*
X002293Y004409D03*
D653*
X002292Y004409D03*
X002291Y003701D03*
X002290Y003701D03*
D654*
X002290Y004409D03*
X002291Y004409D03*
D655*
X002291Y004409D03*
D656*
X002290Y004409D03*
X002288Y004409D03*
X002286Y003700D03*
X002285Y003700D03*
D657*
X002285Y003700D03*
X002286Y003700D03*
X002289Y004409D03*
X002289Y004409D03*
D658*
X002289Y003701D03*
X002288Y003701D03*
X002286Y003701D03*
D659*
X002287Y003701D03*
X002288Y003701D03*
D660*
X002288Y004410D03*
X002286Y004410D03*
D661*
X002287Y004410D03*
D662*
X002286Y004410D03*
X002285Y004410D03*
X002281Y003700D03*
X002281Y003700D03*
D663*
X002281Y003700D03*
X002282Y003700D03*
X002285Y004410D03*
X002286Y004410D03*
D664*
X002284Y004410D03*
X002284Y004410D03*
X002280Y003700D03*
X002279Y003700D03*
X002279Y003700D03*
D665*
X002283Y003700D03*
X002284Y003700D03*
X002284Y003700D03*
D666*
X002280Y003700D03*
X002283Y004410D03*
D667*
X002283Y003700D03*
D668*
X002283Y004410D03*
X002281Y004410D03*
D669*
X002282Y004410D03*
D670*
X002281Y004411D03*
X002280Y004411D03*
X002276Y003699D03*
X002275Y003699D03*
X002274Y003699D03*
D671*
X002275Y003699D03*
X002276Y003699D03*
X002280Y004411D03*
X002281Y004411D03*
D672*
X002279Y004411D03*
X002279Y004411D03*
D673*
X002278Y004411D03*
D674*
X002277Y003699D03*
X002278Y003699D03*
D675*
X002271Y003699D03*
X002271Y003699D03*
X002270Y003699D03*
X002276Y004411D03*
X002276Y004411D03*
X002278Y004411D03*
D676*
X002278Y003699D03*
X002276Y003699D03*
D677*
X002271Y003699D03*
X002277Y004411D03*
D678*
X002276Y004411D03*
X002275Y004411D03*
X002270Y003698D03*
X002268Y003698D03*
D679*
X002269Y003698D03*
X002269Y003698D03*
X002275Y004411D03*
D680*
X002274Y004412D03*
X002274Y004412D03*
D681*
X002274Y003699D03*
X002273Y003699D03*
D682*
X002273Y004412D03*
D683*
X002272Y003699D03*
X002273Y003699D03*
D684*
X002265Y003698D03*
X002264Y003698D03*
X002271Y004412D03*
X002271Y004412D03*
X002273Y004412D03*
D685*
X002272Y004412D03*
X002266Y003698D03*
X002265Y003698D03*
D686*
X002270Y004412D03*
X002271Y004412D03*
D687*
X002270Y004412D03*
D688*
X002269Y004412D03*
X002269Y004412D03*
X002268Y004412D03*
X002261Y003697D03*
X002260Y003697D03*
D689*
X002260Y003697D03*
X002261Y003697D03*
X002268Y004412D03*
D690*
X002268Y003698D03*
X002266Y003698D03*
X002266Y003698D03*
D691*
X002258Y003697D03*
X002267Y004413D03*
D692*
X002267Y003698D03*
D693*
X002259Y003697D03*
X002259Y003697D03*
X002258Y003697D03*
X002266Y004413D03*
X002266Y004413D03*
D694*
X002266Y004413D03*
X002265Y004413D03*
D695*
X002265Y004413D03*
D696*
X002264Y004413D03*
X002264Y004413D03*
X002263Y004413D03*
X002255Y003697D03*
X002254Y003697D03*
X002254Y003697D03*
D697*
X002261Y003698D03*
X002263Y003698D03*
X002264Y003698D03*
D698*
X002255Y003697D03*
X002263Y004413D03*
D699*
X002262Y003698D03*
X002263Y003698D03*
D700*
X002262Y004413D03*
D701*
X002261Y004413D03*
X002261Y004413D03*
D702*
X002261Y004414D03*
X002260Y004414D03*
X002251Y003696D03*
D703*
X002251Y003696D03*
X002259Y004414D03*
X002260Y004414D03*
D704*
X002259Y004414D03*
X002258Y004414D03*
D705*
X002258Y004414D03*
D706*
X002257Y004414D03*
X002256Y004414D03*
D707*
X002256Y003697D03*
X002257Y003697D03*
D708*
X002256Y004414D03*
X002256Y004414D03*
D709*
X002256Y003697D03*
X002256Y003697D03*
D710*
X002255Y004414D03*
X002254Y004414D03*
D711*
X002255Y004414D03*
D712*
X002254Y004415D03*
X002253Y004415D03*
D713*
X002253Y004415D03*
D714*
X002252Y003696D03*
X002253Y003696D03*
D715*
X002253Y003696D03*
X002251Y003696D03*
D716*
X002251Y004415D03*
X002252Y004415D03*
D717*
X002251Y004415D03*
X002251Y004415D03*
D718*
X002250Y004359D03*
X002249Y004359D03*
X002249Y004359D03*
X002248Y004359D03*
X002246Y004359D03*
X002246Y004359D03*
X002245Y004359D03*
X002244Y004359D03*
X002244Y004359D03*
X002243Y004359D03*
X002241Y004359D03*
X002241Y004359D03*
X002240Y004359D03*
X002239Y004359D03*
X002239Y004359D03*
X002238Y004359D03*
X002236Y004359D03*
X002236Y004359D03*
X002235Y004359D03*
X002234Y004359D03*
X002234Y004359D03*
X002233Y004359D03*
X002231Y004359D03*
X002231Y004359D03*
X002230Y004359D03*
X002229Y004359D03*
X002229Y004359D03*
X002228Y004359D03*
X002226Y004359D03*
X002226Y004359D03*
X002225Y004359D03*
D719*
X002225Y003751D03*
X002226Y003751D03*
X002226Y003751D03*
X002228Y003751D03*
X002229Y003751D03*
X002229Y003751D03*
X002230Y003751D03*
X002231Y003751D03*
X002231Y003751D03*
X002233Y003751D03*
X002234Y003751D03*
X002234Y003751D03*
X002235Y003751D03*
X002236Y003751D03*
X002236Y003751D03*
X002238Y003751D03*
X002239Y003751D03*
X002239Y003751D03*
X002240Y003751D03*
X002241Y003751D03*
X002241Y003751D03*
X002243Y003751D03*
X002244Y003751D03*
X002244Y003751D03*
X002245Y003751D03*
X002246Y003751D03*
X002246Y003751D03*
X002248Y003751D03*
X002249Y003751D03*
X002249Y003751D03*
X002250Y003751D03*
D720*
X002250Y004359D03*
X002248Y004359D03*
X002247Y004359D03*
X002246Y004359D03*
X002245Y004359D03*
X002243Y004359D03*
X002242Y004359D03*
X002241Y004359D03*
X002240Y004359D03*
X002238Y004359D03*
X002237Y004359D03*
X002236Y004359D03*
X002235Y004359D03*
X002233Y004359D03*
X002232Y004359D03*
X002231Y004359D03*
X002230Y004359D03*
X002228Y004359D03*
X002227Y004359D03*
X002226Y004359D03*
X002225Y004359D03*
D721*
X002225Y003751D03*
X002226Y003751D03*
X002227Y003751D03*
X002228Y003751D03*
X002230Y003751D03*
X002231Y003751D03*
X002232Y003751D03*
X002233Y003751D03*
X002235Y003751D03*
X002236Y003751D03*
X002237Y003751D03*
X002238Y003751D03*
X002240Y003751D03*
X002241Y003751D03*
X002242Y003751D03*
X002243Y003751D03*
X002245Y003751D03*
X002246Y003751D03*
X002247Y003751D03*
X002248Y003751D03*
X002250Y003751D03*
D722*
X002224Y004055D03*
X002224Y004055D03*
X002223Y004055D03*
X002221Y004055D03*
X002221Y004055D03*
X002220Y004055D03*
X002219Y004055D03*
X002219Y004055D03*
X002218Y004055D03*
X002216Y004055D03*
X002216Y004055D03*
X002215Y004055D03*
X002214Y004055D03*
X002214Y004055D03*
X002213Y004055D03*
X002211Y004055D03*
X002211Y004055D03*
X002210Y004055D03*
X002209Y004055D03*
X002209Y004055D03*
X002208Y004055D03*
X002206Y004055D03*
X002206Y004055D03*
X002205Y004055D03*
X002204Y004055D03*
X002075Y004055D03*
X002074Y004055D03*
X002074Y004055D03*
X002073Y004055D03*
X002071Y004055D03*
X002071Y004055D03*
X002070Y004055D03*
X002069Y004055D03*
X002069Y004055D03*
X002068Y004055D03*
X002066Y004055D03*
X002066Y004055D03*
X002065Y004055D03*
X002064Y004055D03*
X002064Y004055D03*
X002063Y004055D03*
X002061Y004055D03*
X002061Y004055D03*
X002060Y004055D03*
X002059Y004055D03*
X002059Y004055D03*
X002058Y004055D03*
X002056Y004055D03*
X002056Y004055D03*
X002055Y004055D03*
X002054Y004055D03*
X002054Y004055D03*
X002053Y004055D03*
X002051Y004055D03*
X002051Y004055D03*
X002050Y004055D03*
X002049Y004055D03*
X002049Y004055D03*
X002048Y004055D03*
X002046Y004055D03*
X002046Y004055D03*
X002045Y004055D03*
X002044Y004055D03*
X002044Y004055D03*
X002043Y004055D03*
X002041Y004055D03*
X002041Y004055D03*
X002040Y004055D03*
X002039Y004055D03*
D723*
X002040Y004055D03*
X002041Y004055D03*
X002042Y004055D03*
X002043Y004055D03*
X002045Y004055D03*
X002046Y004055D03*
X002047Y004055D03*
X002048Y004055D03*
X002050Y004055D03*
X002051Y004055D03*
X002052Y004055D03*
X002053Y004055D03*
X002055Y004055D03*
X002056Y004055D03*
X002057Y004055D03*
X002058Y004055D03*
X002060Y004055D03*
X002061Y004055D03*
X002062Y004055D03*
X002063Y004055D03*
X002065Y004055D03*
X002066Y004055D03*
X002067Y004055D03*
X002068Y004055D03*
X002070Y004055D03*
X002071Y004055D03*
X002072Y004055D03*
X002073Y004055D03*
X002075Y004055D03*
X002205Y004055D03*
X002206Y004055D03*
X002207Y004055D03*
X002208Y004055D03*
X002210Y004055D03*
X002211Y004055D03*
X002212Y004055D03*
X002213Y004055D03*
X002215Y004055D03*
X002216Y004055D03*
X002217Y004055D03*
X002218Y004055D03*
X002220Y004055D03*
X002221Y004055D03*
X002222Y004055D03*
X002223Y004055D03*
D724*
X002204Y004328D03*
X002203Y004328D03*
X002201Y004328D03*
X002201Y004328D03*
X002200Y004328D03*
X002199Y004328D03*
X002199Y004328D03*
X002198Y004328D03*
X002196Y004328D03*
X002196Y004328D03*
X002195Y004328D03*
X002194Y004328D03*
X002194Y004328D03*
X002193Y004328D03*
X002191Y004328D03*
X002191Y004328D03*
X002190Y004328D03*
X002189Y004328D03*
X002189Y004328D03*
X002188Y004328D03*
X002186Y004328D03*
X002186Y004328D03*
X002185Y004328D03*
X002184Y004328D03*
X002184Y004328D03*
X002183Y004328D03*
X002181Y004328D03*
X002181Y004328D03*
X002180Y004328D03*
X002179Y004328D03*
X002179Y004328D03*
X002178Y004328D03*
X002176Y004328D03*
X002176Y004328D03*
X002175Y004328D03*
X002174Y004328D03*
X002174Y004328D03*
X002173Y004328D03*
X002171Y004328D03*
X002171Y004328D03*
X002170Y004328D03*
X002169Y004328D03*
X002169Y004328D03*
X002168Y004328D03*
X002166Y004328D03*
X002166Y004328D03*
X002165Y004328D03*
X002164Y004328D03*
X002164Y004328D03*
X002163Y004328D03*
X002161Y004328D03*
X002161Y004328D03*
X002160Y004328D03*
X002159Y004328D03*
X002159Y004328D03*
X002158Y004328D03*
X002156Y004328D03*
X002156Y004328D03*
X002155Y004328D03*
X002154Y004328D03*
X002154Y004328D03*
X002153Y004328D03*
X002151Y004328D03*
X002151Y004328D03*
X002150Y004328D03*
X002149Y004328D03*
X002149Y004328D03*
X002148Y004328D03*
X002146Y004328D03*
X002146Y004328D03*
X002145Y004328D03*
X002144Y004328D03*
X002144Y004328D03*
X002143Y004328D03*
X002141Y004328D03*
X002141Y004328D03*
X002140Y004328D03*
X002139Y004328D03*
X002139Y004328D03*
X002138Y004328D03*
X002136Y004328D03*
X002136Y004328D03*
X002135Y004328D03*
X002134Y004328D03*
X002134Y004328D03*
X002133Y004328D03*
X002131Y004328D03*
X002131Y004328D03*
X002130Y004328D03*
X002129Y004328D03*
X002129Y004328D03*
X002128Y004328D03*
X002126Y004328D03*
X002126Y004328D03*
X002125Y004328D03*
X002124Y004328D03*
X002124Y004328D03*
X002123Y004328D03*
X002121Y004328D03*
X002121Y004328D03*
X002120Y004328D03*
X002119Y004328D03*
X002119Y004328D03*
X002118Y004328D03*
X002116Y004328D03*
X002116Y004328D03*
X002115Y004328D03*
X002114Y004328D03*
X002114Y004328D03*
X002113Y004328D03*
X002111Y004328D03*
X002111Y004328D03*
X002110Y004328D03*
X002109Y004328D03*
X002109Y004328D03*
X002108Y004328D03*
X002106Y004328D03*
X002106Y004328D03*
X002105Y004328D03*
X002104Y004328D03*
X002104Y004328D03*
X002103Y004328D03*
X002101Y004328D03*
X002101Y004328D03*
X002100Y004328D03*
X002099Y004328D03*
X002099Y004328D03*
X002098Y004328D03*
X002096Y004328D03*
X002096Y004328D03*
X002095Y004328D03*
X002094Y004328D03*
X002094Y004328D03*
X002093Y004328D03*
X002091Y004328D03*
X002091Y004328D03*
X002090Y004328D03*
X002089Y004328D03*
X002089Y004328D03*
X002088Y004328D03*
X002086Y004328D03*
X002086Y004328D03*
X002085Y004328D03*
X002084Y004328D03*
X002084Y004328D03*
X002083Y004328D03*
X002081Y004328D03*
X002081Y004328D03*
X002080Y004328D03*
X002079Y004328D03*
X002079Y004328D03*
X002078Y004328D03*
X002076Y004328D03*
X002076Y004328D03*
D725*
X002076Y003774D03*
X002076Y003774D03*
X002078Y003774D03*
X002079Y003774D03*
X002079Y003774D03*
X002080Y003774D03*
X002081Y003774D03*
X002081Y003774D03*
X002083Y003774D03*
X002084Y003774D03*
X002084Y003774D03*
X002085Y003774D03*
X002086Y003774D03*
X002086Y003774D03*
X002088Y003774D03*
X002089Y003774D03*
X002089Y003774D03*
X002090Y003774D03*
X002091Y003774D03*
X002091Y003774D03*
X002093Y003774D03*
X002094Y003774D03*
X002094Y003774D03*
X002095Y003774D03*
X002096Y003774D03*
X002096Y003774D03*
X002098Y003774D03*
X002099Y003774D03*
X002099Y003774D03*
X002100Y003774D03*
X002101Y003774D03*
X002101Y003774D03*
X002103Y003774D03*
X002104Y003774D03*
X002104Y003774D03*
X002105Y003774D03*
X002106Y003774D03*
X002106Y003774D03*
X002108Y003774D03*
X002109Y003774D03*
X002109Y003774D03*
X002110Y003774D03*
X002111Y003774D03*
X002111Y003774D03*
X002113Y003774D03*
X002114Y003774D03*
X002114Y003774D03*
X002115Y003774D03*
X002116Y003774D03*
X002116Y003774D03*
X002118Y003774D03*
X002119Y003774D03*
X002119Y003774D03*
X002120Y003774D03*
X002121Y003774D03*
X002121Y003774D03*
X002123Y003774D03*
X002124Y003774D03*
X002124Y003774D03*
X002125Y003774D03*
X002126Y003774D03*
X002126Y003774D03*
X002128Y003774D03*
X002129Y003774D03*
X002129Y003774D03*
X002130Y003774D03*
X002131Y003774D03*
X002131Y003774D03*
X002133Y003774D03*
X002134Y003774D03*
X002134Y003774D03*
X002135Y003774D03*
X002136Y003774D03*
X002136Y003774D03*
X002138Y003774D03*
X002139Y003774D03*
X002139Y003774D03*
X002140Y003774D03*
X002141Y003774D03*
X002141Y003774D03*
X002143Y003774D03*
X002144Y003774D03*
X002144Y003774D03*
X002145Y003774D03*
X002146Y003774D03*
X002146Y003774D03*
X002148Y003774D03*
X002149Y003774D03*
X002149Y003774D03*
X002150Y003774D03*
X002151Y003774D03*
X002151Y003774D03*
X002153Y003774D03*
X002154Y003774D03*
X002154Y003774D03*
X002155Y003774D03*
X002156Y003774D03*
X002156Y003774D03*
X002158Y003774D03*
X002159Y003774D03*
X002159Y003774D03*
X002160Y003774D03*
X002161Y003774D03*
X002161Y003774D03*
X002163Y003774D03*
X002164Y003774D03*
X002164Y003774D03*
X002165Y003774D03*
X002166Y003774D03*
X002166Y003774D03*
X002168Y003774D03*
X002169Y003774D03*
X002169Y003774D03*
X002170Y003774D03*
X002171Y003774D03*
X002171Y003774D03*
X002173Y003774D03*
X002174Y003774D03*
X002174Y003774D03*
X002175Y003774D03*
X002176Y003774D03*
X002176Y003774D03*
X002178Y003774D03*
X002179Y003774D03*
X002179Y003774D03*
X002180Y003774D03*
X002181Y003774D03*
X002181Y003774D03*
X002183Y003774D03*
X002184Y003774D03*
X002184Y003774D03*
X002185Y003774D03*
X002186Y003774D03*
X002186Y003774D03*
X002188Y003774D03*
X002189Y003774D03*
X002189Y003774D03*
X002190Y003774D03*
X002191Y003774D03*
X002191Y003774D03*
X002193Y003774D03*
X002194Y003774D03*
X002194Y003774D03*
X002195Y003774D03*
X002196Y003774D03*
X002196Y003774D03*
X002198Y003774D03*
X002199Y003774D03*
X002199Y003774D03*
X002200Y003774D03*
X002201Y003774D03*
X002201Y003774D03*
X002203Y003774D03*
X002204Y003774D03*
D726*
X002203Y004328D03*
X002202Y004328D03*
X002201Y004328D03*
X002200Y004328D03*
X002198Y004328D03*
X002197Y004328D03*
X002196Y004328D03*
X002195Y004328D03*
X002193Y004328D03*
X002192Y004328D03*
X002191Y004328D03*
X002190Y004328D03*
X002188Y004328D03*
X002187Y004328D03*
X002186Y004328D03*
X002185Y004328D03*
X002183Y004328D03*
X002182Y004328D03*
X002181Y004328D03*
X002180Y004328D03*
X002178Y004328D03*
X002177Y004328D03*
X002176Y004328D03*
X002175Y004328D03*
X002173Y004328D03*
X002172Y004328D03*
X002171Y004328D03*
X002170Y004328D03*
X002168Y004328D03*
X002167Y004328D03*
X002166Y004328D03*
X002165Y004328D03*
X002163Y004328D03*
X002162Y004328D03*
X002161Y004328D03*
X002160Y004328D03*
X002158Y004328D03*
X002157Y004328D03*
X002156Y004328D03*
X002155Y004328D03*
X002153Y004328D03*
X002152Y004328D03*
X002151Y004328D03*
X002150Y004328D03*
X002148Y004328D03*
X002147Y004328D03*
X002146Y004328D03*
X002145Y004328D03*
X002143Y004328D03*
X002142Y004328D03*
X002141Y004328D03*
X002140Y004328D03*
X002138Y004328D03*
X002137Y004328D03*
X002136Y004328D03*
X002135Y004328D03*
X002133Y004328D03*
X002132Y004328D03*
X002131Y004328D03*
X002130Y004328D03*
X002128Y004328D03*
X002127Y004328D03*
X002126Y004328D03*
X002125Y004328D03*
X002123Y004328D03*
X002122Y004328D03*
X002121Y004328D03*
X002120Y004328D03*
X002118Y004328D03*
X002117Y004328D03*
X002116Y004328D03*
X002115Y004328D03*
X002113Y004328D03*
X002112Y004328D03*
X002111Y004328D03*
X002110Y004328D03*
X002108Y004328D03*
X002107Y004328D03*
X002106Y004328D03*
X002105Y004328D03*
X002103Y004328D03*
X002102Y004328D03*
X002101Y004328D03*
X002100Y004328D03*
X002098Y004328D03*
X002097Y004328D03*
X002096Y004328D03*
X002095Y004328D03*
X002093Y004328D03*
X002092Y004328D03*
X002091Y004328D03*
X002090Y004328D03*
X002088Y004328D03*
X002087Y004328D03*
X002086Y004328D03*
X002085Y004328D03*
X002083Y004328D03*
X002082Y004328D03*
X002081Y004328D03*
X002080Y004328D03*
X002078Y004328D03*
X002077Y004328D03*
X002076Y004328D03*
D727*
X002076Y003774D03*
X002077Y003774D03*
X002078Y003774D03*
X002080Y003774D03*
X002081Y003774D03*
X002082Y003774D03*
X002083Y003774D03*
X002085Y003774D03*
X002086Y003774D03*
X002087Y003774D03*
X002088Y003774D03*
X002090Y003774D03*
X002091Y003774D03*
X002092Y003774D03*
X002093Y003774D03*
X002095Y003774D03*
X002096Y003774D03*
X002097Y003774D03*
X002098Y003774D03*
X002100Y003774D03*
X002101Y003774D03*
X002102Y003774D03*
X002103Y003774D03*
X002105Y003774D03*
X002106Y003774D03*
X002107Y003774D03*
X002108Y003774D03*
X002110Y003774D03*
X002111Y003774D03*
X002112Y003774D03*
X002113Y003774D03*
X002115Y003774D03*
X002116Y003774D03*
X002117Y003774D03*
X002118Y003774D03*
X002120Y003774D03*
X002121Y003774D03*
X002122Y003774D03*
X002123Y003774D03*
X002125Y003774D03*
X002126Y003774D03*
X002127Y003774D03*
X002128Y003774D03*
X002130Y003774D03*
X002131Y003774D03*
X002132Y003774D03*
X002133Y003774D03*
X002135Y003774D03*
X002136Y003774D03*
X002137Y003774D03*
X002138Y003774D03*
X002140Y003774D03*
X002141Y003774D03*
X002142Y003774D03*
X002143Y003774D03*
X002145Y003774D03*
X002146Y003774D03*
X002147Y003774D03*
X002148Y003774D03*
X002150Y003774D03*
X002151Y003774D03*
X002152Y003774D03*
X002153Y003774D03*
X002155Y003774D03*
X002156Y003774D03*
X002157Y003774D03*
X002158Y003774D03*
X002160Y003774D03*
X002161Y003774D03*
X002162Y003774D03*
X002163Y003774D03*
X002165Y003774D03*
X002166Y003774D03*
X002167Y003774D03*
X002168Y003774D03*
X002170Y003774D03*
X002171Y003774D03*
X002172Y003774D03*
X002173Y003774D03*
X002175Y003774D03*
X002176Y003774D03*
X002177Y003774D03*
X002178Y003774D03*
X002180Y003774D03*
X002181Y003774D03*
X002182Y003774D03*
X002183Y003774D03*
X002185Y003774D03*
X002186Y003774D03*
X002187Y003774D03*
X002188Y003774D03*
X002190Y003774D03*
X002191Y003774D03*
X002192Y003774D03*
X002193Y003774D03*
X002195Y003774D03*
X002196Y003774D03*
X002197Y003774D03*
X002198Y003774D03*
X002200Y003774D03*
X002201Y003774D03*
X002202Y003774D03*
X002203Y003774D03*
D728*
X002039Y004055D03*
D729*
X002038Y004055D03*
D730*
X002038Y004055D03*
X002036Y004055D03*
X002036Y004055D03*
X002035Y004055D03*
D731*
X002035Y004055D03*
X002036Y004055D03*
X002037Y004055D03*
D732*
X002034Y004055D03*
D733*
X002034Y004055D03*
X002033Y004055D03*
X002031Y004055D03*
D734*
X002032Y004055D03*
X002033Y004055D03*
D735*
X002031Y004055D03*
D736*
X002031Y004055D03*
D737*
X002030Y004055D03*
X002029Y004055D03*
X002029Y004055D03*
D738*
X002030Y004055D03*
D739*
X002028Y004055D03*
D740*
X002028Y004055D03*
D741*
X002027Y004055D03*
D742*
X002026Y004055D03*
X002026Y004055D03*
D743*
X002026Y004055D03*
D744*
X002025Y004055D03*
D745*
X002025Y004055D03*
D746*
X002024Y004055D03*
X002024Y004055D03*
D747*
X002023Y004055D03*
D748*
X002023Y004055D03*
D749*
X002022Y004055D03*
D750*
X002021Y004055D03*
X002021Y004055D03*
D751*
X002021Y004055D03*
D752*
X002020Y004055D03*
X002019Y004055D03*
X002019Y004055D03*
D753*
X002020Y004055D03*
D754*
X002018Y004055D03*
X002017Y004055D03*
D755*
X002018Y004055D03*
X002016Y004055D03*
D756*
X002016Y004055D03*
X002015Y004055D03*
D757*
X002015Y004055D03*
X002016Y004055D03*
D758*
X002014Y004055D03*
X002014Y004055D03*
X002013Y004055D03*
D759*
X002013Y004055D03*
D760*
X002012Y004055D03*
X002011Y004055D03*
D761*
X002011Y004055D03*
X002011Y004055D03*
D762*
X002010Y004055D03*
X002009Y004055D03*
D763*
X002010Y004055D03*
D764*
X002009Y004055D03*
D765*
X002008Y004055D03*
D766*
X002008Y004055D03*
D767*
X002007Y004055D03*
D768*
X002006Y004055D03*
X002006Y004055D03*
D769*
X002006Y004055D03*
D770*
X002005Y004055D03*
D771*
X002005Y004055D03*
D772*
X002004Y004055D03*
D773*
X002004Y004055D03*
D774*
X002003Y004055D03*
D775*
X002003Y004055D03*
D776*
X002002Y004055D03*
D777*
X002001Y004055D03*
X002001Y004055D03*
D778*
X002001Y004055D03*
D779*
X002000Y004055D03*
D780*
X002000Y004055D03*
D781*
X001999Y004055D03*
X001999Y004055D03*
D782*
X001998Y004055D03*
D783*
X001998Y004055D03*
D784*
X001997Y004055D03*
D785*
X001996Y004055D03*
D786*
X001996Y004055D03*
D787*
X001996Y004055D03*
D788*
X001995Y004055D03*
D789*
X001995Y004055D03*
D790*
X001994Y004055D03*
D791*
X001994Y004055D03*
D792*
X001993Y004055D03*
D793*
X001993Y004055D03*
D794*
X001992Y004055D03*
D795*
X001991Y004055D03*
D796*
X001991Y004055D03*
D797*
X001991Y004055D03*
D798*
X001990Y004055D03*
D799*
X001990Y004055D03*
D800*
X001989Y004055D03*
D801*
X001989Y004055D03*
D802*
X001988Y004055D03*
D803*
X001988Y004055D03*
D804*
X001987Y004055D03*
D805*
X001986Y004055D03*
D806*
X001986Y004055D03*
D807*
X001986Y004055D03*
D808*
X001985Y004055D03*
D809*
X001985Y004055D03*
D810*
X001984Y004055D03*
D811*
X001984Y004055D03*
D812*
X001983Y004055D03*
D813*
X001983Y004055D03*
D814*
X001982Y004055D03*
D815*
X001981Y004055D03*
D816*
X001981Y004055D03*
D817*
X001981Y004055D03*
D818*
X001980Y004055D03*
D819*
X001980Y004055D03*
D820*
X001979Y004055D03*
D821*
X001979Y004055D03*
D822*
X001978Y004055D03*
D823*
X001978Y004055D03*
D824*
X001977Y004055D03*
D825*
X001976Y004055D03*
D826*
X001976Y004055D03*
D827*
X001976Y004055D03*
D828*
X001975Y004055D03*
D829*
X001975Y004055D03*
D830*
X001974Y004055D03*
D831*
X001974Y004055D03*
D832*
X001973Y004055D03*
D833*
X001973Y004055D03*
D834*
X001972Y004055D03*
D835*
X001971Y004055D03*
D836*
X001971Y004055D03*
D837*
X001971Y004055D03*
D838*
X001970Y004055D03*
D839*
X001970Y004055D03*
D840*
X001969Y004055D03*
D841*
X001969Y004055D03*
D842*
X001968Y004055D03*
D843*
X001968Y004055D03*
D844*
X001967Y004055D03*
D845*
X001966Y004055D03*
D846*
X001966Y004055D03*
D847*
X001966Y004055D03*
D848*
X001965Y004055D03*
D849*
X001965Y004055D03*
D850*
X001964Y004055D03*
D851*
X001964Y004055D03*
D852*
X001963Y004055D03*
D853*
X001963Y004055D03*
D854*
X001962Y004055D03*
D855*
X001961Y004055D03*
D856*
X001961Y004055D03*
D857*
X001961Y004055D03*
D858*
X001960Y004055D03*
D859*
X001960Y004055D03*
D860*
X001959Y004055D03*
D861*
X001959Y004055D03*
D862*
X001958Y004055D03*
D863*
X001958Y004055D03*
D864*
X001957Y004055D03*
D865*
X001956Y004055D03*
D866*
X001956Y004055D03*
D867*
X001956Y004055D03*
D868*
X001955Y004055D03*
D869*
X001955Y004055D03*
D870*
X001954Y004055D03*
D871*
X001954Y004055D03*
D872*
X001953Y004055D03*
D873*
X001953Y004055D03*
D874*
X001952Y004055D03*
D875*
X001951Y004055D03*
D876*
X001951Y004055D03*
D877*
X001951Y004055D03*
D878*
X001950Y004055D03*
D879*
X001950Y004055D03*
D880*
X001949Y004055D03*
D881*
X001949Y004055D03*
D882*
X001948Y004055D03*
D883*
X001948Y004055D03*
D884*
X001947Y004055D03*
D885*
X001946Y004055D03*
D886*
X001946Y004055D03*
D887*
X001946Y004055D03*
D888*
X001945Y004055D03*
D889*
X001945Y004055D03*
D890*
X001944Y004055D03*
D891*
X001944Y004055D03*
D892*
X001943Y004055D03*
D893*
X001943Y004055D03*
D894*
X001942Y004055D03*
D895*
X001941Y004055D03*
D896*
X001941Y004055D03*
D897*
X001941Y004055D03*
D898*
X001940Y004055D03*
D899*
X001940Y004055D03*
D900*
X001939Y004055D03*
D901*
X001939Y004055D03*
D902*
X001938Y004055D03*
D903*
X001938Y004055D03*
D904*
X001937Y004055D03*
D905*
X001936Y004055D03*
D906*
X001936Y004055D03*
D907*
X001936Y004055D03*
D908*
X001935Y004055D03*
D909*
X001935Y004055D03*
D910*
X001934Y004055D03*
D911*
X001934Y004055D03*
D912*
X001933Y004055D03*
D913*
X001933Y004055D03*
D914*
X001932Y004055D03*
D915*
X001931Y004055D03*
D916*
X001931Y004055D03*
D917*
X001931Y004055D03*
D918*
X001930Y004055D03*
D919*
X001930Y004055D03*
D920*
X001929Y004055D03*
D921*
X001929Y004055D03*
D922*
X001928Y004055D03*
D923*
X001928Y004055D03*
D924*
X001927Y004055D03*
D925*
X001926Y004055D03*
D926*
X001926Y004055D03*
D927*
X001926Y004055D03*
D928*
X001925Y004055D03*
D929*
X001925Y004055D03*
D930*
X001924Y004055D03*
D931*
X001924Y004055D03*
D932*
X001923Y004055D03*
D933*
X001923Y004055D03*
D934*
X001922Y004055D03*
D935*
X001921Y004055D03*
D936*
X001921Y004055D03*
D937*
X001921Y004055D03*
D938*
X001920Y004055D03*
D939*
X001920Y004055D03*
D940*
X001919Y004055D03*
D941*
X001919Y004055D03*
D942*
X001918Y004055D03*
D943*
X001918Y004055D03*
D944*
X001917Y004055D03*
D945*
X001916Y004055D03*
D946*
X001916Y004055D03*
D947*
X001916Y004055D03*
D948*
X001915Y004055D03*
D949*
X001915Y004055D03*
D950*
X001914Y004055D03*
D951*
X001914Y004055D03*
D952*
X001913Y004055D03*
D953*
X001913Y004055D03*
D954*
X001912Y004055D03*
D955*
X001911Y004055D03*
D956*
X001911Y004055D03*
D957*
X001911Y004055D03*
D958*
X001910Y004055D03*
D959*
X001910Y004055D03*
D960*
X001909Y004055D03*
D961*
X001909Y004055D03*
D962*
X001908Y004055D03*
D963*
X001908Y004055D03*
D964*
X001907Y004055D03*
D965*
X001906Y004055D03*
D966*
X001906Y004055D03*
D967*
X001906Y004055D03*
D968*
X001905Y004055D03*
D969*
X001905Y004055D03*
D970*
X001904Y004055D03*
D971*
X001904Y004055D03*
D972*
X001903Y004055D03*
D973*
X001903Y004055D03*
D974*
X001902Y004055D03*
D975*
X001901Y004055D03*
D976*
X001901Y004055D03*
D977*
X001901Y004055D03*
D978*
X001900Y004055D03*
D979*
X001900Y004055D03*
D980*
X001899Y004055D03*
D981*
X001899Y004055D03*
D982*
X001898Y004055D03*
D983*
X001898Y004055D03*
D984*
X001897Y004055D03*
D985*
X001896Y004055D03*
D986*
X001896Y004055D03*
D987*
X001896Y004055D03*
D988*
X001895Y004055D03*
D989*
X001895Y004055D03*
D990*
X001894Y004055D03*
D991*
X001894Y004055D03*
D992*
X001893Y004055D03*
D993*
X001893Y004055D03*
D994*
X001892Y004055D03*
D995*
X001891Y004055D03*
D996*
X001891Y004055D03*
D997*
X001891Y004055D03*
D998*
X001890Y004055D03*
D999*
X001890Y004055D03*
D1000*
X001889Y004055D03*
D1001*
X001889Y004055D03*
D1002*
X001888Y004055D03*
D1003*
X001888Y004055D03*
D1004*
X001887Y004055D03*
D1005*
X001886Y004055D03*
D1006*
X001886Y004055D03*
D1007*
X001886Y004055D03*
D1008*
X001885Y004055D03*
D1009*
X001885Y004055D03*
D1010*
X001884Y004055D03*
D1011*
X001884Y004055D03*
D1012*
X001883Y004055D03*
D1013*
X001883Y004055D03*
D1014*
X001882Y004055D03*
D1015*
X001881Y004055D03*
D1016*
X001881Y004055D03*
D1017*
X001881Y004055D03*
D1018*
X001880Y004055D03*
D1019*
X001880Y004055D03*
D1020*
X001879Y004055D03*
D1021*
X001879Y004055D03*
D1022*
X001878Y004055D03*
D1023*
X001878Y004055D03*
D1024*
X001877Y004055D03*
D1025*
X001876Y004055D03*
D1026*
X001876Y004055D03*
D1027*
X001876Y004055D03*
D1028*
X001875Y004055D03*
D1029*
X001875Y004055D03*
D1030*
X001874Y004055D03*
D1031*
X001874Y004055D03*
D1032*
X001873Y004055D03*
D1033*
X001873Y004055D03*
D1034*
X001872Y004055D03*
D1035*
X001871Y004055D03*
D1036*
X001871Y004055D03*
D1037*
X001871Y004055D03*
D1038*
X001870Y004055D03*
D1039*
X001870Y004055D03*
D1040*
X001869Y004055D03*
D1041*
X001869Y004055D03*
D1042*
X001868Y004055D03*
D1043*
X001868Y004055D03*
D1044*
X001867Y004055D03*
D1045*
X001866Y004055D03*
D1046*
X001866Y004055D03*
D1047*
X001866Y004055D03*
D1048*
X001865Y004055D03*
D1049*
X001865Y004055D03*
D1050*
X001864Y004055D03*
D1051*
X001864Y004055D03*
D1052*
X001863Y004055D03*
D1053*
X001863Y004055D03*
D1054*
X001862Y004055D03*
D1055*
X001861Y004055D03*
D1056*
X001861Y004055D03*
D1057*
X001861Y004055D03*
D1058*
X001860Y004055D03*
D1059*
X001860Y004055D03*
D1060*
X001859Y004055D03*
D1061*
X001859Y004055D03*
D1062*
X001858Y004055D03*
D1063*
X001858Y004055D03*
D1064*
X001857Y004055D03*
D1065*
X001856Y004055D03*
D1066*
X001856Y004055D03*
D1067*
X001856Y004055D03*
D1068*
X001855Y004055D03*
D1069*
X001855Y004055D03*
D1070*
X001854Y004055D03*
D1071*
X001854Y004055D03*
D1072*
X001853Y004055D03*
D1073*
X001853Y004055D03*
D1074*
X001852Y004055D03*
D1075*
X001851Y004055D03*
D1076*
X001851Y004055D03*
D1077*
X001851Y004055D03*
D1078*
X001850Y004056D03*
D1079*
X001850Y004056D03*
D1080*
X001849Y004056D03*
D1081*
X001849Y004056D03*
D1082*
X002901Y004558D02*
X002903Y004558D01*
X002903Y004559D02*
X002901Y004559D01*
X002902Y004559D01*
X002902Y004559D01*
X002902Y004559D01*
X002902Y004559D01*
X002902Y004560D02*
X002902Y004560D01*
X002902Y004560D01*
X002902Y004560D01*
X002902Y004560D01*
X002902Y004560D01*
X002901Y004560D01*
X002901Y004560D01*
X002902Y004560D01*
X002902Y004561D02*
X002902Y004561D01*
X002902Y004561D01*
X002901Y004561D01*
X002902Y004561D01*
X002902Y004561D01*
X002902Y004561D01*
X002902Y004562D01*
X002902Y004562D01*
X002902Y004562D01*
X002902Y004562D01*
X002902Y004561D01*
X002902Y004561D01*
X002901Y004561D01*
X002901Y004562D02*
X002902Y004561D01*
X002901Y004562D02*
X002901Y004562D01*
X002903Y004563D01*
X002902Y004563D02*
X002901Y004564D01*
X002901Y004565D01*
X002901Y004565D01*
X002902Y004565D01*
X002902Y004565D01*
X002902Y004565D01*
X002902Y004565D01*
X002902Y004565D01*
X002902Y004565D01*
X002902Y004564D02*
X002901Y004564D01*
X002901Y004563D02*
X002902Y004564D01*
X002902Y004564D01*
X002903Y004564D02*
X002903Y004564D01*
X002902Y004566D02*
X002902Y004566D01*
X002902Y004566D01*
X002902Y004566D01*
X002901Y004566D01*
X002901Y004566D01*
X002902Y004567D02*
X002901Y004567D01*
X002902Y004567D01*
X002902Y004567D01*
X002902Y004567D01*
X002902Y004567D01*
X002902Y004567D01*
X002902Y004567D01*
X002901Y004567D02*
X002901Y004567D01*
X002901Y004568D02*
X002903Y004568D01*
X002902Y004569D02*
X002902Y004569D01*
X002901Y004569D01*
X002901Y004569D01*
X002902Y004568D01*
X002902Y004569D01*
X002902Y004569D01*
X002902Y004569D01*
X002902Y004570D01*
X002901Y004570D01*
X002901Y004571D01*
X002901Y004571D01*
X002903Y004571D01*
X002903Y004571D01*
X002902Y004572D02*
X002902Y004572D01*
X002902Y004572D01*
X002902Y004572D01*
X002902Y004572D01*
X002901Y004572D01*
X002901Y004572D01*
X002902Y004572D01*
X002902Y004572D01*
X002902Y004572D01*
X002902Y004573D01*
X002902Y004573D01*
X002901Y004573D01*
X002901Y004573D01*
X002901Y004573D01*
X002901Y004573D01*
X002902Y004572D01*
X002902Y004573D02*
X002902Y004573D01*
X002902Y004574D01*
X002902Y004574D01*
X002902Y004574D01*
X002902Y004574D01*
X002901Y004574D01*
X002901Y004574D01*
X002901Y004574D01*
X002902Y004574D01*
X002902Y004574D01*
X002901Y004574D01*
X002902Y004573D01*
X002902Y004575D02*
X002902Y004575D01*
X002902Y004575D01*
X002902Y004575D01*
X002903Y004575D02*
X002901Y004575D01*
X002901Y004575D01*
X002902Y004575D01*
X002902Y004576D02*
X002902Y004576D01*
X002902Y004576D01*
X002901Y004576D01*
X002902Y004576D01*
X002902Y004576D01*
X002902Y004576D01*
X002901Y004576D01*
X002901Y004577D02*
X002902Y004577D01*
X002902Y004577D01*
X002902Y004577D01*
X002902Y004577D01*
X002901Y004577D01*
X002901Y004577D01*
X002901Y004570D02*
X002901Y004569D01*
X002903Y004570D02*
X002903Y004570D01*
M02*
