G75*
%MOIN*%
%OFA0B0*%
%FSLAX24Y24*%
%IPPOS*%
%LPD*%
%AMOC8*
5,1,8,0,0,1.08239X$1,22.5*
%
%ADD10C,0.0010*%
%ADD11C,0.0740*%
%ADD12R,0.0157X0.0551*%
%ADD13R,0.0709X0.0709*%
%ADD14C,0.0476*%
%ADD15C,0.0787*%
%ADD16C,0.0100*%
%ADD17C,0.0160*%
D10*
X000400Y000728D02*
X003900Y000728D01*
X003930Y000730D01*
X003960Y000735D01*
X003989Y000744D01*
X004016Y000757D01*
X004042Y000772D01*
X004066Y000791D01*
X004087Y000812D01*
X004106Y000836D01*
X004121Y000862D01*
X004134Y000889D01*
X004143Y000918D01*
X004148Y000948D01*
X004150Y000978D01*
X004150Y006078D01*
X004148Y006108D01*
X004143Y006138D01*
X004134Y006167D01*
X004121Y006194D01*
X004106Y006220D01*
X004087Y006244D01*
X004066Y006265D01*
X004042Y006284D01*
X004016Y006299D01*
X003989Y006312D01*
X003960Y006321D01*
X003930Y006326D01*
X003900Y006328D01*
X000400Y006328D01*
X000370Y006326D01*
X000340Y006321D01*
X000311Y006312D01*
X000284Y006299D01*
X000258Y006284D01*
X000234Y006265D01*
X000213Y006244D01*
X000194Y006220D01*
X000179Y006194D01*
X000166Y006167D01*
X000157Y006138D01*
X000152Y006108D01*
X000150Y006078D01*
X000150Y000978D01*
X000152Y000948D01*
X000157Y000918D01*
X000166Y000889D01*
X000179Y000862D01*
X000194Y000836D01*
X000213Y000812D01*
X000234Y000791D01*
X000258Y000772D01*
X000284Y000757D01*
X000311Y000744D01*
X000340Y000735D01*
X000370Y000730D01*
X000400Y000728D01*
D11*
X000650Y002828D03*
X000650Y003828D03*
X000650Y004828D03*
X000650Y005828D03*
X003650Y005828D03*
X003650Y004828D03*
X003650Y003828D03*
X003650Y002828D03*
D12*
X002662Y002271D03*
X002406Y002271D03*
X002150Y002271D03*
X001894Y002271D03*
X001638Y002271D03*
D13*
X001697Y001228D03*
X002603Y001228D03*
D14*
X003105Y002330D03*
X001195Y002330D03*
D15*
X000729Y001228D03*
X003571Y001228D03*
D16*
X003275Y001672D02*
X003127Y001524D01*
X003087Y001427D01*
X003087Y001636D01*
X003011Y001712D01*
X002195Y001712D01*
X002150Y001667D01*
X002105Y001712D01*
X001289Y001712D01*
X001213Y001636D01*
X001213Y001427D01*
X001173Y001524D01*
X001025Y001672D01*
X000833Y001751D01*
X000625Y001751D01*
X000432Y001672D01*
X000285Y001524D01*
X000285Y002485D01*
X000367Y002404D01*
X000551Y002328D01*
X000749Y002328D01*
X000827Y002360D01*
X000827Y002257D01*
X000883Y002121D01*
X000987Y002018D01*
X001122Y001962D01*
X001268Y001962D01*
X001404Y002018D01*
X001429Y002043D01*
X001429Y001941D01*
X001506Y001865D01*
X002508Y001865D01*
X002525Y001855D01*
X002563Y001845D01*
X002662Y001845D01*
X002760Y001845D01*
X002798Y001855D01*
X002833Y001875D01*
X002861Y001903D01*
X002880Y001937D01*
X002891Y001976D01*
X002891Y002023D01*
X002896Y002018D01*
X003032Y001962D01*
X003178Y001962D01*
X003313Y002018D01*
X003417Y002121D01*
X003473Y002257D01*
X003473Y002360D01*
X003551Y002328D01*
X003749Y002328D01*
X003933Y002404D01*
X004015Y002485D01*
X004015Y001524D01*
X003868Y001672D01*
X003675Y001751D01*
X003467Y001751D01*
X003275Y001672D01*
X003217Y001614D02*
X003087Y001614D01*
X003087Y001516D02*
X003124Y001516D01*
X003374Y001713D02*
X000926Y001713D01*
X001083Y001614D02*
X001213Y001614D01*
X001213Y001516D02*
X001176Y001516D01*
X001461Y001910D02*
X000285Y001910D01*
X000285Y002008D02*
X001010Y002008D01*
X000898Y002107D02*
X000285Y002107D01*
X000285Y002205D02*
X000849Y002205D01*
X000827Y002304D02*
X000285Y002304D01*
X000285Y002402D02*
X000371Y002402D01*
X000285Y001811D02*
X004015Y001811D01*
X004015Y001713D02*
X003769Y001713D01*
X003925Y001614D02*
X004015Y001614D01*
X004015Y001910D02*
X002864Y001910D01*
X002891Y002008D02*
X002920Y002008D01*
X002662Y002008D02*
X002662Y002008D01*
X002662Y001910D02*
X002662Y001910D01*
X002662Y001845D02*
X002662Y002271D01*
X002662Y002271D01*
X002662Y002696D01*
X002760Y002696D01*
X002798Y002686D01*
X002833Y002666D01*
X002861Y002639D01*
X002872Y002618D01*
X002896Y002642D01*
X003032Y002698D01*
X003162Y002698D01*
X003150Y002728D01*
X003150Y002927D01*
X003226Y003111D01*
X003367Y003251D01*
X003551Y003328D01*
X003749Y003328D01*
X003933Y003404D01*
X004015Y003485D01*
X004015Y003170D01*
X003933Y003251D01*
X003749Y003328D01*
X003551Y003328D01*
X003367Y003404D01*
X003226Y003544D01*
X003150Y003728D01*
X003150Y003927D01*
X003226Y004111D01*
X003367Y004251D01*
X003551Y004328D01*
X003749Y004328D01*
X003933Y004404D01*
X004015Y004485D01*
X004015Y004170D01*
X003933Y004251D01*
X003749Y004328D01*
X003551Y004328D01*
X003367Y004404D01*
X003226Y004544D01*
X003150Y004728D01*
X003150Y004927D01*
X003226Y005111D01*
X003367Y005251D01*
X003532Y005320D01*
X003528Y005320D01*
X003450Y005346D01*
X003377Y005383D01*
X003311Y005431D01*
X003253Y005489D01*
X003205Y005555D01*
X003168Y005628D01*
X003143Y005706D01*
X003131Y005778D01*
X003600Y005778D01*
X003600Y005878D01*
X003131Y005878D01*
X003143Y005949D01*
X003168Y006027D01*
X003205Y006100D01*
X003253Y006166D01*
X003280Y006193D01*
X001020Y006193D01*
X001047Y006166D01*
X001095Y006100D01*
X001132Y006027D01*
X001157Y005949D01*
X001169Y005878D01*
X000700Y005878D01*
X000700Y005778D01*
X001169Y005778D01*
X001157Y005706D01*
X001132Y005628D01*
X001095Y005555D01*
X001047Y005489D01*
X000989Y005431D01*
X000923Y005383D01*
X000850Y005346D01*
X000772Y005320D01*
X000768Y005320D01*
X000933Y005251D01*
X001074Y005111D01*
X001104Y005038D01*
X002037Y005038D01*
X002160Y004915D01*
X002360Y004715D01*
X002360Y002676D01*
X002508Y002676D01*
X002525Y002686D01*
X002563Y002696D01*
X002662Y002696D01*
X002662Y002271D01*
X002662Y001845D01*
X002662Y002107D02*
X002662Y002107D01*
X002662Y002205D02*
X002662Y002205D01*
X002662Y002271D02*
X002662Y002271D01*
X002662Y002304D02*
X002662Y002304D01*
X002662Y002402D02*
X002662Y002402D01*
X002662Y002501D02*
X002662Y002501D01*
X002662Y002599D02*
X002662Y002599D01*
X002360Y002698D02*
X003030Y002698D01*
X003150Y002796D02*
X002360Y002796D01*
X002360Y002895D02*
X003150Y002895D01*
X003177Y002993D02*
X002360Y002993D01*
X002360Y003092D02*
X003218Y003092D01*
X003305Y003190D02*
X002360Y003190D01*
X002360Y003289D02*
X003456Y003289D01*
X003407Y003387D02*
X002360Y003387D01*
X002360Y003486D02*
X003285Y003486D01*
X003210Y003584D02*
X002360Y003584D01*
X002360Y003683D02*
X003169Y003683D01*
X003150Y003781D02*
X002360Y003781D01*
X002360Y003880D02*
X003150Y003880D01*
X003171Y003978D02*
X002360Y003978D01*
X002360Y004077D02*
X003212Y004077D01*
X003290Y004175D02*
X002360Y004175D01*
X002360Y004274D02*
X003420Y004274D01*
X003443Y004372D02*
X002360Y004372D01*
X002360Y004471D02*
X003300Y004471D01*
X003216Y004569D02*
X002360Y004569D01*
X002360Y004668D02*
X003175Y004668D01*
X003150Y004766D02*
X002308Y004766D01*
X002210Y004865D02*
X003150Y004865D01*
X003165Y004963D02*
X002111Y004963D01*
X001164Y005751D02*
X003136Y005751D01*
X003160Y005653D02*
X001140Y005653D01*
X001094Y005554D02*
X003206Y005554D01*
X003287Y005456D02*
X001013Y005456D01*
X000872Y005357D02*
X003428Y005357D01*
X003384Y005259D02*
X000916Y005259D01*
X001025Y005160D02*
X003275Y005160D01*
X003206Y005062D02*
X001094Y005062D01*
X000700Y005850D02*
X003600Y005850D01*
X003238Y006145D02*
X001062Y006145D01*
X001122Y006047D02*
X003178Y006047D01*
X003143Y005948D02*
X001157Y005948D01*
X003473Y002304D02*
X004015Y002304D01*
X004015Y002402D02*
X003929Y002402D01*
X004015Y002205D02*
X003451Y002205D01*
X003402Y002107D02*
X004015Y002107D01*
X004015Y002008D02*
X003290Y002008D01*
X003995Y003190D02*
X004015Y003190D01*
X004015Y003289D02*
X003844Y003289D01*
X003893Y003387D02*
X004015Y003387D01*
X004010Y004175D02*
X004015Y004175D01*
X004015Y004274D02*
X003880Y004274D01*
X003857Y004372D02*
X004015Y004372D01*
X004015Y004471D02*
X004000Y004471D01*
X001429Y002008D02*
X001380Y002008D01*
X000531Y001713D02*
X000285Y001713D01*
X000285Y001614D02*
X000375Y001614D01*
D17*
X000650Y002828D02*
X000850Y003028D01*
X001450Y003028D01*
X001638Y002839D01*
X001638Y002271D01*
X001894Y002271D02*
X001894Y003533D01*
X001600Y003828D01*
X000650Y003828D01*
X000650Y004828D02*
X001950Y004828D01*
X002150Y004628D01*
X002150Y002271D01*
X002662Y002271D02*
X002662Y005466D01*
X002300Y005828D01*
X000650Y005828D01*
M02*
