G75*
%MOIN*%
%OFA0B0*%
%FSLAX24Y24*%
%IPPOS*%
%LPD*%
%AMOC8*
5,1,8,0,0,1.08239X$1,22.5*
%
%ADD10C,0.0050*%
%ADD11C,0.0080*%
D10*
X001475Y002753D02*
X001625Y002903D01*
X001625Y003203D01*
X001785Y003203D02*
X002011Y003203D01*
X002086Y003128D01*
X002086Y003053D01*
X002011Y002978D01*
X001785Y002978D01*
X001785Y002753D02*
X001785Y003203D01*
X002011Y002978D02*
X002086Y002903D01*
X002086Y002828D01*
X002011Y002753D01*
X001785Y002753D01*
X001475Y002753D02*
X001325Y002903D01*
X001325Y003203D01*
X001825Y003753D02*
X002050Y003753D01*
X002125Y003828D01*
X002125Y004128D01*
X002050Y004203D01*
X001825Y004203D01*
X001825Y003753D01*
X002246Y003203D02*
X002246Y002828D01*
X002321Y002753D01*
X002471Y002753D01*
X002546Y002828D01*
X002546Y003203D01*
X002706Y003128D02*
X002706Y003053D01*
X002781Y002978D01*
X002931Y002978D01*
X003006Y002903D01*
X003006Y002828D01*
X002931Y002753D01*
X002781Y002753D01*
X002706Y002828D01*
X002706Y003128D02*
X002781Y003203D01*
X002931Y003203D01*
X003006Y003128D01*
X002586Y003978D02*
X002285Y003978D01*
X002050Y004753D02*
X001825Y004753D01*
X001825Y005203D01*
X002050Y005203D01*
X002125Y005128D01*
X002125Y004828D01*
X002050Y004753D01*
X002285Y004978D02*
X002586Y004978D01*
X002436Y005128D02*
X002436Y004828D01*
X002496Y005753D02*
X002721Y005753D01*
X002796Y005828D01*
X002796Y006128D01*
X002721Y006203D01*
X002496Y006203D01*
X002496Y005753D01*
X002336Y005753D02*
X002336Y006203D01*
X002035Y006203D02*
X002035Y005753D01*
X001875Y005828D02*
X001875Y005978D01*
X001725Y005978D01*
X001575Y006128D02*
X001650Y006203D01*
X001800Y006203D01*
X001875Y006128D01*
X002035Y006203D02*
X002336Y005753D01*
X001875Y005828D02*
X001800Y005753D01*
X001650Y005753D01*
X001575Y005828D01*
X001575Y006128D01*
D11*
X000811Y000657D02*
X003489Y000657D01*
X003489Y001720D02*
X003489Y001850D01*
X000811Y001850D01*
X000811Y001720D01*
M02*
