G75*
%MOIN*%
%OFA0B0*%
%FSLAX24Y24*%
%IPPOS*%
%LPD*%
%AMOC8*
5,1,8,0,0,1.08239X$1,22.5*
%
%ADD10C,0.0010*%
%ADD11R,0.0740X0.0740*%
%ADD12C,0.0740*%
%ADD13R,0.0551X0.0157*%
%ADD14R,0.0709X0.0709*%
%ADD15C,0.0476*%
%ADD16C,0.0787*%
%ADD17C,0.0160*%
%ADD18C,0.0100*%
D10*
X000728Y000150D02*
X000728Y004150D01*
X004728Y004150D01*
X004728Y000150D01*
X000728Y000150D01*
D11*
X004228Y000650D03*
D12*
X004228Y001650D03*
X004228Y002650D03*
X004228Y003650D03*
D13*
X002271Y002662D03*
X002271Y002406D03*
X002271Y002150D03*
X002271Y001894D03*
X002271Y001638D03*
D14*
X001228Y001697D03*
X001228Y002603D03*
D15*
X002330Y003105D03*
X002330Y001195D03*
D16*
X001228Y000729D03*
X001228Y003571D03*
D17*
X002271Y002662D02*
X003239Y002662D01*
X004228Y003650D01*
X004228Y002650D02*
X003983Y002406D01*
X002271Y002406D01*
X002271Y002150D02*
X003728Y002150D01*
X004228Y001650D01*
X003239Y001638D02*
X002271Y001638D01*
X003239Y001638D02*
X004228Y000650D01*
D18*
X004178Y000643D02*
X001751Y000643D01*
X001751Y000625D02*
X001751Y000833D01*
X001672Y001025D01*
X001524Y001173D01*
X001427Y001213D01*
X001636Y001213D01*
X001712Y001289D01*
X001712Y002105D01*
X001667Y002150D01*
X001712Y002195D01*
X001712Y003011D01*
X001636Y003087D01*
X001427Y003087D01*
X001524Y003127D01*
X001672Y003275D01*
X001751Y003467D01*
X001751Y003675D01*
X001672Y003868D01*
X001524Y004015D01*
X003885Y004015D01*
X003804Y003933D01*
X003728Y003749D01*
X003728Y003551D01*
X003758Y003477D01*
X003152Y002872D01*
X002618Y002872D01*
X002642Y002896D01*
X002698Y003032D01*
X002698Y003178D01*
X002642Y003313D01*
X002538Y003417D01*
X002403Y003473D01*
X002257Y003473D01*
X002121Y003417D01*
X002018Y003313D01*
X001962Y003178D01*
X001962Y003032D01*
X002018Y002896D01*
X002043Y002871D01*
X001941Y002871D01*
X001865Y002794D01*
X001865Y001792D01*
X001855Y001775D01*
X001845Y001737D01*
X001845Y001638D01*
X001845Y001540D01*
X001855Y001502D01*
X001875Y001467D01*
X001903Y001439D01*
X001937Y001420D01*
X001976Y001409D01*
X002023Y001409D01*
X002018Y001404D01*
X001962Y001268D01*
X001962Y001122D01*
X002018Y000987D01*
X002121Y000883D01*
X002257Y000827D01*
X002403Y000827D01*
X002538Y000883D01*
X002642Y000987D01*
X002698Y001122D01*
X002698Y001268D01*
X002642Y001404D01*
X002618Y001428D01*
X002639Y001439D01*
X002666Y001467D01*
X002686Y001502D01*
X002696Y001540D01*
X002696Y001638D01*
X002271Y001638D01*
X002271Y001638D01*
X002696Y001638D01*
X002696Y001737D01*
X002686Y001775D01*
X002676Y001792D01*
X002676Y001940D01*
X003641Y001940D01*
X003758Y001823D01*
X003728Y001749D01*
X003728Y001551D01*
X003804Y001367D01*
X003944Y001226D01*
X004080Y001170D01*
X003838Y001170D01*
X003800Y001160D01*
X003765Y001140D01*
X003738Y001112D01*
X003718Y001078D01*
X003708Y001040D01*
X003708Y000700D01*
X004178Y000700D01*
X004178Y000600D01*
X003708Y000600D01*
X003708Y000285D01*
X001524Y000285D01*
X001672Y000432D01*
X001751Y000625D01*
X001718Y000544D02*
X003708Y000544D01*
X003708Y000446D02*
X001677Y000446D01*
X001586Y000347D02*
X003708Y000347D01*
X003708Y000741D02*
X001751Y000741D01*
X001749Y000840D02*
X002227Y000840D01*
X002067Y000938D02*
X001708Y000938D01*
X001660Y001037D02*
X001997Y001037D01*
X001962Y001135D02*
X001562Y001135D01*
X001656Y001234D02*
X001962Y001234D01*
X001988Y001332D02*
X001712Y001332D01*
X001712Y001431D02*
X001919Y001431D01*
X001848Y001529D02*
X001712Y001529D01*
X001712Y001628D02*
X001845Y001628D01*
X001845Y001638D02*
X002271Y001638D01*
X002271Y001638D01*
X001845Y001638D01*
X001845Y001726D02*
X001712Y001726D01*
X001712Y001825D02*
X001865Y001825D01*
X001865Y001923D02*
X001712Y001923D01*
X001712Y002022D02*
X001865Y002022D01*
X001865Y002120D02*
X001697Y002120D01*
X001712Y002219D02*
X001865Y002219D01*
X001865Y002317D02*
X001712Y002317D01*
X001712Y002416D02*
X001865Y002416D01*
X001865Y002514D02*
X001712Y002514D01*
X001712Y002613D02*
X001865Y002613D01*
X001865Y002711D02*
X001712Y002711D01*
X001712Y002810D02*
X001880Y002810D01*
X002013Y002908D02*
X001712Y002908D01*
X001712Y003007D02*
X001972Y003007D01*
X001962Y003105D02*
X001470Y003105D01*
X001600Y003204D02*
X001972Y003204D01*
X002013Y003302D02*
X001683Y003302D01*
X001724Y003401D02*
X002105Y003401D01*
X001751Y003499D02*
X003749Y003499D01*
X003728Y003598D02*
X001751Y003598D01*
X001743Y003696D02*
X003728Y003696D01*
X003746Y003795D02*
X001702Y003795D01*
X001646Y003893D02*
X003787Y003893D01*
X003862Y003992D02*
X001548Y003992D01*
X002555Y003401D02*
X003681Y003401D01*
X003583Y003302D02*
X002647Y003302D01*
X002687Y003204D02*
X003484Y003204D01*
X003386Y003105D02*
X002698Y003105D01*
X002688Y003007D02*
X003287Y003007D01*
X003189Y002908D02*
X002647Y002908D01*
X002676Y001923D02*
X003658Y001923D01*
X003756Y001825D02*
X002676Y001825D01*
X002696Y001726D02*
X003728Y001726D01*
X003728Y001628D02*
X002696Y001628D01*
X002694Y001529D02*
X003736Y001529D01*
X003777Y001431D02*
X002623Y001431D01*
X002672Y001332D02*
X003838Y001332D01*
X003937Y001234D02*
X002698Y001234D01*
X002698Y001135D02*
X003760Y001135D01*
X003708Y001037D02*
X002663Y001037D01*
X002593Y000938D02*
X003708Y000938D01*
X003708Y000840D02*
X002433Y000840D01*
M02*
