G75*
%MOIN*%
%OFA0B0*%
%FSLAX24Y24*%
%IPPOS*%
%LPD*%
%AMOC8*
5,1,8,0,0,1.08239X$1,22.5*
%
%ADD10C,0.0050*%
%ADD11C,0.0020*%
%ADD12R,0.0337X0.0000*%
%ADD13R,0.0337X0.0000*%
%ADD14R,0.0344X0.0001*%
%ADD15R,0.0348X0.0000*%
%ADD16R,0.0347X0.0000*%
%ADD17R,0.0350X0.0000*%
%ADD18R,0.0350X0.0000*%
%ADD19R,0.0352X0.0001*%
%ADD20R,0.0355X0.0000*%
%ADD21R,0.0354X0.0000*%
%ADD22R,0.0356X0.0001*%
%ADD23R,0.0359X0.0000*%
%ADD24R,0.0360X0.0000*%
%ADD25R,0.0361X0.0001*%
%ADD26R,0.0363X0.0000*%
%ADD27R,0.0362X0.0000*%
%ADD28R,0.0365X0.0001*%
%ADD29R,0.0364X0.0001*%
%ADD30R,0.0365X0.0000*%
%ADD31R,0.0366X0.0000*%
%ADD32R,0.0366X0.0000*%
%ADD33R,0.0367X0.0001*%
%ADD34R,0.0369X0.0000*%
%ADD35R,0.0370X0.0001*%
%ADD36R,0.0369X0.0001*%
%ADD37R,0.0370X0.0000*%
%ADD38R,0.0371X0.0000*%
%ADD39R,0.0371X0.0000*%
%ADD40R,0.0372X0.0001*%
%ADD41R,0.0372X0.0001*%
%ADD42R,0.0373X0.0000*%
%ADD43R,0.0373X0.0000*%
%ADD44R,0.0374X0.0001*%
%ADD45R,0.0374X0.0001*%
%ADD46R,0.0375X0.0000*%
%ADD47R,0.0374X0.0000*%
%ADD48R,0.0375X0.0000*%
%ADD49R,0.0375X0.0000*%
%ADD50R,0.0375X0.0001*%
%ADD51R,0.0376X0.0001*%
%ADD52R,0.0376X0.0000*%
%ADD53R,0.0377X0.0001*%
%ADD54R,0.0376X0.0001*%
%ADD55R,0.0377X0.0000*%
%ADD56R,0.0378X0.0000*%
%ADD57R,0.0378X0.0000*%
%ADD58R,0.0379X0.0001*%
%ADD59R,0.0379X0.0000*%
%ADD60R,0.0379X0.0000*%
%ADD61R,0.0380X0.0001*%
%ADD62R,0.0379X0.0001*%
%ADD63R,0.0380X0.0000*%
%ADD64R,0.0379X0.0000*%
%ADD65R,0.0380X0.0000*%
%ADD66R,0.0380X0.0000*%
%ADD67R,0.0380X0.0001*%
%ADD68R,0.0381X0.0001*%
%ADD69R,0.0381X0.0000*%
%ADD70R,0.0381X0.0001*%
%ADD71R,0.0381X0.0001*%
%ADD72R,0.0381X0.0000*%
%ADD73R,0.0382X0.0001*%
%ADD74R,0.0381X0.0001*%
%ADD75R,0.0382X0.0000*%
%ADD76R,0.0382X0.0000*%
%ADD77R,0.0382X0.0001*%
%ADD78R,0.0382X0.0000*%
%ADD79R,0.0383X0.0000*%
%ADD80R,0.0383X0.0001*%
%ADD81R,0.0383X0.0001*%
%ADD82R,0.0383X0.0000*%
%ADD83R,0.0382X0.0001*%
%ADD84R,0.0379X0.0001*%
%ADD85R,0.0381X0.0000*%
%ADD86R,0.0378X0.0001*%
%ADD87R,0.0377X0.0000*%
%ADD88R,0.0376X0.0000*%
%ADD89R,0.0374X0.0000*%
%ADD90R,0.0377X0.0001*%
%ADD91R,0.0372X0.0000*%
%ADD92R,0.0371X0.0001*%
%ADD93R,0.0376X0.0001*%
%ADD94R,0.0371X0.0000*%
%ADD95R,0.0376X0.0000*%
%ADD96R,0.0370X0.0000*%
%ADD97R,0.0369X0.0001*%
%ADD98R,0.0374X0.0001*%
%ADD99R,0.0368X0.0000*%
%ADD100R,0.0374X0.0000*%
%ADD101R,0.0367X0.0001*%
%ADD102R,0.0373X0.0001*%
%ADD103R,0.0366X0.0000*%
%ADD104R,0.0372X0.0000*%
%ADD105R,0.0365X0.0000*%
%ADD106R,0.0371X0.0000*%
%ADD107R,0.0364X0.0001*%
%ADD108R,0.0371X0.0001*%
%ADD109R,0.0362X0.0000*%
%ADD110R,0.0369X0.0000*%
%ADD111R,0.0360X0.0001*%
%ADD112R,0.0369X0.0001*%
%ADD113R,0.0359X0.0000*%
%ADD114R,0.0367X0.0000*%
%ADD115R,0.0357X0.0000*%
%ADD116R,0.0355X0.0001*%
%ADD117R,0.0365X0.0001*%
%ADD118R,0.0354X0.0000*%
%ADD119R,0.0364X0.0000*%
%ADD120R,0.0351X0.0001*%
%ADD121R,0.0363X0.0001*%
%ADD122R,0.0348X0.0000*%
%ADD123R,0.0361X0.0000*%
%ADD124R,0.0345X0.0000*%
%ADD125R,0.0340X0.0001*%
%ADD126R,0.0359X0.0001*%
%ADD127R,0.0258X0.0000*%
%ADD128R,0.0356X0.0000*%
%ADD129R,0.0257X0.0001*%
%ADD130R,0.0354X0.0001*%
%ADD131R,0.0257X0.0000*%
%ADD132R,0.0352X0.0000*%
%ADD133R,0.0347X0.0001*%
%ADD134R,0.0257X0.0000*%
%ADD135R,0.0344X0.0000*%
%ADD136R,0.0257X0.0001*%
%ADD137R,0.0338X0.0001*%
%ADD138R,0.0239X0.0000*%
%ADD139R,0.0256X0.0000*%
%ADD140R,0.0256X0.0001*%
%ADD141R,0.0239X0.0001*%
%ADD142R,0.0239X0.0001*%
%ADD143R,0.0256X0.0000*%
%ADD144R,0.0239X0.0000*%
%ADD145R,0.0256X0.0001*%
%ADD146R,0.0255X0.0000*%
%ADD147R,0.0238X0.0000*%
%ADD148R,0.0255X0.0001*%
%ADD149R,0.0238X0.0001*%
%ADD150R,0.0255X0.0000*%
%ADD151R,0.0255X0.0001*%
%ADD152R,0.0238X0.0001*%
%ADD153R,0.0238X0.0000*%
%ADD154R,0.0255X0.0000*%
%ADD155R,0.0238X0.0000*%
%ADD156R,0.0255X0.0001*%
%ADD157R,0.0238X0.0001*%
%ADD158R,0.0254X0.0000*%
%ADD159R,0.0254X0.0001*%
%ADD160R,0.0237X0.0000*%
%ADD161R,0.0254X0.0001*%
%ADD162R,0.0237X0.0001*%
%ADD163R,0.0254X0.0000*%
%ADD164R,0.0253X0.0000*%
%ADD165R,0.0236X0.0000*%
%ADD166R,0.0253X0.0001*%
%ADD167R,0.0236X0.0001*%
%ADD168R,0.0253X0.0000*%
%ADD169R,0.0253X0.0001*%
%ADD170R,0.0236X0.0001*%
%ADD171R,0.0236X0.0000*%
%ADD172R,0.0252X0.0001*%
%ADD173R,0.0252X0.0000*%
%ADD174R,0.0235X0.0000*%
%ADD175R,0.0235X0.0001*%
%ADD176R,0.0251X0.0000*%
%ADD177R,0.0251X0.0001*%
%ADD178R,0.0235X0.0001*%
%ADD179R,0.0235X0.0000*%
%ADD180R,0.0251X0.0001*%
%ADD181R,0.0251X0.0000*%
%ADD182R,0.0234X0.0000*%
%ADD183R,0.0250X0.0001*%
%ADD184R,0.0234X0.0001*%
%ADD185R,0.0250X0.0000*%
%ADD186R,0.0250X0.0000*%
%ADD187R,0.0234X0.0000*%
%ADD188R,0.0250X0.0001*%
%ADD189R,0.0234X0.0001*%
%ADD190R,0.0250X0.0001*%
%ADD191R,0.0250X0.0000*%
%ADD192R,0.0233X0.0000*%
%ADD193R,0.0249X0.0001*%
%ADD194R,0.0233X0.0001*%
%ADD195R,0.0249X0.0000*%
%ADD196R,0.0233X0.0001*%
%ADD197R,0.0233X0.0000*%
%ADD198R,0.0249X0.0000*%
%ADD199R,0.0249X0.0001*%
%ADD200R,0.0232X0.0000*%
%ADD201R,0.0248X0.0001*%
%ADD202R,0.0232X0.0001*%
%ADD203R,0.0248X0.0000*%
%ADD204R,0.0248X0.0001*%
%ADD205R,0.0232X0.0001*%
%ADD206R,0.0248X0.0000*%
%ADD207R,0.0232X0.0000*%
%ADD208R,0.0247X0.0000*%
%ADD209R,0.0231X0.0000*%
%ADD210R,0.0247X0.0001*%
%ADD211R,0.0231X0.0001*%
%ADD212R,0.0246X0.0001*%
%ADD213R,0.0246X0.0000*%
%ADD214R,0.0231X0.0000*%
%ADD215R,0.0231X0.0001*%
%ADD216R,0.0246X0.0000*%
%ADD217R,0.0246X0.0001*%
%ADD218R,0.0230X0.0000*%
%ADD219R,0.0245X0.0000*%
%ADD220R,0.0245X0.0001*%
%ADD221R,0.0230X0.0001*%
%ADD222R,0.0245X0.0001*%
%ADD223R,0.0230X0.0001*%
%ADD224R,0.0245X0.0000*%
%ADD225R,0.0230X0.0000*%
%ADD226R,0.0245X0.0000*%
%ADD227R,0.0229X0.0000*%
%ADD228R,0.0245X0.0001*%
%ADD229R,0.0229X0.0001*%
%ADD230R,0.0244X0.0000*%
%ADD231R,0.0244X0.0001*%
%ADD232R,0.0229X0.0001*%
%ADD233R,0.0229X0.0000*%
%ADD234R,0.0244X0.0000*%
%ADD235R,0.0228X0.0000*%
%ADD236R,0.0244X0.0001*%
%ADD237R,0.0228X0.0001*%
%ADD238R,0.0243X0.0000*%
%ADD239R,0.0243X0.0001*%
%ADD240R,0.0243X0.0000*%
%ADD241R,0.0228X0.0000*%
%ADD242R,0.0243X0.0001*%
%ADD243R,0.0228X0.0001*%
%ADD244R,0.0242X0.0000*%
%ADD245R,0.0227X0.0000*%
%ADD246R,0.0242X0.0001*%
%ADD247R,0.0227X0.0001*%
%ADD248R,0.0241X0.0000*%
%ADD249R,0.0241X0.0001*%
%ADD250R,0.0227X0.0001*%
%ADD251R,0.0227X0.0000*%
%ADD252R,0.0241X0.0001*%
%ADD253R,0.0241X0.0000*%
%ADD254R,0.0226X0.0000*%
%ADD255R,0.0226X0.0001*%
%ADD256R,0.0240X0.0000*%
%ADD257R,0.0240X0.0001*%
%ADD258R,0.0226X0.0001*%
%ADD259R,0.0240X0.0000*%
%ADD260R,0.0226X0.0000*%
%ADD261R,0.0240X0.0001*%
%ADD262R,0.0225X0.0000*%
%ADD263R,0.0240X0.0001*%
%ADD264R,0.0225X0.0001*%
%ADD265R,0.0240X0.0000*%
%ADD266R,0.0225X0.0000*%
%ADD267R,0.0225X0.0001*%
%ADD268R,0.0239X0.0001*%
%ADD269R,0.0239X0.0000*%
%ADD270R,0.0224X0.0000*%
%ADD271R,0.0224X0.0001*%
%ADD272R,0.0224X0.0001*%
%ADD273R,0.0224X0.0000*%
%ADD274R,0.0223X0.0000*%
%ADD275R,0.0237X0.0001*%
%ADD276R,0.0223X0.0001*%
%ADD277R,0.0237X0.0000*%
%ADD278R,0.0223X0.0001*%
%ADD279R,0.0223X0.0000*%
%ADD280R,0.0236X0.0000*%
%ADD281R,0.0222X0.0000*%
%ADD282R,0.0236X0.0001*%
%ADD283R,0.0222X0.0001*%
%ADD284R,0.0222X0.0000*%
%ADD285R,0.0222X0.0001*%
%ADD286R,0.0221X0.0000*%
%ADD287R,0.0235X0.0000*%
%ADD288R,0.0235X0.0001*%
%ADD289R,0.0221X0.0001*%
%ADD290R,0.0221X0.0001*%
%ADD291R,0.0221X0.0000*%
%ADD292R,0.0234X0.0000*%
%ADD293R,0.0220X0.0000*%
%ADD294R,0.0234X0.0001*%
%ADD295R,0.0220X0.0001*%
%ADD296R,0.0220X0.0001*%
%ADD297R,0.0220X0.0000*%
%ADD298R,0.0219X0.0000*%
%ADD299R,0.0219X0.0001*%
%ADD300R,0.0232X0.0000*%
%ADD301R,0.0232X0.0001*%
%ADD302R,0.0219X0.0000*%
%ADD303R,0.0219X0.0001*%
%ADD304R,0.0231X0.0000*%
%ADD305R,0.0218X0.0000*%
%ADD306R,0.0231X0.0001*%
%ADD307R,0.0218X0.0001*%
%ADD308R,0.0218X0.0001*%
%ADD309R,0.0218X0.0000*%
%ADD310R,0.0217X0.0000*%
%ADD311R,0.0217X0.0001*%
%ADD312R,0.0230X0.0000*%
%ADD313R,0.0230X0.0001*%
%ADD314R,0.0217X0.0001*%
%ADD315R,0.0217X0.0000*%
%ADD316R,0.0216X0.0000*%
%ADD317R,0.0229X0.0001*%
%ADD318R,0.0216X0.0001*%
%ADD319R,0.0229X0.0000*%
%ADD320R,0.0216X0.0000*%
%ADD321R,0.0216X0.0001*%
%ADD322R,0.0215X0.0000*%
%ADD323R,0.0227X0.0001*%
%ADD324R,0.0215X0.0001*%
%ADD325R,0.0227X0.0000*%
%ADD326R,0.0215X0.0001*%
%ADD327R,0.0215X0.0000*%
%ADD328R,0.0214X0.0000*%
%ADD329R,0.0226X0.0001*%
%ADD330R,0.0214X0.0001*%
%ADD331R,0.0226X0.0000*%
%ADD332R,0.0214X0.0001*%
%ADD333R,0.0214X0.0000*%
%ADD334R,0.0213X0.0000*%
%ADD335R,0.0213X0.0001*%
%ADD336R,0.0225X0.0001*%
%ADD337R,0.0225X0.0000*%
%ADD338R,0.0213X0.0000*%
%ADD339R,0.0213X0.0001*%
%ADD340R,0.0213X0.0000*%
%ADD341R,0.0224X0.0000*%
%ADD342R,0.0224X0.0001*%
%ADD343R,0.0213X0.0001*%
%ADD344R,0.0212X0.0001*%
%ADD345R,0.0212X0.0000*%
%ADD346R,0.0211X0.0000*%
%ADD347R,0.0211X0.0001*%
%ADD348R,0.0222X0.0000*%
%ADD349R,0.0222X0.0001*%
%ADD350R,0.0211X0.0001*%
%ADD351R,0.0211X0.0000*%
%ADD352R,0.0210X0.0000*%
%ADD353R,0.0210X0.0001*%
%ADD354R,0.0221X0.0000*%
%ADD355R,0.0221X0.0001*%
%ADD356R,0.0210X0.0000*%
%ADD357R,0.0210X0.0001*%
%ADD358R,0.0209X0.0000*%
%ADD359R,0.0209X0.0001*%
%ADD360R,0.0220X0.0000*%
%ADD361R,0.0220X0.0001*%
%ADD362R,0.0209X0.0001*%
%ADD363R,0.0209X0.0000*%
%ADD364R,0.0208X0.0000*%
%ADD365R,0.0208X0.0001*%
%ADD366R,0.0219X0.0000*%
%ADD367R,0.0219X0.0001*%
%ADD368R,0.0208X0.0001*%
%ADD369R,0.0208X0.0000*%
%ADD370R,0.0208X0.0000*%
%ADD371R,0.0208X0.0001*%
%ADD372R,0.0217X0.0000*%
%ADD373R,0.0207X0.0000*%
%ADD374R,0.0217X0.0001*%
%ADD375R,0.0207X0.0001*%
%ADD376R,0.0206X0.0000*%
%ADD377R,0.0216X0.0001*%
%ADD378R,0.0206X0.0001*%
%ADD379R,0.0216X0.0000*%
%ADD380R,0.0206X0.0001*%
%ADD381R,0.0206X0.0000*%
%ADD382R,0.0205X0.0000*%
%ADD383R,0.0205X0.0001*%
%ADD384R,0.0215X0.0001*%
%ADD385R,0.0205X0.0001*%
%ADD386R,0.0215X0.0000*%
%ADD387R,0.0205X0.0000*%
%ADD388R,0.0204X0.0000*%
%ADD389R,0.0204X0.0001*%
%ADD390R,0.0214X0.0001*%
%ADD391R,0.0214X0.0000*%
%ADD392R,0.0204X0.0000*%
%ADD393R,0.0204X0.0001*%
%ADD394R,0.0203X0.0000*%
%ADD395R,0.0203X0.0001*%
%ADD396R,0.0212X0.0001*%
%ADD397R,0.0203X0.0001*%
%ADD398R,0.0212X0.0000*%
%ADD399R,0.0203X0.0000*%
%ADD400R,0.0203X0.0000*%
%ADD401R,0.0203X0.0001*%
%ADD402R,0.0211X0.0000*%
%ADD403R,0.0211X0.0001*%
%ADD404R,0.0202X0.0001*%
%ADD405R,0.0202X0.0000*%
%ADD406R,0.0201X0.0000*%
%ADD407R,0.0201X0.0001*%
%ADD408R,0.0210X0.0000*%
%ADD409R,0.0201X0.0000*%
%ADD410R,0.0210X0.0001*%
%ADD411R,0.0201X0.0001*%
%ADD412R,0.0200X0.0000*%
%ADD413R,0.0200X0.0001*%
%ADD414R,0.0209X0.0000*%
%ADD415R,0.0209X0.0001*%
%ADD416R,0.0200X0.0001*%
%ADD417R,0.0200X0.0000*%
%ADD418R,0.0199X0.0000*%
%ADD419R,0.0199X0.0001*%
%ADD420R,0.0199X0.0001*%
%ADD421R,0.0207X0.0000*%
%ADD422R,0.0199X0.0000*%
%ADD423R,0.0207X0.0001*%
%ADD424R,0.0198X0.0000*%
%ADD425R,0.0198X0.0001*%
%ADD426R,0.0206X0.0000*%
%ADD427R,0.0198X0.0000*%
%ADD428R,0.0206X0.0001*%
%ADD429R,0.0198X0.0001*%
%ADD430R,0.0198X0.0000*%
%ADD431R,0.0198X0.0001*%
%ADD432R,0.0197X0.0001*%
%ADD433R,0.0205X0.0000*%
%ADD434R,0.0197X0.0000*%
%ADD435R,0.0205X0.0001*%
%ADD436R,0.0196X0.0000*%
%ADD437R,0.0196X0.0001*%
%ADD438R,0.0204X0.0001*%
%ADD439R,0.0196X0.0001*%
%ADD440R,0.0204X0.0000*%
%ADD441R,0.0196X0.0000*%
%ADD442R,0.0195X0.0000*%
%ADD443R,0.0195X0.0001*%
%ADD444R,0.0195X0.0000*%
%ADD445R,0.0202X0.0001*%
%ADD446R,0.0195X0.0001*%
%ADD447R,0.0202X0.0000*%
%ADD448R,0.0194X0.0000*%
%ADD449R,0.0194X0.0001*%
%ADD450R,0.0201X0.0001*%
%ADD451R,0.0194X0.0001*%
%ADD452R,0.0201X0.0000*%
%ADD453R,0.0194X0.0000*%
%ADD454R,0.0193X0.0000*%
%ADD455R,0.0193X0.0001*%
%ADD456R,0.0193X0.0001*%
%ADD457R,0.0193X0.0000*%
%ADD458R,0.0200X0.0001*%
%ADD459R,0.0200X0.0000*%
%ADD460R,0.0192X0.0000*%
%ADD461R,0.0192X0.0001*%
%ADD462R,0.0199X0.0000*%
%ADD463R,0.0192X0.0000*%
%ADD464R,0.0199X0.0001*%
%ADD465R,0.0192X0.0001*%
%ADD466R,0.0191X0.0000*%
%ADD467R,0.0191X0.0001*%
%ADD468R,0.0191X0.0001*%
%ADD469R,0.0191X0.0000*%
%ADD470R,0.0197X0.0000*%
%ADD471R,0.0197X0.0001*%
%ADD472R,0.0190X0.0000*%
%ADD473R,0.0190X0.0001*%
%ADD474R,0.0190X0.0001*%
%ADD475R,0.0196X0.0000*%
%ADD476R,0.0190X0.0000*%
%ADD477R,0.0196X0.0001*%
%ADD478R,0.0189X0.0000*%
%ADD479R,0.0189X0.0001*%
%ADD480R,0.0189X0.0000*%
%ADD481R,0.0189X0.0001*%
%ADD482R,0.0195X0.0000*%
%ADD483R,0.0195X0.0001*%
%ADD484R,0.0188X0.0000*%
%ADD485R,0.0188X0.0001*%
%ADD486R,0.0188X0.0001*%
%ADD487R,0.0194X0.0000*%
%ADD488R,0.0188X0.0000*%
%ADD489R,0.0194X0.0001*%
%ADD490R,0.0187X0.0000*%
%ADD491R,0.0187X0.0001*%
%ADD492R,0.0187X0.0001*%
%ADD493R,0.0187X0.0000*%
%ADD494R,0.0192X0.0000*%
%ADD495R,0.0186X0.0000*%
%ADD496R,0.0192X0.0001*%
%ADD497R,0.0186X0.0001*%
%ADD498R,0.0186X0.0000*%
%ADD499R,0.0191X0.0001*%
%ADD500R,0.0186X0.0001*%
%ADD501R,0.0191X0.0000*%
%ADD502R,0.0185X0.0000*%
%ADD503R,0.0185X0.0001*%
%ADD504R,0.0185X0.0001*%
%ADD505R,0.0185X0.0000*%
%ADD506R,0.0190X0.0001*%
%ADD507R,0.0190X0.0000*%
%ADD508R,0.0184X0.0000*%
%ADD509R,0.0184X0.0001*%
%ADD510R,0.0184X0.0001*%
%ADD511R,0.0184X0.0000*%
%ADD512R,0.0189X0.0001*%
%ADD513R,0.0189X0.0000*%
%ADD514R,0.0183X0.0000*%
%ADD515R,0.0183X0.0001*%
%ADD516R,0.0183X0.0000*%
%ADD517R,0.0183X0.0001*%
%ADD518R,0.0187X0.0001*%
%ADD519R,0.0187X0.0000*%
%ADD520R,0.0182X0.0000*%
%ADD521R,0.0182X0.0001*%
%ADD522R,0.0182X0.0001*%
%ADD523R,0.0182X0.0000*%
%ADD524R,0.0186X0.0000*%
%ADD525R,0.0186X0.0001*%
%ADD526R,0.0181X0.0000*%
%ADD527R,0.0181X0.0001*%
%ADD528R,0.0181X0.0001*%
%ADD529R,0.0181X0.0000*%
%ADD530R,0.0185X0.0000*%
%ADD531R,0.0180X0.0000*%
%ADD532R,0.0185X0.0001*%
%ADD533R,0.0180X0.0001*%
%ADD534R,0.0180X0.0000*%
%ADD535R,0.0180X0.0001*%
%ADD536R,0.0184X0.0000*%
%ADD537R,0.0184X0.0001*%
%ADD538R,0.0179X0.0000*%
%ADD539R,0.0179X0.0001*%
%ADD540R,0.0179X0.0001*%
%ADD541R,0.0179X0.0000*%
%ADD542R,0.0182X0.0000*%
%ADD543R,0.0178X0.0000*%
%ADD544R,0.0182X0.0001*%
%ADD545R,0.0178X0.0001*%
%ADD546R,0.0178X0.0001*%
%ADD547R,0.0178X0.0000*%
%ADD548R,0.0181X0.0000*%
%ADD549R,0.0177X0.0000*%
%ADD550R,0.0181X0.0001*%
%ADD551R,0.0177X0.0001*%
%ADD552R,0.0177X0.0000*%
%ADD553R,0.0177X0.0001*%
%ADD554R,0.0180X0.0000*%
%ADD555R,0.0176X0.0000*%
%ADD556R,0.0180X0.0001*%
%ADD557R,0.0176X0.0001*%
%ADD558R,0.0176X0.0001*%
%ADD559R,0.0176X0.0000*%
%ADD560R,0.0179X0.0001*%
%ADD561R,0.0179X0.0000*%
%ADD562R,0.0175X0.0000*%
%ADD563R,0.0175X0.0001*%
%ADD564R,0.0175X0.0001*%
%ADD565R,0.0175X0.0000*%
%ADD566R,0.0174X0.0000*%
%ADD567R,0.0177X0.0001*%
%ADD568R,0.0174X0.0001*%
%ADD569R,0.0177X0.0000*%
%ADD570R,0.0174X0.0000*%
%ADD571R,0.0174X0.0001*%
%ADD572R,0.0176X0.0001*%
%ADD573R,0.0176X0.0000*%
%ADD574R,0.0173X0.0000*%
%ADD575R,0.0173X0.0001*%
%ADD576R,0.0173X0.0001*%
%ADD577R,0.0173X0.0000*%
%ADD578R,0.0173X0.0000*%
%ADD579R,0.0175X0.0001*%
%ADD580R,0.0173X0.0001*%
%ADD581R,0.0175X0.0000*%
%ADD582R,0.0172X0.0001*%
%ADD583R,0.0172X0.0000*%
%ADD584R,0.0174X0.0000*%
%ADD585R,0.0171X0.0000*%
%ADD586R,0.0174X0.0001*%
%ADD587R,0.0171X0.0001*%
%ADD588R,0.0171X0.0000*%
%ADD589R,0.0171X0.0001*%
%ADD590R,0.0170X0.0000*%
%ADD591R,0.0172X0.0000*%
%ADD592R,0.0172X0.0001*%
%ADD593R,0.0170X0.0001*%
%ADD594R,0.0170X0.0001*%
%ADD595R,0.0170X0.0000*%
%ADD596R,0.0171X0.0000*%
%ADD597R,0.0169X0.0000*%
%ADD598R,0.0171X0.0001*%
%ADD599R,0.0169X0.0001*%
%ADD600R,0.0169X0.0001*%
%ADD601R,0.0169X0.0000*%
%ADD602R,0.0168X0.0000*%
%ADD603R,0.0168X0.0001*%
%ADD604R,0.0170X0.0000*%
%ADD605R,0.0170X0.0001*%
%ADD606R,0.0168X0.0000*%
%ADD607R,0.0168X0.0001*%
%ADD608R,0.0169X0.0000*%
%ADD609R,0.0168X0.0000*%
%ADD610R,0.0169X0.0001*%
%ADD611R,0.0168X0.0001*%
%ADD612R,0.0167X0.0001*%
%ADD613R,0.0167X0.0000*%
%ADD614R,0.0166X0.0000*%
%ADD615R,0.0166X0.0001*%
%ADD616R,0.0167X0.0000*%
%ADD617R,0.0167X0.0001*%
%ADD618R,0.0166X0.0001*%
%ADD619R,0.0166X0.0000*%
%ADD620R,0.0165X0.0000*%
%ADD621R,0.0166X0.0001*%
%ADD622R,0.0165X0.0001*%
%ADD623R,0.0166X0.0000*%
%ADD624R,0.0165X0.0000*%
%ADD625R,0.0165X0.0001*%
%ADD626R,0.0164X0.0000*%
%ADD627R,0.0165X0.0001*%
%ADD628R,0.0164X0.0001*%
%ADD629R,0.0165X0.0000*%
%ADD630R,0.0164X0.0001*%
%ADD631R,0.0164X0.0000*%
%ADD632R,0.0163X0.0000*%
%ADD633R,0.0164X0.0001*%
%ADD634R,0.0163X0.0001*%
%ADD635R,0.0164X0.0000*%
%ADD636R,0.0163X0.0001*%
%ADD637R,0.0163X0.0000*%
%ADD638R,0.0163X0.0000*%
%ADD639R,0.0163X0.0001*%
%ADD640R,0.0162X0.0001*%
%ADD641R,0.0162X0.0000*%
%ADD642R,0.0162X0.0000*%
%ADD643R,0.0161X0.0001*%
%ADD644R,0.0162X0.0001*%
%ADD645R,0.0161X0.0000*%
%ADD646R,0.0161X0.0000*%
%ADD647R,0.0161X0.0001*%
%ADD648R,0.0160X0.0001*%
%ADD649R,0.0161X0.0001*%
%ADD650R,0.0160X0.0000*%
%ADD651R,0.0161X0.0000*%
%ADD652R,0.0160X0.0000*%
%ADD653R,0.0160X0.0001*%
%ADD654R,0.0160X0.0000*%
%ADD655R,0.0160X0.0001*%
%ADD656R,0.0159X0.0001*%
%ADD657R,0.0159X0.0000*%
%ADD658R,0.0159X0.0000*%
%ADD659R,0.0159X0.0001*%
%ADD660R,0.0159X0.0000*%
%ADD661R,0.0159X0.0001*%
%ADD662R,0.0158X0.0000*%
%ADD663R,0.0158X0.0001*%
%ADD664R,0.0158X0.0000*%
%ADD665R,0.0158X0.0000*%
%ADD666R,0.0158X0.0001*%
%ADD667R,0.0158X0.0001*%
%ADD668R,0.0157X0.0000*%
%ADD669R,0.0157X0.0001*%
%ADD670R,0.0156X0.0000*%
%ADD671R,0.0156X0.0001*%
%ADD672R,0.0156X0.0000*%
%ADD673R,0.0156X0.0001*%
%ADD674R,0.0157X0.0001*%
%ADD675R,0.0155X0.0000*%
%ADD676R,0.0157X0.0000*%
%ADD677R,0.0155X0.0001*%
%ADD678R,0.0155X0.0001*%
%ADD679R,0.0155X0.0000*%
%ADD680R,0.0155X0.0000*%
%ADD681R,0.0156X0.0000*%
%ADD682R,0.0155X0.0001*%
%ADD683R,0.0156X0.0001*%
%ADD684R,0.0154X0.0000*%
%ADD685R,0.0154X0.0001*%
%ADD686R,0.0154X0.0001*%
%ADD687R,0.0154X0.0000*%
%ADD688R,0.0153X0.0000*%
%ADD689R,0.0153X0.0001*%
%ADD690R,0.0154X0.0000*%
%ADD691R,0.0152X0.0001*%
%ADD692R,0.0154X0.0001*%
%ADD693R,0.0152X0.0000*%
%ADD694R,0.0152X0.0001*%
%ADD695R,0.0152X0.0000*%
%ADD696R,0.0151X0.0000*%
%ADD697R,0.0153X0.0000*%
%ADD698R,0.0151X0.0001*%
%ADD699R,0.0153X0.0001*%
%ADD700R,0.0151X0.0001*%
%ADD701R,0.0151X0.0000*%
%ADD702R,0.0150X0.0001*%
%ADD703R,0.0150X0.0000*%
%ADD704R,0.0150X0.0000*%
%ADD705R,0.0150X0.0001*%
%ADD706R,0.0150X0.0001*%
%ADD707R,0.0152X0.0001*%
%ADD708R,0.0150X0.0000*%
%ADD709R,0.0152X0.0000*%
%ADD710R,0.0149X0.0000*%
%ADD711R,0.0149X0.0001*%
%ADD712R,0.0149X0.0000*%
%ADD713R,0.0149X0.0001*%
%ADD714R,0.0151X0.0001*%
%ADD715R,0.0151X0.0000*%
%ADD716R,0.0148X0.0001*%
%ADD717R,0.0148X0.0000*%
%ADD718R,0.0260X0.0000*%
%ADD719R,0.0259X0.0000*%
%ADD720R,0.0260X0.0001*%
%ADD721R,0.0259X0.0001*%
%ADD722R,0.0868X0.0000*%
%ADD723R,0.0868X0.0001*%
%ADD724R,0.0321X0.0000*%
%ADD725R,0.0305X0.0000*%
%ADD726R,0.0321X0.0001*%
%ADD727R,0.0305X0.0001*%
%ADD728R,0.0867X0.0000*%
%ADD729R,0.0867X0.0001*%
%ADD730R,0.0867X0.0000*%
%ADD731R,0.0867X0.0001*%
%ADD732R,0.0866X0.0000*%
%ADD733R,0.0866X0.0000*%
%ADD734R,0.0866X0.0001*%
%ADD735R,0.0866X0.0000*%
%ADD736R,0.0866X0.0001*%
%ADD737R,0.0865X0.0000*%
%ADD738R,0.0865X0.0001*%
%ADD739R,0.0864X0.0001*%
%ADD740R,0.0864X0.0000*%
%ADD741R,0.0864X0.0001*%
%ADD742R,0.0864X0.0000*%
%ADD743R,0.0864X0.0001*%
%ADD744R,0.0864X0.0000*%
%ADD745R,0.0863X0.0001*%
%ADD746R,0.0863X0.0000*%
%ADD747R,0.0862X0.0001*%
%ADD748R,0.0862X0.0000*%
%ADD749R,0.0862X0.0001*%
%ADD750R,0.0862X0.0000*%
%ADD751R,0.0861X0.0001*%
%ADD752R,0.0861X0.0000*%
%ADD753R,0.0861X0.0001*%
%ADD754R,0.0860X0.0001*%
%ADD755R,0.0860X0.0000*%
%ADD756R,0.0859X0.0000*%
%ADD757R,0.0859X0.0001*%
%ADD758R,0.0858X0.0000*%
%ADD759R,0.0858X0.0001*%
%ADD760R,0.0857X0.0001*%
%ADD761R,0.0857X0.0000*%
%ADD762R,0.0856X0.0000*%
%ADD763R,0.0856X0.0001*%
%ADD764R,0.0855X0.0000*%
%ADD765R,0.0855X0.0001*%
%ADD766R,0.0855X0.0000*%
%ADD767R,0.0855X0.0001*%
%ADD768R,0.0854X0.0000*%
%ADD769R,0.0854X0.0001*%
%ADD770R,0.0853X0.0000*%
%ADD771R,0.0853X0.0001*%
%ADD772R,0.0853X0.0000*%
%ADD773R,0.0853X0.0000*%
%ADD774R,0.0852X0.0001*%
%ADD775R,0.0852X0.0000*%
%ADD776R,0.0852X0.0001*%
%ADD777R,0.0851X0.0000*%
%ADD778R,0.0850X0.0001*%
%ADD779R,0.0850X0.0000*%
%ADD780R,0.0850X0.0001*%
%ADD781R,0.0849X0.0000*%
%ADD782R,0.0848X0.0001*%
%ADD783R,0.0848X0.0000*%
%ADD784R,0.0848X0.0001*%
%ADD785R,0.0848X0.0000*%
%ADD786R,0.0847X0.0000*%
%ADD787R,0.0847X0.0001*%
%ADD788R,0.0846X0.0000*%
%ADD789R,0.0846X0.0001*%
%ADD790R,0.0845X0.0000*%
%ADD791R,0.0845X0.0000*%
%ADD792R,0.0845X0.0001*%
%ADD793R,0.0843X0.0000*%
%ADD794R,0.0843X0.0001*%
%ADD795R,0.0841X0.0000*%
%ADD796R,0.0840X0.0000*%
%ADD797R,0.0839X0.0001*%
%ADD798R,0.0838X0.0000*%
%ADD799R,0.0837X0.0001*%
%ADD800R,0.0836X0.0000*%
%ADD801R,0.0835X0.0000*%
%ADD802R,0.0834X0.0001*%
%ADD803R,0.0833X0.0000*%
%ADD804R,0.0832X0.0001*%
%ADD805R,0.0831X0.0000*%
%ADD806R,0.0830X0.0000*%
%ADD807R,0.0829X0.0001*%
%ADD808R,0.0828X0.0000*%
%ADD809R,0.0827X0.0001*%
%ADD810R,0.0826X0.0000*%
%ADD811R,0.0825X0.0000*%
%ADD812R,0.0824X0.0001*%
%ADD813R,0.0823X0.0000*%
%ADD814R,0.0822X0.0001*%
%ADD815R,0.0821X0.0000*%
%ADD816R,0.0820X0.0000*%
%ADD817R,0.0819X0.0001*%
%ADD818R,0.0818X0.0000*%
%ADD819R,0.0817X0.0001*%
%ADD820R,0.0816X0.0000*%
%ADD821R,0.0815X0.0000*%
%ADD822R,0.0814X0.0001*%
%ADD823R,0.0813X0.0000*%
%ADD824R,0.0812X0.0001*%
%ADD825R,0.0811X0.0000*%
%ADD826R,0.0810X0.0000*%
%ADD827R,0.0808X0.0001*%
%ADD828R,0.0808X0.0000*%
%ADD829R,0.0807X0.0001*%
%ADD830R,0.0805X0.0000*%
%ADD831R,0.0805X0.0000*%
%ADD832R,0.0803X0.0001*%
%ADD833R,0.0803X0.0000*%
%ADD834R,0.0802X0.0001*%
%ADD835R,0.0800X0.0000*%
%ADD836R,0.0800X0.0000*%
%ADD837R,0.0798X0.0001*%
%ADD838R,0.0798X0.0000*%
%ADD839R,0.0797X0.0001*%
%ADD840R,0.0795X0.0000*%
%ADD841R,0.0795X0.0000*%
%ADD842R,0.0793X0.0001*%
%ADD843R,0.0793X0.0000*%
%ADD844R,0.0791X0.0001*%
%ADD845R,0.0790X0.0000*%
%ADD846R,0.0789X0.0000*%
%ADD847R,0.0788X0.0001*%
%ADD848R,0.0787X0.0000*%
%ADD849R,0.0786X0.0001*%
%ADD850R,0.0785X0.0000*%
%ADD851R,0.0784X0.0000*%
%ADD852R,0.0783X0.0001*%
%ADD853R,0.0782X0.0000*%
%ADD854R,0.0781X0.0001*%
%ADD855R,0.0780X0.0000*%
%ADD856R,0.0779X0.0000*%
%ADD857R,0.0778X0.0001*%
%ADD858R,0.0777X0.0000*%
%ADD859R,0.0776X0.0001*%
%ADD860R,0.0775X0.0000*%
%ADD861R,0.0774X0.0000*%
%ADD862R,0.0773X0.0001*%
%ADD863R,0.0772X0.0000*%
%ADD864R,0.0771X0.0001*%
%ADD865R,0.0770X0.0000*%
%ADD866R,0.0769X0.0000*%
%ADD867R,0.0768X0.0001*%
%ADD868R,0.0767X0.0000*%
%ADD869R,0.0766X0.0001*%
%ADD870R,0.0765X0.0000*%
%ADD871R,0.0764X0.0000*%
%ADD872R,0.0763X0.0001*%
%ADD873R,0.0762X0.0000*%
%ADD874R,0.0761X0.0001*%
%ADD875R,0.0760X0.0000*%
%ADD876R,0.0758X0.0000*%
%ADD877R,0.0757X0.0001*%
%ADD878R,0.0757X0.0000*%
%ADD879R,0.0755X0.0001*%
%ADD880R,0.0755X0.0000*%
%ADD881R,0.0753X0.0000*%
%ADD882R,0.0752X0.0001*%
%ADD883R,0.0752X0.0000*%
%ADD884R,0.0750X0.0001*%
%ADD885R,0.0750X0.0000*%
%ADD886R,0.0748X0.0000*%
%ADD887R,0.0747X0.0001*%
%ADD888R,0.0747X0.0000*%
%ADD889R,0.0745X0.0001*%
%ADD890R,0.0745X0.0000*%
%ADD891R,0.0743X0.0000*%
%ADD892R,0.0742X0.0001*%
%ADD893R,0.0741X0.0000*%
%ADD894R,0.0740X0.0001*%
%ADD895R,0.0739X0.0000*%
%ADD896R,0.0738X0.0000*%
%ADD897R,0.0737X0.0001*%
%ADD898R,0.0736X0.0000*%
%ADD899R,0.0735X0.0001*%
%ADD900R,0.0734X0.0000*%
%ADD901R,0.0733X0.0000*%
%ADD902R,0.0732X0.0001*%
%ADD903R,0.0731X0.0000*%
%ADD904R,0.0730X0.0001*%
%ADD905R,0.0729X0.0000*%
%ADD906R,0.0728X0.0000*%
%ADD907R,0.0727X0.0001*%
%ADD908R,0.0726X0.0000*%
%ADD909R,0.0725X0.0001*%
%ADD910R,0.0724X0.0000*%
%ADD911R,0.0723X0.0000*%
%ADD912R,0.0722X0.0001*%
%ADD913R,0.0721X0.0000*%
%ADD914R,0.0720X0.0001*%
%ADD915R,0.0719X0.0000*%
%ADD916R,0.0718X0.0000*%
%ADD917R,0.0717X0.0001*%
%ADD918R,0.0716X0.0000*%
%ADD919R,0.0715X0.0001*%
%ADD920R,0.0714X0.0000*%
%ADD921R,0.0713X0.0000*%
%ADD922R,0.0712X0.0001*%
%ADD923R,0.0711X0.0000*%
%ADD924R,0.0710X0.0001*%
%ADD925R,0.0709X0.0000*%
%ADD926R,0.0707X0.0000*%
%ADD927R,0.0707X0.0001*%
%ADD928R,0.0705X0.0000*%
%ADD929R,0.0705X0.0001*%
%ADD930R,0.0703X0.0000*%
%ADD931R,0.0703X0.0000*%
%ADD932R,0.0702X0.0001*%
%ADD933R,0.0700X0.0000*%
%ADD934R,0.0700X0.0001*%
%ADD935R,0.0698X0.0000*%
%ADD936R,0.0698X0.0000*%
%ADD937R,0.0697X0.0001*%
%ADD938R,0.0695X0.0000*%
%ADD939R,0.0695X0.0001*%
%ADD940R,0.0693X0.0000*%
%ADD941R,0.0692X0.0000*%
%ADD942R,0.0691X0.0001*%
%ADD943R,0.0690X0.0000*%
%ADD944R,0.0689X0.0001*%
%ADD945R,0.0688X0.0000*%
%ADD946R,0.0687X0.0000*%
%ADD947R,0.0686X0.0001*%
%ADD948R,0.0685X0.0000*%
%ADD949R,0.0684X0.0001*%
%ADD950R,0.0683X0.0000*%
%ADD951R,0.0682X0.0000*%
%ADD952R,0.0681X0.0001*%
%ADD953R,0.0680X0.0000*%
%ADD954R,0.0679X0.0001*%
%ADD955R,0.0678X0.0000*%
%ADD956R,0.0677X0.0000*%
%ADD957R,0.0676X0.0001*%
%ADD958R,0.0675X0.0000*%
%ADD959R,0.0674X0.0001*%
%ADD960R,0.0673X0.0000*%
%ADD961R,0.0672X0.0000*%
%ADD962R,0.0671X0.0001*%
%ADD963R,0.0670X0.0000*%
%ADD964R,0.0669X0.0001*%
%ADD965R,0.0668X0.0000*%
%ADD966R,0.0667X0.0000*%
%ADD967R,0.0666X0.0001*%
%ADD968R,0.0665X0.0000*%
%ADD969R,0.0664X0.0001*%
%ADD970R,0.0663X0.0000*%
%ADD971R,0.0662X0.0000*%
%ADD972R,0.0661X0.0001*%
%ADD973R,0.0660X0.0000*%
%ADD974R,0.0659X0.0001*%
%ADD975R,0.0658X0.0000*%
%ADD976R,0.0657X0.0000*%
%ADD977R,0.0655X0.0001*%
%ADD978R,0.0655X0.0000*%
%ADD979R,0.0653X0.0001*%
%ADD980R,0.0653X0.0000*%
%ADD981R,0.0652X0.0000*%
%ADD982R,0.0650X0.0001*%
%ADD983R,0.0650X0.0000*%
%ADD984R,0.0648X0.0001*%
%ADD985R,0.0648X0.0000*%
%ADD986R,0.0647X0.0000*%
%ADD987R,0.0645X0.0001*%
%ADD988R,0.0645X0.0000*%
%ADD989R,0.0643X0.0001*%
%ADD990R,0.0642X0.0000*%
%ADD991R,0.0641X0.0000*%
%ADD992R,0.0640X0.0001*%
%ADD993R,0.0639X0.0000*%
%ADD994R,0.0638X0.0001*%
%ADD995R,0.0637X0.0000*%
%ADD996R,0.0636X0.0000*%
%ADD997R,0.0635X0.0001*%
%ADD998R,0.0634X0.0000*%
%ADD999R,0.0633X0.0001*%
%ADD1000R,0.0632X0.0000*%
%ADD1001R,0.0631X0.0000*%
%ADD1002R,0.0630X0.0001*%
%ADD1003R,0.0629X0.0000*%
%ADD1004R,0.0628X0.0001*%
%ADD1005R,0.0627X0.0000*%
%ADD1006R,0.0626X0.0000*%
%ADD1007R,0.0625X0.0001*%
%ADD1008R,0.0624X0.0000*%
%ADD1009R,0.0623X0.0001*%
%ADD1010R,0.0622X0.0000*%
%ADD1011R,0.0621X0.0000*%
%ADD1012R,0.0620X0.0001*%
%ADD1013R,0.0619X0.0000*%
%ADD1014R,0.0618X0.0001*%
%ADD1015R,0.0617X0.0000*%
%ADD1016R,0.0616X0.0000*%
%ADD1017R,0.0615X0.0001*%
%ADD1018R,0.0614X0.0000*%
%ADD1019R,0.0613X0.0001*%
%ADD1020R,0.0612X0.0000*%
%ADD1021R,0.0611X0.0000*%
%ADD1022R,0.0610X0.0001*%
%ADD1023R,0.0609X0.0000*%
%ADD1024R,0.0607X0.0001*%
%ADD1025R,0.0607X0.0000*%
%ADD1026R,0.0605X0.0000*%
%ADD1027R,0.0605X0.0001*%
%ADD1028R,0.0603X0.0000*%
%ADD1029R,0.0602X0.0001*%
%ADD1030R,0.0602X0.0000*%
%ADD1031R,0.0600X0.0000*%
%ADD1032R,0.0600X0.0001*%
%ADD1033R,0.0598X0.0000*%
%ADD1034R,0.0597X0.0001*%
%ADD1035R,0.0597X0.0000*%
%ADD1036R,0.0595X0.0000*%
%ADD1037R,0.0595X0.0001*%
%ADD1038R,0.0593X0.0000*%
%ADD1039R,0.0592X0.0001*%
%ADD1040R,0.0591X0.0000*%
%ADD1041R,0.0590X0.0000*%
%ADD1042R,0.0589X0.0001*%
%ADD1043R,0.0588X0.0000*%
%ADD1044R,0.0587X0.0001*%
%ADD1045R,0.0586X0.0000*%
%ADD1046R,0.0585X0.0000*%
%ADD1047R,0.0584X0.0001*%
%ADD1048R,0.0583X0.0000*%
%ADD1049R,0.0582X0.0001*%
%ADD1050R,0.0581X0.0000*%
%ADD1051R,0.0580X0.0000*%
%ADD1052R,0.0579X0.0001*%
%ADD1053R,0.0578X0.0000*%
%ADD1054R,0.0577X0.0001*%
%ADD1055R,0.0576X0.0000*%
%ADD1056R,0.0575X0.0000*%
%ADD1057R,0.0574X0.0001*%
%ADD1058R,0.0573X0.0000*%
%ADD1059R,0.0571X0.0001*%
%ADD1060R,0.0568X0.0000*%
%ADD1061R,0.0565X0.0000*%
%ADD1062R,0.0563X0.0001*%
%ADD1063R,0.0560X0.0000*%
%ADD1064R,0.0557X0.0001*%
%ADD1065R,0.0554X0.0000*%
%ADD1066R,0.0551X0.0000*%
%ADD1067R,0.0548X0.0001*%
%ADD1068R,0.0545X0.0000*%
%ADD1069R,0.0542X0.0001*%
%ADD1070R,0.0537X0.0000*%
%ADD1071R,0.0533X0.0000*%
%ADD1072R,0.0530X0.0001*%
%ADD1073R,0.0526X0.0000*%
%ADD1074R,0.0522X0.0001*%
%ADD1075R,0.0518X0.0000*%
%ADD1076R,0.0513X0.0000*%
%ADD1077R,0.0508X0.0001*%
%ADD1078R,0.0503X0.0000*%
%ADD1079R,0.0496X0.0001*%
%ADD1080R,0.0489X0.0000*%
%ADD1081R,0.0477X0.0000*%
%ADD1082C,0.0000*%
D10*
X001369Y002753D02*
X001519Y002753D01*
X001594Y002828D01*
X001519Y002753D01*
X001369Y002753D01*
X001294Y002828D01*
X001294Y002903D01*
X001369Y002978D01*
X001519Y002978D01*
X001594Y003053D01*
X001594Y003128D01*
X001519Y003203D01*
X001369Y003203D01*
X001294Y003128D01*
X001369Y003203D01*
X001519Y003203D01*
X001594Y003128D01*
X001594Y003053D01*
X001519Y002978D01*
X001369Y002978D01*
X001294Y002903D01*
X001294Y002828D01*
X001369Y002753D01*
X001754Y002828D02*
X001754Y003203D01*
X001754Y002828D01*
X001829Y002753D01*
X001979Y002753D01*
X002054Y002828D01*
X002054Y003203D01*
X002054Y002828D01*
X001979Y002753D01*
X001829Y002753D01*
X001754Y002828D01*
X002214Y002828D02*
X002289Y002753D01*
X002515Y002753D01*
X002515Y003203D01*
X002289Y003203D01*
X002214Y003128D01*
X002214Y003053D01*
X002289Y002978D01*
X002515Y002978D01*
X002289Y002978D01*
X002214Y002903D01*
X002214Y002828D01*
X002289Y002753D01*
X002515Y002753D01*
X002515Y003203D01*
X002289Y003203D01*
X002214Y003128D01*
X002214Y003053D01*
X002289Y002978D01*
X002214Y002903D01*
X002214Y002828D01*
X002675Y002903D02*
X002675Y003203D01*
X002675Y002903D01*
X002825Y002753D01*
X002975Y002903D01*
X002975Y003203D01*
X002975Y002903D01*
X002825Y002753D01*
X002675Y002903D01*
X002575Y003753D02*
X002350Y003753D01*
X002275Y003828D01*
X002275Y004128D01*
X002350Y004203D01*
X002575Y004203D01*
X002575Y003753D01*
X002115Y003978D02*
X001814Y003978D01*
X002350Y004753D02*
X002275Y004828D01*
X002275Y005128D01*
X002350Y005203D01*
X002575Y005203D01*
X002575Y004753D01*
X002350Y004753D01*
X002115Y004978D02*
X001814Y004978D01*
X001964Y005128D02*
X001964Y004828D01*
X002014Y005753D02*
X002014Y006203D01*
X001854Y006203D02*
X001629Y006203D01*
X001554Y006128D01*
X001554Y005828D01*
X001629Y005753D01*
X001854Y005753D01*
X001854Y006203D01*
X002315Y006203D02*
X002014Y005753D01*
X002315Y005753D02*
X002315Y006203D01*
X002475Y006128D02*
X002550Y006203D01*
X002700Y006203D01*
X002775Y006128D01*
X002775Y005828D01*
X002700Y005753D01*
X002550Y005753D01*
X002475Y005828D01*
X002475Y005978D01*
X002625Y005978D01*
D11*
X002970Y005868D02*
X002970Y005757D01*
X003007Y005721D01*
X003080Y005721D01*
X003117Y005757D01*
X003117Y005868D01*
X003190Y005868D02*
X002970Y005868D01*
X003043Y005610D02*
X003043Y005536D01*
X003080Y005500D01*
X003190Y005500D01*
X003190Y005610D01*
X003153Y005647D01*
X003117Y005610D01*
X003117Y005500D01*
X003080Y005426D02*
X003043Y005389D01*
X003043Y005279D01*
X003117Y005315D02*
X003117Y005389D01*
X003080Y005426D01*
X003117Y005315D02*
X003153Y005279D01*
X003190Y005315D01*
X003190Y005426D01*
X003153Y005205D02*
X003117Y005168D01*
X003117Y005058D01*
X003080Y005058D02*
X003190Y005058D01*
X003190Y005168D01*
X003153Y005205D01*
X003043Y005168D02*
X003043Y005094D01*
X003080Y005058D01*
X003080Y004984D02*
X003043Y004947D01*
X003043Y004837D01*
X002970Y004837D02*
X003190Y004837D01*
X003190Y004947D01*
X003153Y004984D01*
X003080Y004984D01*
X003080Y004763D02*
X003043Y004726D01*
X003043Y004653D01*
X003080Y004616D01*
X003117Y004616D01*
X003117Y004763D01*
X003153Y004763D02*
X003080Y004763D01*
X003153Y004763D02*
X003190Y004726D01*
X003190Y004653D01*
X003190Y004542D02*
X003043Y004542D01*
X003043Y004432D01*
X003080Y004395D01*
X003190Y004395D01*
X003153Y004321D02*
X003117Y004284D01*
X003117Y004174D01*
X003080Y004174D02*
X003190Y004174D01*
X003190Y004284D01*
X003153Y004321D01*
X003043Y004211D02*
X003080Y004174D01*
X003043Y004211D02*
X003043Y004284D01*
X003153Y004063D02*
X003190Y004063D01*
X003190Y004026D01*
X003153Y004026D01*
X003153Y004063D01*
X003190Y004026D02*
X003263Y004100D01*
X003153Y003731D02*
X003007Y003731D01*
X002970Y003695D01*
X002970Y003621D01*
X003007Y003585D01*
X003043Y003510D02*
X002970Y003437D01*
X003043Y003364D01*
X003190Y003364D01*
X003080Y003364D02*
X003080Y003510D01*
X003043Y003510D02*
X003190Y003510D01*
X003153Y003585D02*
X003190Y003621D01*
X003190Y003695D01*
X003153Y003731D01*
X001640Y003981D02*
X001603Y004018D01*
X001457Y004018D01*
X001493Y004055D02*
X001493Y003981D01*
X001493Y004129D02*
X001640Y004129D01*
X001640Y004239D01*
X001603Y004276D01*
X001493Y004276D01*
X001530Y004350D02*
X001493Y004386D01*
X001493Y004460D01*
X001530Y004497D01*
X001603Y004497D01*
X001640Y004460D01*
X001640Y004386D01*
X001603Y004350D01*
X001530Y004350D01*
X001493Y004571D02*
X001567Y004681D01*
X001640Y004571D01*
X001640Y004681D02*
X001420Y004681D01*
X001493Y004792D02*
X001530Y004755D01*
X001640Y004755D01*
X001640Y004865D01*
X001603Y004902D01*
X001567Y004865D01*
X001567Y004755D01*
X001493Y004792D02*
X001493Y004865D01*
X001530Y004976D02*
X001567Y004976D01*
X001567Y005123D01*
X001603Y005123D02*
X001530Y005123D01*
X001493Y005086D01*
X001493Y005013D01*
X001530Y004976D01*
X001640Y005086D02*
X001603Y005123D01*
X001640Y005086D02*
X001640Y005013D01*
X001493Y005197D02*
X001493Y005233D01*
X001567Y005307D01*
X001567Y005381D02*
X001603Y005381D01*
X001640Y005418D01*
X001640Y005528D01*
X001420Y005528D01*
X001420Y005418D01*
X001457Y005381D01*
X001493Y005381D01*
X001530Y005418D01*
X001530Y005528D01*
X001530Y005418D02*
X001567Y005381D01*
X001640Y005307D02*
X001493Y005307D01*
X001280Y005252D02*
X001280Y005142D01*
X001280Y005067D02*
X001133Y005067D01*
X001133Y005142D02*
X001133Y005252D01*
X001170Y005288D01*
X001243Y005288D01*
X001280Y005252D01*
X001280Y005362D02*
X001280Y005436D01*
X001280Y005399D02*
X001133Y005399D01*
X001133Y005436D01*
X001060Y005399D02*
X001023Y005399D01*
X001060Y005510D02*
X001280Y005510D01*
X001280Y005657D02*
X001060Y005657D01*
X001133Y005583D01*
X001060Y005510D01*
X001207Y005067D02*
X001133Y004994D01*
X001133Y004957D01*
X001170Y004883D02*
X001243Y004883D01*
X001280Y004847D01*
X001280Y004773D01*
X001243Y004736D01*
X001170Y004736D01*
X001133Y004773D01*
X001133Y004847D01*
X001170Y004883D01*
X001170Y004662D02*
X001170Y004516D01*
X001243Y004441D02*
X001280Y004405D01*
X001280Y004331D01*
X001243Y004295D01*
X001060Y004295D01*
X001097Y004220D02*
X001060Y004184D01*
X001060Y004110D01*
X001097Y004074D01*
X001060Y003999D02*
X001060Y003889D01*
X001097Y003853D01*
X001133Y003853D01*
X001170Y003889D01*
X001170Y003999D01*
X001207Y004074D02*
X001243Y004074D01*
X001280Y004110D01*
X001280Y004184D01*
X001243Y004220D01*
X001170Y004184D02*
X001170Y004110D01*
X001207Y004074D01*
X001280Y003999D02*
X001280Y003889D01*
X001243Y003853D01*
X001207Y003853D01*
X001170Y003889D01*
X001280Y003999D02*
X001060Y003999D01*
X001170Y004184D02*
X001133Y004220D01*
X001097Y004220D01*
X001060Y004441D02*
X001243Y004441D01*
D12*
X002484Y001103D03*
D13*
X001867Y001103D03*
D14*
X001867Y001103D03*
X002484Y001103D03*
D15*
X002484Y001104D03*
D16*
X001867Y001104D03*
D17*
X002484Y001104D03*
D18*
X001867Y001104D03*
X001867Y001354D03*
D19*
X001867Y001105D03*
X002484Y001105D03*
D20*
X002484Y001105D03*
D21*
X001867Y001105D03*
D22*
X001867Y001106D03*
X002484Y001106D03*
D23*
X002484Y001106D03*
X001867Y001106D03*
D24*
X001867Y001107D03*
X001867Y001352D03*
X002484Y001107D03*
D25*
X002484Y001107D03*
X001867Y001107D03*
D26*
X002484Y001108D03*
D27*
X001867Y001108D03*
D28*
X002484Y001108D03*
D29*
X001867Y001108D03*
D30*
X002484Y001109D03*
D31*
X001867Y001109D03*
D32*
X001867Y001109D03*
X001867Y001349D03*
X002484Y001109D03*
D33*
X002484Y001110D03*
X001867Y001110D03*
D34*
X001867Y001110D03*
X002484Y001110D03*
D35*
X002484Y001111D03*
D36*
X001867Y001111D03*
D37*
X002484Y001111D03*
D38*
X001867Y001111D03*
D39*
X001867Y001112D03*
X002484Y001112D03*
D40*
X002484Y001112D03*
D41*
X001867Y001112D03*
D42*
X002484Y001113D03*
D43*
X001867Y001113D03*
D44*
X002484Y001113D03*
D45*
X002484Y001342D03*
X001867Y001113D03*
D46*
X002484Y001114D03*
X002484Y001341D03*
D47*
X001867Y001114D03*
D48*
X002484Y001114D03*
D49*
X001867Y001114D03*
X001867Y001344D03*
D50*
X002484Y001341D03*
X002484Y001115D03*
D51*
X001867Y001115D03*
D52*
X001867Y001115D03*
X001867Y001343D03*
X002484Y001115D03*
D53*
X002484Y001116D03*
D54*
X002484Y001340D03*
X001867Y001116D03*
D55*
X001867Y001116D03*
X002484Y001116D03*
X002484Y001339D03*
D56*
X002484Y001117D03*
D57*
X001867Y001117D03*
X001867Y001342D03*
D58*
X001867Y001341D03*
X001867Y001117D03*
X002484Y001117D03*
D59*
X002484Y001118D03*
D60*
X002484Y001338D03*
X001867Y001341D03*
X001867Y001118D03*
D61*
X002484Y001118D03*
D62*
X001867Y001118D03*
X001867Y001340D03*
D63*
X002484Y001337D03*
X002484Y001119D03*
D64*
X001867Y001119D03*
X001867Y001340D03*
D65*
X002484Y001335D03*
X002484Y001120D03*
X002484Y001119D03*
D66*
X002484Y001336D03*
X001867Y001339D03*
X001867Y001119D03*
D67*
X002484Y001120D03*
X002484Y001336D03*
D68*
X001867Y001338D03*
X001867Y001120D03*
D69*
X001867Y001120D03*
X001867Y001339D03*
D70*
X002484Y001335D03*
X002484Y001121D03*
D71*
X001867Y001121D03*
D72*
X001867Y001121D03*
X001867Y001122D03*
X001867Y001336D03*
X001867Y001337D03*
X002484Y001334D03*
X002484Y001334D03*
X002484Y001122D03*
X002484Y001121D03*
D73*
X002484Y001122D03*
D74*
X002484Y001333D03*
X001867Y001337D03*
X001867Y001122D03*
D75*
X002484Y001123D03*
X002484Y001333D03*
D76*
X001867Y001123D03*
D77*
X001867Y001123D03*
X001867Y001125D03*
X001867Y001333D03*
X001867Y001335D03*
X002484Y001332D03*
X002484Y001331D03*
X002484Y001125D03*
X002484Y001123D03*
D78*
X002484Y001124D03*
X002484Y001124D03*
X002484Y001330D03*
X002484Y001331D03*
X002484Y001332D03*
X001867Y001334D03*
X001867Y001334D03*
X001867Y001335D03*
X001867Y001125D03*
X001867Y001124D03*
X001867Y001124D03*
D79*
X002484Y001125D03*
X002484Y001126D03*
X002484Y001127D03*
X002484Y001128D03*
X002484Y001129D03*
X002484Y001129D03*
X002484Y001130D03*
X002484Y001131D03*
X002484Y001132D03*
X002484Y001133D03*
X002484Y001134D03*
X002484Y001134D03*
X002484Y001135D03*
X002484Y001136D03*
X002484Y001137D03*
X002484Y001138D03*
X002484Y001139D03*
X002484Y001139D03*
X002484Y001140D03*
X002484Y001141D03*
X002484Y001142D03*
X002484Y001143D03*
X002484Y001144D03*
X002484Y001144D03*
X002484Y001145D03*
X002484Y001146D03*
X002484Y001147D03*
X002484Y001148D03*
X002484Y001149D03*
X002484Y001149D03*
X002484Y001150D03*
X002484Y001151D03*
X002484Y001152D03*
X002484Y001153D03*
X002484Y001154D03*
X002484Y001154D03*
X002484Y001155D03*
X002484Y001156D03*
X002484Y001157D03*
X002484Y001158D03*
X002484Y001159D03*
X002484Y001159D03*
X002484Y001160D03*
X002484Y001161D03*
X002484Y001162D03*
X002484Y001163D03*
X002484Y001164D03*
X002484Y001164D03*
X002484Y001165D03*
X002484Y001166D03*
X002484Y001167D03*
X002484Y001168D03*
X002484Y001169D03*
X002484Y001169D03*
X002484Y001170D03*
X002484Y001171D03*
X002484Y001172D03*
X002484Y001173D03*
X002484Y001174D03*
X002484Y001174D03*
X002484Y001175D03*
X002484Y001176D03*
X002484Y001177D03*
X002484Y001178D03*
X002484Y001179D03*
X002484Y001179D03*
X002484Y001180D03*
X002484Y001181D03*
X002484Y001182D03*
X002484Y001183D03*
X002484Y001184D03*
X002484Y001184D03*
X002484Y001185D03*
X002484Y001186D03*
X002484Y001187D03*
X002484Y001188D03*
X002484Y001189D03*
X002484Y001189D03*
X002484Y001190D03*
X002484Y001191D03*
X002484Y001192D03*
X002484Y001193D03*
X002484Y001194D03*
X002484Y001194D03*
X002484Y001195D03*
X002484Y001196D03*
X002484Y001197D03*
X002484Y001198D03*
X002484Y001199D03*
X002484Y001199D03*
X002484Y001200D03*
X002484Y001201D03*
X002484Y001202D03*
X002484Y001203D03*
X002484Y001204D03*
X002484Y001204D03*
X002484Y001205D03*
X002484Y001206D03*
X002484Y001207D03*
X002484Y001208D03*
X002484Y001209D03*
X002484Y001209D03*
X002484Y001210D03*
X002484Y001211D03*
X002484Y001212D03*
X002484Y001213D03*
X002484Y001214D03*
X002484Y001214D03*
X002484Y001215D03*
X002484Y001216D03*
X002484Y001217D03*
X002484Y001218D03*
X002484Y001219D03*
X002484Y001219D03*
X002484Y001220D03*
X002484Y001221D03*
X002484Y001222D03*
X002484Y001223D03*
X002484Y001224D03*
X002484Y001224D03*
X002484Y001225D03*
X002484Y001226D03*
X002484Y001227D03*
X002484Y001228D03*
X002484Y001229D03*
X002484Y001229D03*
X002484Y001230D03*
X002484Y001231D03*
X002484Y001232D03*
X002484Y001233D03*
X002484Y001234D03*
X002484Y001234D03*
X002484Y001235D03*
X002484Y001236D03*
X002484Y001237D03*
X002484Y001238D03*
X002484Y001239D03*
X002484Y001239D03*
X002484Y001240D03*
X002484Y001241D03*
X002484Y001242D03*
X002484Y001243D03*
X002484Y001244D03*
X002484Y001244D03*
X002484Y001245D03*
X002484Y001246D03*
X002484Y001247D03*
X002484Y001248D03*
X002484Y001249D03*
X002484Y001249D03*
X002484Y001250D03*
X002484Y001251D03*
X002484Y001252D03*
X002484Y001253D03*
X002484Y001254D03*
X002484Y001254D03*
X002484Y001255D03*
X002484Y001256D03*
X002484Y001257D03*
X002484Y001258D03*
X002484Y001259D03*
X002484Y001259D03*
X002484Y001260D03*
X002484Y001261D03*
X002484Y001262D03*
X002484Y001263D03*
X002484Y001264D03*
X002484Y001264D03*
X002484Y001265D03*
X002484Y001266D03*
X002484Y001267D03*
X002484Y001268D03*
X002484Y001269D03*
X002484Y001269D03*
X002484Y001270D03*
X002484Y001271D03*
X002484Y001272D03*
X002484Y001273D03*
X002484Y001274D03*
X002484Y001274D03*
X002484Y001275D03*
X002484Y001276D03*
X002484Y001277D03*
X002484Y001278D03*
X002484Y001279D03*
X002484Y001279D03*
X002484Y001280D03*
X002484Y001281D03*
X002484Y001282D03*
X002484Y001283D03*
X002484Y001284D03*
X002484Y001284D03*
X002484Y001285D03*
X002484Y001286D03*
X002484Y001287D03*
X002484Y001288D03*
X002484Y001289D03*
X002484Y001289D03*
X002484Y001290D03*
X002484Y001291D03*
X002484Y001292D03*
X002484Y001293D03*
X002484Y001294D03*
X002484Y001294D03*
X002484Y001295D03*
X002484Y001296D03*
X002484Y001297D03*
X002484Y001298D03*
X002484Y001299D03*
X002484Y001299D03*
X002484Y001300D03*
X002484Y001301D03*
X002484Y001302D03*
X002484Y001303D03*
X002484Y001304D03*
X002484Y001304D03*
X002484Y001305D03*
X002484Y001306D03*
X002484Y001307D03*
X002484Y001308D03*
X002484Y001309D03*
X002484Y001309D03*
X002484Y001310D03*
X002484Y001311D03*
X002484Y001312D03*
X002484Y001313D03*
X002484Y001314D03*
X002484Y001314D03*
X002484Y001315D03*
X002484Y001316D03*
X002484Y001317D03*
X002484Y001318D03*
X002484Y001319D03*
X002484Y001319D03*
X002484Y001320D03*
X002484Y001321D03*
X002484Y001322D03*
X002484Y001323D03*
X002484Y001324D03*
X002484Y001324D03*
X002484Y001325D03*
X002484Y001326D03*
X002484Y001327D03*
X002484Y001328D03*
X002484Y001329D03*
X002484Y001329D03*
D80*
X002484Y001330D03*
X002484Y001328D03*
X002484Y001327D03*
X002484Y001326D03*
X002484Y001325D03*
X002484Y001323D03*
X002484Y001322D03*
X002484Y001321D03*
X002484Y001320D03*
X002484Y001318D03*
X002484Y001317D03*
X002484Y001316D03*
X002484Y001315D03*
X002484Y001313D03*
X002484Y001312D03*
X002484Y001311D03*
X002484Y001310D03*
X002484Y001308D03*
X002484Y001307D03*
X002484Y001306D03*
X002484Y001305D03*
X002484Y001303D03*
X002484Y001302D03*
X002484Y001301D03*
X002484Y001300D03*
X002484Y001298D03*
X002484Y001297D03*
X002484Y001296D03*
X002484Y001295D03*
X002484Y001293D03*
X002484Y001292D03*
X002484Y001291D03*
X002484Y001290D03*
X002484Y001288D03*
X002484Y001287D03*
X002484Y001286D03*
X002484Y001285D03*
X002484Y001283D03*
X002484Y001282D03*
X002484Y001281D03*
X002484Y001280D03*
X002484Y001278D03*
X002484Y001277D03*
X002484Y001276D03*
X002484Y001275D03*
X002484Y001273D03*
X002484Y001272D03*
X002484Y001271D03*
X002484Y001270D03*
X002484Y001268D03*
X002484Y001267D03*
X002484Y001266D03*
X002484Y001265D03*
X002484Y001263D03*
X002484Y001262D03*
X002484Y001261D03*
X002484Y001260D03*
X002484Y001258D03*
X002484Y001257D03*
X002484Y001256D03*
X002484Y001255D03*
X002484Y001253D03*
X002484Y001252D03*
X002484Y001251D03*
X002484Y001250D03*
X002484Y001248D03*
X002484Y001247D03*
X002484Y001246D03*
X002484Y001245D03*
X002484Y001243D03*
X002484Y001242D03*
X002484Y001241D03*
X002484Y001240D03*
X002484Y001238D03*
X002484Y001237D03*
X002484Y001236D03*
X002484Y001235D03*
X002484Y001233D03*
X002484Y001232D03*
X002484Y001231D03*
X002484Y001230D03*
X002484Y001228D03*
X002484Y001227D03*
X002484Y001226D03*
X002484Y001225D03*
X002484Y001223D03*
X002484Y001222D03*
X002484Y001221D03*
X002484Y001220D03*
X002484Y001218D03*
X002484Y001217D03*
X002484Y001216D03*
X002484Y001215D03*
X002484Y001213D03*
X002484Y001212D03*
X002484Y001211D03*
X002484Y001210D03*
X002484Y001208D03*
X002484Y001207D03*
X002484Y001206D03*
X002484Y001205D03*
X002484Y001203D03*
X002484Y001202D03*
X002484Y001201D03*
X002484Y001200D03*
X002484Y001198D03*
X002484Y001197D03*
X002484Y001196D03*
X002484Y001195D03*
X002484Y001193D03*
X002484Y001192D03*
X002484Y001191D03*
X002484Y001190D03*
X002484Y001188D03*
X002484Y001187D03*
X002484Y001186D03*
X002484Y001185D03*
X002484Y001183D03*
X002484Y001182D03*
X002484Y001181D03*
X002484Y001180D03*
X002484Y001178D03*
X002484Y001177D03*
X002484Y001176D03*
X002484Y001175D03*
X002484Y001173D03*
X002484Y001172D03*
X002484Y001171D03*
X002484Y001170D03*
X002484Y001168D03*
X002484Y001167D03*
X002484Y001166D03*
X002484Y001165D03*
X002484Y001163D03*
X002484Y001162D03*
X002484Y001161D03*
X002484Y001160D03*
X002484Y001158D03*
X002484Y001157D03*
X002484Y001156D03*
X002484Y001155D03*
X002484Y001153D03*
X002484Y001152D03*
X002484Y001151D03*
X002484Y001150D03*
X002484Y001148D03*
X002484Y001147D03*
X002484Y001146D03*
X002484Y001145D03*
X002484Y001143D03*
X002484Y001142D03*
X002484Y001141D03*
X002484Y001140D03*
X002484Y001138D03*
X002484Y001137D03*
X002484Y001136D03*
X002484Y001135D03*
X002484Y001133D03*
X002484Y001132D03*
X002484Y001131D03*
X002484Y001130D03*
X002484Y001128D03*
X002484Y001127D03*
X002484Y001126D03*
D81*
X001867Y001127D03*
X001867Y001128D03*
X001867Y001130D03*
X001867Y001131D03*
X001867Y001132D03*
X001867Y001133D03*
X001867Y001135D03*
X001867Y001136D03*
X001867Y001137D03*
X001867Y001138D03*
X001867Y001140D03*
X001867Y001141D03*
X001867Y001142D03*
X001867Y001143D03*
X001867Y001145D03*
X001867Y001146D03*
X001867Y001147D03*
X001867Y001148D03*
X001867Y001150D03*
X001867Y001151D03*
X001867Y001152D03*
X001867Y001153D03*
X001867Y001155D03*
X001867Y001156D03*
X001867Y001157D03*
X001867Y001158D03*
X001867Y001160D03*
X001867Y001161D03*
X001867Y001162D03*
X001867Y001163D03*
X001867Y001165D03*
X001867Y001166D03*
X001867Y001167D03*
X001867Y001168D03*
X001867Y001170D03*
X001867Y001171D03*
X001867Y001172D03*
X001867Y001173D03*
X001867Y001175D03*
X001867Y001176D03*
X001867Y001177D03*
X001867Y001178D03*
X001867Y001180D03*
X001867Y001181D03*
X001867Y001182D03*
X001867Y001183D03*
X001867Y001185D03*
X001867Y001186D03*
X001867Y001187D03*
X001867Y001188D03*
X001867Y001190D03*
X001867Y001191D03*
X001867Y001192D03*
X001867Y001193D03*
X001867Y001195D03*
X001867Y001196D03*
X001867Y001197D03*
X001867Y001198D03*
X001867Y001200D03*
X001867Y001201D03*
X001867Y001202D03*
X001867Y001203D03*
X001867Y001205D03*
X001867Y001206D03*
X001867Y001207D03*
X001867Y001208D03*
X001867Y001210D03*
X001867Y001211D03*
X001867Y001212D03*
X001867Y001213D03*
X001867Y001215D03*
X001867Y001216D03*
X001867Y001217D03*
X001867Y001218D03*
X001867Y001220D03*
X001867Y001221D03*
X001867Y001222D03*
X001867Y001223D03*
X001867Y001225D03*
X001867Y001226D03*
X001867Y001227D03*
X001867Y001228D03*
X001867Y001230D03*
X001867Y001231D03*
X001867Y001232D03*
X001867Y001233D03*
X001867Y001235D03*
X001867Y001236D03*
X001867Y001237D03*
X001867Y001238D03*
X001867Y001240D03*
X001867Y001241D03*
X001867Y001242D03*
X001867Y001243D03*
X001867Y001245D03*
X001867Y001246D03*
X001867Y001247D03*
X001867Y001248D03*
X001867Y001250D03*
X001867Y001251D03*
X001867Y001252D03*
X001867Y001253D03*
X001867Y001255D03*
X001867Y001256D03*
X001867Y001257D03*
X001867Y001258D03*
X001867Y001260D03*
X001867Y001261D03*
X001867Y001262D03*
X001867Y001263D03*
X001867Y001265D03*
X001867Y001266D03*
X001867Y001267D03*
X001867Y001268D03*
X001867Y001270D03*
X001867Y001271D03*
X001867Y001272D03*
X001867Y001273D03*
X001867Y001275D03*
X001867Y001276D03*
X001867Y001277D03*
X001867Y001278D03*
X001867Y001280D03*
X001867Y001281D03*
X001867Y001282D03*
X001867Y001283D03*
X001867Y001285D03*
X001867Y001286D03*
X001867Y001287D03*
X001867Y001288D03*
X001867Y001290D03*
X001867Y001291D03*
X001867Y001292D03*
X001867Y001293D03*
X001867Y001295D03*
X001867Y001296D03*
X001867Y001297D03*
X001867Y001298D03*
X001867Y001300D03*
X001867Y001301D03*
X001867Y001302D03*
X001867Y001303D03*
X001867Y001305D03*
X001867Y001306D03*
X001867Y001307D03*
X001867Y001308D03*
X001867Y001310D03*
X001867Y001311D03*
X001867Y001312D03*
X001867Y001313D03*
X001867Y001315D03*
X001867Y001316D03*
X001867Y001317D03*
X001867Y001318D03*
X001867Y001320D03*
X001867Y001321D03*
X001867Y001322D03*
X001867Y001323D03*
X001867Y001325D03*
X001867Y001326D03*
X001867Y001327D03*
X001867Y001328D03*
X001867Y001330D03*
X001867Y001331D03*
X001867Y001332D03*
X001867Y001126D03*
D82*
X001867Y001126D03*
X001867Y001127D03*
X001867Y001128D03*
X001867Y001129D03*
X001867Y001129D03*
X001867Y001130D03*
X001867Y001131D03*
X001867Y001132D03*
X001867Y001133D03*
X001867Y001134D03*
X001867Y001134D03*
X001867Y001135D03*
X001867Y001136D03*
X001867Y001137D03*
X001867Y001138D03*
X001867Y001139D03*
X001867Y001139D03*
X001867Y001140D03*
X001867Y001141D03*
X001867Y001142D03*
X001867Y001143D03*
X001867Y001144D03*
X001867Y001144D03*
X001867Y001145D03*
X001867Y001146D03*
X001867Y001147D03*
X001867Y001148D03*
X001867Y001149D03*
X001867Y001149D03*
X001867Y001150D03*
X001867Y001151D03*
X001867Y001152D03*
X001867Y001153D03*
X001867Y001154D03*
X001867Y001154D03*
X001867Y001155D03*
X001867Y001156D03*
X001867Y001157D03*
X001867Y001158D03*
X001867Y001159D03*
X001867Y001159D03*
X001867Y001160D03*
X001867Y001161D03*
X001867Y001162D03*
X001867Y001163D03*
X001867Y001164D03*
X001867Y001164D03*
X001867Y001165D03*
X001867Y001166D03*
X001867Y001167D03*
X001867Y001168D03*
X001867Y001169D03*
X001867Y001169D03*
X001867Y001170D03*
X001867Y001171D03*
X001867Y001172D03*
X001867Y001173D03*
X001867Y001174D03*
X001867Y001174D03*
X001867Y001175D03*
X001867Y001176D03*
X001867Y001177D03*
X001867Y001178D03*
X001867Y001179D03*
X001867Y001179D03*
X001867Y001180D03*
X001867Y001181D03*
X001867Y001182D03*
X001867Y001183D03*
X001867Y001184D03*
X001867Y001184D03*
X001867Y001185D03*
X001867Y001186D03*
X001867Y001187D03*
X001867Y001188D03*
X001867Y001189D03*
X001867Y001189D03*
X001867Y001190D03*
X001867Y001191D03*
X001867Y001192D03*
X001867Y001193D03*
X001867Y001194D03*
X001867Y001194D03*
X001867Y001195D03*
X001867Y001196D03*
X001867Y001197D03*
X001867Y001198D03*
X001867Y001199D03*
X001867Y001199D03*
X001867Y001200D03*
X001867Y001201D03*
X001867Y001202D03*
X001867Y001203D03*
X001867Y001204D03*
X001867Y001204D03*
X001867Y001205D03*
X001867Y001206D03*
X001867Y001207D03*
X001867Y001208D03*
X001867Y001209D03*
X001867Y001209D03*
X001867Y001210D03*
X001867Y001211D03*
X001867Y001212D03*
X001867Y001213D03*
X001867Y001214D03*
X001867Y001214D03*
X001867Y001215D03*
X001867Y001216D03*
X001867Y001217D03*
X001867Y001218D03*
X001867Y001219D03*
X001867Y001219D03*
X001867Y001220D03*
X001867Y001221D03*
X001867Y001222D03*
X001867Y001223D03*
X001867Y001224D03*
X001867Y001224D03*
X001867Y001225D03*
X001867Y001226D03*
X001867Y001227D03*
X001867Y001228D03*
X001867Y001229D03*
X001867Y001229D03*
X001867Y001230D03*
X001867Y001231D03*
X001867Y001232D03*
X001867Y001233D03*
X001867Y001234D03*
X001867Y001234D03*
X001867Y001235D03*
X001867Y001236D03*
X001867Y001237D03*
X001867Y001238D03*
X001867Y001239D03*
X001867Y001239D03*
X001867Y001240D03*
X001867Y001241D03*
X001867Y001242D03*
X001867Y001243D03*
X001867Y001244D03*
X001867Y001244D03*
X001867Y001245D03*
X001867Y001246D03*
X001867Y001247D03*
X001867Y001248D03*
X001867Y001249D03*
X001867Y001249D03*
X001867Y001250D03*
X001867Y001251D03*
X001867Y001252D03*
X001867Y001253D03*
X001867Y001254D03*
X001867Y001254D03*
X001867Y001255D03*
X001867Y001256D03*
X001867Y001257D03*
X001867Y001258D03*
X001867Y001259D03*
X001867Y001259D03*
X001867Y001260D03*
X001867Y001261D03*
X001867Y001262D03*
X001867Y001263D03*
X001867Y001264D03*
X001867Y001264D03*
X001867Y001265D03*
X001867Y001266D03*
X001867Y001267D03*
X001867Y001268D03*
X001867Y001269D03*
X001867Y001269D03*
X001867Y001270D03*
X001867Y001271D03*
X001867Y001272D03*
X001867Y001273D03*
X001867Y001274D03*
X001867Y001274D03*
X001867Y001275D03*
X001867Y001276D03*
X001867Y001277D03*
X001867Y001278D03*
X001867Y001279D03*
X001867Y001279D03*
X001867Y001280D03*
X001867Y001281D03*
X001867Y001282D03*
X001867Y001283D03*
X001867Y001284D03*
X001867Y001284D03*
X001867Y001285D03*
X001867Y001286D03*
X001867Y001287D03*
X001867Y001288D03*
X001867Y001289D03*
X001867Y001289D03*
X001867Y001290D03*
X001867Y001291D03*
X001867Y001292D03*
X001867Y001293D03*
X001867Y001294D03*
X001867Y001294D03*
X001867Y001295D03*
X001867Y001296D03*
X001867Y001297D03*
X001867Y001298D03*
X001867Y001299D03*
X001867Y001299D03*
X001867Y001300D03*
X001867Y001301D03*
X001867Y001302D03*
X001867Y001303D03*
X001867Y001304D03*
X001867Y001304D03*
X001867Y001305D03*
X001867Y001306D03*
X001867Y001307D03*
X001867Y001308D03*
X001867Y001309D03*
X001867Y001309D03*
X001867Y001310D03*
X001867Y001311D03*
X001867Y001312D03*
X001867Y001313D03*
X001867Y001314D03*
X001867Y001314D03*
X001867Y001315D03*
X001867Y001316D03*
X001867Y001317D03*
X001867Y001318D03*
X001867Y001319D03*
X001867Y001319D03*
X001867Y001320D03*
X001867Y001321D03*
X001867Y001322D03*
X001867Y001323D03*
X001867Y001324D03*
X001867Y001324D03*
X001867Y001325D03*
X001867Y001326D03*
X001867Y001327D03*
X001867Y001328D03*
X001867Y001329D03*
X001867Y001329D03*
X001867Y001330D03*
X001867Y001331D03*
X001867Y001332D03*
X001867Y001333D03*
D83*
X001867Y001336D03*
D84*
X002484Y001337D03*
D85*
X001867Y001338D03*
D86*
X002484Y001338D03*
D87*
X002484Y001339D03*
D88*
X002484Y001340D03*
D89*
X002484Y001342D03*
D90*
X001867Y001342D03*
D91*
X002484Y001343D03*
D92*
X002484Y001343D03*
D93*
X001867Y001343D03*
D94*
X002484Y001344D03*
D95*
X001867Y001344D03*
D96*
X002484Y001344D03*
D97*
X002484Y001345D03*
D98*
X001867Y001345D03*
D99*
X002484Y001345D03*
D100*
X001867Y001345D03*
D101*
X002484Y001346D03*
D102*
X001867Y001346D03*
D103*
X002484Y001346D03*
D104*
X001867Y001346D03*
D105*
X002484Y001347D03*
D106*
X001867Y001347D03*
D107*
X002484Y001347D03*
D108*
X001867Y001347D03*
D109*
X002484Y001348D03*
D110*
X001867Y001348D03*
D111*
X002484Y001348D03*
D112*
X001867Y001348D03*
D113*
X002484Y001349D03*
D114*
X001867Y001349D03*
D115*
X002484Y001349D03*
D116*
X002484Y001350D03*
D117*
X001867Y001350D03*
D118*
X002484Y001350D03*
D119*
X001867Y001350D03*
D120*
X002484Y001351D03*
D121*
X001867Y001351D03*
D122*
X002484Y001351D03*
D123*
X001867Y001351D03*
D124*
X002484Y001352D03*
D125*
X002484Y001352D03*
D126*
X001867Y001352D03*
D127*
X002482Y001353D03*
D128*
X001867Y001353D03*
D129*
X002483Y001353D03*
X002483Y001355D03*
D130*
X001867Y001353D03*
D131*
X002483Y001354D03*
X002483Y001354D03*
D132*
X001867Y001354D03*
D133*
X001867Y001355D03*
D134*
X002483Y001356D03*
X002483Y001355D03*
D135*
X001867Y001355D03*
D136*
X002483Y001356D03*
D137*
X001867Y001356D03*
D138*
X001863Y001356D03*
X001863Y001357D03*
X001863Y001358D03*
D139*
X002483Y001358D03*
X002483Y001357D03*
D140*
X002483Y001357D03*
X002483Y001358D03*
D141*
X001863Y001357D03*
D142*
X001863Y001358D03*
X001863Y001360D03*
X002492Y001417D03*
D143*
X002483Y001359D03*
X002483Y001359D03*
D144*
X002492Y001416D03*
X002492Y001417D03*
X002492Y001418D03*
X001863Y001359D03*
X001863Y001359D03*
D145*
X002483Y001360D03*
D146*
X002484Y001360D03*
X002484Y001361D03*
D147*
X001863Y001362D03*
X001863Y001361D03*
X001863Y001360D03*
D148*
X002484Y001361D03*
D149*
X001863Y001361D03*
D150*
X002484Y001362D03*
X002484Y001363D03*
D151*
X002484Y001363D03*
X002484Y001362D03*
D152*
X002492Y001420D03*
X002492Y001421D03*
X001862Y001363D03*
X001862Y001362D03*
D153*
X001862Y001363D03*
X001862Y001364D03*
X002492Y001420D03*
D154*
X002484Y001364D03*
X002484Y001364D03*
D155*
X002493Y001421D03*
X002493Y001422D03*
X002493Y001423D03*
X001862Y001366D03*
X001862Y001365D03*
X001862Y001364D03*
D156*
X002484Y001365D03*
D157*
X002493Y001422D03*
X001862Y001366D03*
X001862Y001365D03*
D158*
X002484Y001366D03*
X002484Y001367D03*
X002484Y001365D03*
D159*
X002484Y001366D03*
D160*
X001862Y001367D03*
X001862Y001368D03*
D161*
X002485Y001368D03*
X002485Y001367D03*
D162*
X001862Y001368D03*
X001862Y001367D03*
D163*
X002485Y001368D03*
D164*
X002485Y001369D03*
X002485Y001369D03*
D165*
X002493Y001425D03*
X002493Y001426D03*
X001862Y001370D03*
X001862Y001369D03*
X001862Y001369D03*
D166*
X002485Y001370D03*
D167*
X002493Y001425D03*
X002493Y001426D03*
X001862Y001370D03*
D168*
X002485Y001371D03*
X002485Y001372D03*
X002485Y001370D03*
D169*
X002485Y001371D03*
D170*
X001861Y001372D03*
X001861Y001371D03*
D171*
X001861Y001371D03*
X001861Y001372D03*
D172*
X002485Y001373D03*
X002485Y001372D03*
D173*
X002485Y001373D03*
D174*
X002494Y001429D03*
X002494Y001429D03*
X001861Y001374D03*
X001861Y001374D03*
X001861Y001373D03*
D175*
X001861Y001373D03*
X002494Y001428D03*
D176*
X002486Y001375D03*
X002486Y001374D03*
X002486Y001374D03*
D177*
X002486Y001375D03*
D178*
X002494Y001430D03*
X002494Y001431D03*
X001861Y001376D03*
X001861Y001375D03*
D179*
X001861Y001375D03*
X001861Y001376D03*
X002494Y001430D03*
X002494Y001431D03*
D180*
X002486Y001376D03*
D181*
X002486Y001376D03*
X002486Y001377D03*
D182*
X001861Y001378D03*
X001861Y001379D03*
X001861Y001377D03*
D183*
X002486Y001378D03*
X002486Y001377D03*
D184*
X001861Y001378D03*
X001861Y001377D03*
D185*
X002486Y001378D03*
D186*
X002486Y001379D03*
X002486Y001379D03*
X002486Y001380D03*
D187*
X002494Y001434D03*
X002494Y001434D03*
X001860Y001380D03*
X001860Y001379D03*
D188*
X002486Y001380D03*
D189*
X002494Y001433D03*
X002494Y001435D03*
X001860Y001381D03*
X001860Y001380D03*
D190*
X002486Y001381D03*
D191*
X002486Y001381D03*
X002486Y001382D03*
D192*
X001860Y001383D03*
X001860Y001382D03*
X001860Y001381D03*
D193*
X002487Y001382D03*
X002487Y001383D03*
D194*
X001860Y001382D03*
D195*
X002487Y001383D03*
X002487Y001384D03*
D196*
X002495Y001437D03*
X001860Y001385D03*
X001860Y001383D03*
D197*
X001860Y001384D03*
X001860Y001384D03*
X002495Y001437D03*
X002495Y001438D03*
D198*
X002487Y001385D03*
X002487Y001384D03*
D199*
X002487Y001385D03*
D200*
X002495Y001439D03*
X002495Y001439D03*
X001860Y001387D03*
X001860Y001386D03*
X001860Y001385D03*
D201*
X002487Y001386D03*
D202*
X002495Y001438D03*
X002495Y001440D03*
X001860Y001386D03*
D203*
X002487Y001387D03*
X002487Y001386D03*
D204*
X002488Y001387D03*
X002488Y001388D03*
D205*
X001859Y001388D03*
X001859Y001387D03*
D206*
X002488Y001388D03*
X002488Y001389D03*
D207*
X001859Y001389D03*
X001859Y001388D03*
D208*
X002488Y001389D03*
X002488Y001390D03*
D209*
X002496Y001442D03*
X002496Y001443D03*
X001859Y001391D03*
X001859Y001390D03*
X001859Y001389D03*
D210*
X002488Y001390D03*
D211*
X002496Y001442D03*
X002496Y001443D03*
X001859Y001391D03*
X001859Y001390D03*
D212*
X002488Y001391D03*
X002488Y001392D03*
D213*
X002488Y001392D03*
X002488Y001391D03*
D214*
X001859Y001392D03*
X001859Y001393D03*
D215*
X001859Y001393D03*
X001859Y001392D03*
D216*
X002488Y001393D03*
X002488Y001394D03*
D217*
X002488Y001393D03*
D218*
X002496Y001445D03*
X002496Y001446D03*
X001859Y001395D03*
X001859Y001394D03*
X001859Y001394D03*
D219*
X002489Y001395D03*
X002489Y001394D03*
D220*
X002489Y001395D03*
D221*
X002496Y001446D03*
X001859Y001395D03*
D222*
X002489Y001396D03*
X002489Y001397D03*
D223*
X002496Y001447D03*
X002496Y001448D03*
X001858Y001397D03*
X001858Y001396D03*
D224*
X002489Y001397D03*
X002489Y001396D03*
D225*
X002496Y001447D03*
X002496Y001448D03*
X001858Y001397D03*
X001858Y001396D03*
D226*
X002489Y001398D03*
X002489Y001399D03*
D227*
X001858Y001399D03*
X001858Y001399D03*
X001858Y001398D03*
D228*
X002489Y001398D03*
D229*
X001858Y001398D03*
D230*
X002489Y001399D03*
X002489Y001400D03*
D231*
X002489Y001400D03*
X002489Y001401D03*
D232*
X002497Y001451D03*
X001858Y001401D03*
X001858Y001400D03*
D233*
X001858Y001400D03*
X001858Y001401D03*
X002497Y001450D03*
X002497Y001451D03*
X002497Y001452D03*
D234*
X002490Y001402D03*
X002490Y001401D03*
D235*
X001858Y001402D03*
X001858Y001403D03*
X001858Y001404D03*
D236*
X002490Y001402D03*
D237*
X001858Y001403D03*
X001858Y001402D03*
D238*
X002490Y001403D03*
X002490Y001404D03*
D239*
X002490Y001403D03*
D240*
X002490Y001404D03*
X002490Y001405D03*
D241*
X002497Y001454D03*
X002497Y001454D03*
X001857Y001405D03*
X001857Y001404D03*
D242*
X002490Y001405D03*
X002490Y001406D03*
D243*
X002497Y001455D03*
X001857Y001406D03*
X001857Y001405D03*
D244*
X002490Y001406D03*
X002490Y001407D03*
D245*
X002498Y001455D03*
X002498Y001456D03*
X002498Y001457D03*
X001857Y001408D03*
X001857Y001407D03*
X001857Y001406D03*
D246*
X002490Y001407D03*
D247*
X002498Y001456D03*
X001857Y001407D03*
D248*
X002491Y001408D03*
X002491Y001409D03*
X002491Y001409D03*
D249*
X002491Y001408D03*
D250*
X001857Y001408D03*
X001857Y001410D03*
D251*
X001857Y001409D03*
X001857Y001409D03*
D252*
X002491Y001410D03*
X002491Y001411D03*
D253*
X002491Y001410D03*
D254*
X002498Y001459D03*
X002498Y001459D03*
X002498Y001460D03*
X001857Y001412D03*
X001857Y001411D03*
X001857Y001410D03*
D255*
X001857Y001411D03*
X002498Y001460D03*
D256*
X002491Y001412D03*
X002491Y001411D03*
D257*
X002491Y001412D03*
D258*
X001856Y001413D03*
X001856Y001412D03*
D259*
X002491Y001413D03*
X002491Y001414D03*
X002491Y001414D03*
D260*
X001856Y001414D03*
X001856Y001413D03*
D261*
X002491Y001413D03*
D262*
X002499Y001463D03*
X002499Y001464D03*
X001856Y001416D03*
X001856Y001415D03*
X001856Y001414D03*
D263*
X002491Y001415D03*
X002491Y001416D03*
D264*
X002499Y001462D03*
X002499Y001463D03*
X001856Y001416D03*
X001856Y001415D03*
D265*
X002491Y001415D03*
D266*
X002499Y001464D03*
X002499Y001465D03*
X001856Y001418D03*
X001856Y001417D03*
D267*
X001856Y001417D03*
X001856Y001418D03*
X002499Y001465D03*
D268*
X002492Y001418D03*
D269*
X002492Y001419D03*
X002492Y001419D03*
D270*
X001856Y001420D03*
X001856Y001419D03*
X001856Y001419D03*
D271*
X001856Y001420D03*
D272*
X001855Y001421D03*
X001855Y001422D03*
X002499Y001467D03*
X002499Y001468D03*
D273*
X002499Y001468D03*
X002499Y001469D03*
X001855Y001422D03*
X001855Y001421D03*
D274*
X001855Y001423D03*
X001855Y001424D03*
X001855Y001424D03*
D275*
X002493Y001423D03*
D276*
X001855Y001423D03*
D277*
X002493Y001424D03*
X002493Y001424D03*
D278*
X002500Y001471D03*
X002500Y001472D03*
X001855Y001426D03*
X001855Y001425D03*
D279*
X001855Y001425D03*
X001855Y001426D03*
X002500Y001471D03*
X002500Y001472D03*
D280*
X002493Y001428D03*
X002493Y001427D03*
D281*
X002500Y001473D03*
X002500Y001474D03*
X001855Y001429D03*
X001855Y001428D03*
X001855Y001427D03*
D282*
X002493Y001427D03*
D283*
X002500Y001473D03*
X001855Y001428D03*
X001855Y001427D03*
D284*
X001854Y001429D03*
X001854Y001430D03*
D285*
X001854Y001430D03*
X001854Y001431D03*
D286*
X001854Y001431D03*
X001854Y001432D03*
X001854Y001433D03*
X002501Y001476D03*
X002501Y001477D03*
D287*
X002494Y001433D03*
X002494Y001432D03*
D288*
X002494Y001432D03*
D289*
X002501Y001476D03*
X002501Y001477D03*
X001854Y001432D03*
D290*
X001854Y001433D03*
X001854Y001435D03*
D291*
X001854Y001434D03*
X001854Y001434D03*
D292*
X002495Y001435D03*
X002495Y001436D03*
D293*
X002501Y001479D03*
X002501Y001480D03*
X001854Y001437D03*
X001854Y001436D03*
X001854Y001435D03*
D294*
X002495Y001436D03*
D295*
X002501Y001480D03*
X002501Y001481D03*
X001854Y001436D03*
D296*
X001853Y001437D03*
X001853Y001438D03*
X002501Y001482D03*
D297*
X002501Y001482D03*
X002501Y001481D03*
X001853Y001439D03*
X001853Y001438D03*
D298*
X001853Y001439D03*
X001853Y001440D03*
X001853Y001441D03*
D299*
X001853Y001441D03*
X001853Y001440D03*
D300*
X002495Y001441D03*
X002495Y001440D03*
D301*
X002495Y001441D03*
D302*
X002502Y001484D03*
X002502Y001485D03*
X001853Y001443D03*
X001853Y001442D03*
D303*
X001853Y001442D03*
X001853Y001443D03*
X002502Y001485D03*
X002502Y001486D03*
D304*
X002496Y001444D03*
X002496Y001444D03*
D305*
X001853Y001445D03*
X001853Y001444D03*
X001853Y001444D03*
D306*
X002496Y001445D03*
D307*
X001853Y001445D03*
D308*
X001852Y001446D03*
X001852Y001447D03*
X002502Y001488D03*
D309*
X002502Y001488D03*
X002502Y001489D03*
X002502Y001489D03*
X001852Y001447D03*
X001852Y001446D03*
D310*
X001852Y001448D03*
X001852Y001449D03*
X001852Y001449D03*
X002503Y001490D03*
D311*
X002503Y001490D03*
X002503Y001491D03*
X001852Y001448D03*
D312*
X002496Y001449D03*
X002496Y001449D03*
D313*
X002496Y001450D03*
D314*
X001852Y001451D03*
X001852Y001450D03*
D315*
X001852Y001450D03*
X001852Y001451D03*
D316*
X001852Y001452D03*
X001852Y001453D03*
X001852Y001454D03*
X002503Y001493D03*
X002503Y001494D03*
X002503Y001494D03*
D317*
X002497Y001453D03*
X002497Y001452D03*
D318*
X002503Y001493D03*
X001852Y001453D03*
X001852Y001452D03*
D319*
X002497Y001453D03*
D320*
X001851Y001454D03*
X001851Y001455D03*
D321*
X001851Y001455D03*
X001851Y001456D03*
D322*
X001851Y001456D03*
X001851Y001457D03*
X001851Y001458D03*
X002504Y001496D03*
X002504Y001497D03*
X002504Y001498D03*
D323*
X002498Y001458D03*
X002498Y001457D03*
D324*
X002504Y001497D03*
X001851Y001457D03*
D325*
X002498Y001458D03*
D326*
X002504Y001498D03*
X001851Y001460D03*
X001851Y001458D03*
D327*
X001851Y001459D03*
X001851Y001459D03*
X002504Y001499D03*
X002504Y001499D03*
D328*
X001851Y001462D03*
X001851Y001461D03*
X001851Y001460D03*
D329*
X002498Y001461D03*
D330*
X001851Y001461D03*
D331*
X002498Y001462D03*
X002498Y001461D03*
D332*
X002504Y001502D03*
X001850Y001463D03*
X001850Y001462D03*
D333*
X001850Y001463D03*
X001850Y001464D03*
X002504Y001501D03*
X002504Y001502D03*
X002504Y001503D03*
D334*
X001850Y001466D03*
X001850Y001465D03*
X001850Y001464D03*
D335*
X001850Y001465D03*
X001850Y001466D03*
D336*
X002499Y001466D03*
D337*
X002499Y001466D03*
X002499Y001467D03*
D338*
X002505Y001505D03*
X002505Y001506D03*
X001850Y001468D03*
X001850Y001467D03*
D339*
X001850Y001467D03*
X001850Y001468D03*
X002505Y001505D03*
X002505Y001506D03*
D340*
X002505Y001507D03*
X002505Y001508D03*
X001850Y001470D03*
X001850Y001469D03*
X001850Y001469D03*
D341*
X002500Y001470D03*
X002500Y001469D03*
D342*
X002500Y001470D03*
D343*
X002505Y001507D03*
X001850Y001470D03*
D344*
X001849Y001471D03*
X001849Y001472D03*
D345*
X001849Y001472D03*
X001849Y001471D03*
D346*
X001849Y001473D03*
X001849Y001474D03*
X001849Y001474D03*
X002506Y001510D03*
X002506Y001511D03*
D347*
X002506Y001511D03*
X002506Y001510D03*
X001849Y001473D03*
D348*
X002500Y001474D03*
X002500Y001475D03*
D349*
X002500Y001475D03*
D350*
X001849Y001475D03*
X001849Y001476D03*
D351*
X001849Y001476D03*
X001849Y001475D03*
D352*
X001849Y001477D03*
X001849Y001478D03*
X001849Y001479D03*
X002506Y001514D03*
X002506Y001514D03*
D353*
X002506Y001515D03*
X002506Y001513D03*
X001849Y001478D03*
X001849Y001477D03*
D354*
X002501Y001478D03*
X002501Y001479D03*
D355*
X002501Y001478D03*
D356*
X002506Y001515D03*
X002506Y001516D03*
X001848Y001480D03*
X001848Y001479D03*
D357*
X001848Y001480D03*
X001848Y001481D03*
X002506Y001516D03*
D358*
X001848Y001483D03*
X001848Y001482D03*
X001848Y001481D03*
D359*
X001848Y001482D03*
D360*
X002501Y001483D03*
X002501Y001484D03*
D361*
X002501Y001483D03*
D362*
X002507Y001518D03*
X002507Y001520D03*
X001848Y001485D03*
X001848Y001483D03*
D363*
X001848Y001484D03*
X001848Y001484D03*
X002507Y001519D03*
X002507Y001519D03*
D364*
X001848Y001487D03*
X001848Y001486D03*
X001848Y001485D03*
D365*
X001848Y001486D03*
D366*
X002502Y001487D03*
X002502Y001486D03*
D367*
X002502Y001487D03*
D368*
X002507Y001522D03*
X002507Y001523D03*
X001847Y001488D03*
X001847Y001487D03*
D369*
X001847Y001488D03*
X001847Y001489D03*
X002507Y001522D03*
X002507Y001523D03*
D370*
X002508Y001524D03*
X002508Y001524D03*
X001847Y001491D03*
X001847Y001490D03*
X001847Y001489D03*
D371*
X001847Y001490D03*
X001847Y001491D03*
X002508Y001525D03*
D372*
X002503Y001492D03*
X002503Y001491D03*
D373*
X001847Y001492D03*
X001847Y001493D03*
D374*
X002503Y001492D03*
D375*
X001847Y001493D03*
X001847Y001492D03*
D376*
X001847Y001494D03*
X001847Y001494D03*
X001847Y001495D03*
X002508Y001527D03*
X002508Y001528D03*
D377*
X002503Y001496D03*
X002503Y001495D03*
D378*
X002508Y001527D03*
X002508Y001528D03*
X001847Y001495D03*
D379*
X002503Y001495D03*
D380*
X001846Y001496D03*
X001846Y001497D03*
D381*
X001846Y001497D03*
X001846Y001496D03*
D382*
X001846Y001498D03*
X001846Y001499D03*
X001846Y001499D03*
X002509Y001530D03*
X002509Y001531D03*
X002509Y001532D03*
D383*
X002509Y001531D03*
X001846Y001498D03*
D384*
X002504Y001500D03*
X002504Y001501D03*
D385*
X002509Y001532D03*
X002509Y001533D03*
X001846Y001501D03*
X001846Y001500D03*
D386*
X002504Y001500D03*
D387*
X002509Y001533D03*
X001846Y001501D03*
X001846Y001500D03*
D388*
X001846Y001502D03*
X001846Y001503D03*
X001846Y001504D03*
D389*
X001846Y001503D03*
X001846Y001502D03*
D390*
X002505Y001503D03*
D391*
X002505Y001504D03*
X002505Y001504D03*
D392*
X002509Y001535D03*
X002509Y001536D03*
X002509Y001537D03*
X001845Y001505D03*
X001845Y001504D03*
D393*
X001845Y001505D03*
X001845Y001506D03*
X002509Y001536D03*
D394*
X001845Y001508D03*
X001845Y001507D03*
X001845Y001506D03*
D395*
X001845Y001507D03*
D396*
X002505Y001508D03*
D397*
X002510Y001540D03*
X001845Y001510D03*
X001845Y001508D03*
D398*
X002505Y001509D03*
X002505Y001509D03*
D399*
X002510Y001539D03*
X002510Y001539D03*
X002510Y001540D03*
X001845Y001509D03*
X001845Y001509D03*
D400*
X001845Y001510D03*
X001845Y001511D03*
X001845Y001512D03*
X002510Y001541D03*
X002510Y001542D03*
D401*
X002510Y001541D03*
X001845Y001511D03*
D402*
X002506Y001512D03*
X002506Y001513D03*
D403*
X002506Y001512D03*
D404*
X001844Y001513D03*
X001844Y001512D03*
D405*
X001844Y001513D03*
X001844Y001514D03*
D406*
X001844Y001514D03*
X001844Y001515D03*
X001844Y001516D03*
X002511Y001544D03*
X002511Y001544D03*
X002511Y001545D03*
D407*
X002511Y001545D03*
X001844Y001516D03*
X001844Y001515D03*
D408*
X002506Y001517D03*
X002506Y001518D03*
D409*
X001844Y001518D03*
X001844Y001517D03*
D410*
X002506Y001517D03*
D411*
X001844Y001518D03*
X001844Y001517D03*
D412*
X001844Y001519D03*
X001844Y001519D03*
X001844Y001520D03*
X002511Y001548D03*
X002511Y001549D03*
D413*
X002511Y001548D03*
X002511Y001547D03*
X001844Y001520D03*
D414*
X002507Y001521D03*
X002507Y001520D03*
D415*
X002507Y001521D03*
D416*
X002511Y001550D03*
X001843Y001522D03*
X001843Y001521D03*
D417*
X001843Y001521D03*
X001843Y001522D03*
X002511Y001549D03*
X002511Y001550D03*
D418*
X001843Y001524D03*
X001843Y001524D03*
X001843Y001523D03*
D419*
X001843Y001523D03*
D420*
X001843Y001525D03*
X001843Y001526D03*
X002512Y001552D03*
X002512Y001553D03*
D421*
X002508Y001526D03*
X002508Y001525D03*
D422*
X002512Y001553D03*
X002512Y001554D03*
X001843Y001526D03*
X001843Y001525D03*
D423*
X002508Y001526D03*
D424*
X001843Y001527D03*
X001843Y001528D03*
X001843Y001529D03*
D425*
X001843Y001528D03*
X001843Y001527D03*
D426*
X002508Y001529D03*
X002508Y001529D03*
D427*
X002512Y001556D03*
X002512Y001557D03*
X001842Y001530D03*
X001842Y001529D03*
D428*
X002508Y001530D03*
D429*
X002512Y001556D03*
X002512Y001557D03*
X001842Y001531D03*
X001842Y001530D03*
D430*
X001842Y001531D03*
X001842Y001532D03*
X001842Y001533D03*
X002513Y001558D03*
X002513Y001559D03*
D431*
X002513Y001558D03*
X001842Y001532D03*
D432*
X001842Y001533D03*
X001842Y001535D03*
D433*
X002509Y001534D03*
X002509Y001534D03*
D434*
X001842Y001534D03*
X001842Y001534D03*
D435*
X002509Y001535D03*
D436*
X002513Y001561D03*
X002513Y001562D03*
X001842Y001537D03*
X001842Y001536D03*
X001842Y001535D03*
D437*
X001842Y001536D03*
X002513Y001561D03*
X002513Y001562D03*
D438*
X002510Y001538D03*
X002510Y001537D03*
D439*
X001841Y001538D03*
X001841Y001537D03*
D440*
X002510Y001538D03*
D441*
X001841Y001539D03*
X001841Y001538D03*
D442*
X001841Y001539D03*
X001841Y001540D03*
X001841Y001541D03*
X002514Y001564D03*
X002514Y001565D03*
D443*
X002514Y001565D03*
X002514Y001566D03*
X001841Y001541D03*
X001841Y001540D03*
D444*
X001841Y001542D03*
X001841Y001543D03*
X002514Y001566D03*
X002514Y001567D03*
D445*
X002510Y001543D03*
X002510Y001542D03*
D446*
X002514Y001567D03*
X001841Y001543D03*
X001841Y001542D03*
D447*
X002510Y001543D03*
D448*
X001841Y001544D03*
X001841Y001544D03*
X001841Y001545D03*
D449*
X001841Y001545D03*
D450*
X002511Y001546D03*
D451*
X002514Y001570D03*
X002514Y001571D03*
X001840Y001547D03*
X001840Y001546D03*
D452*
X002511Y001547D03*
X002511Y001546D03*
D453*
X002514Y001569D03*
X002514Y001570D03*
X001840Y001547D03*
X001840Y001546D03*
D454*
X001840Y001548D03*
X001840Y001549D03*
X001840Y001549D03*
D455*
X001840Y001548D03*
D456*
X001840Y001550D03*
X001840Y001551D03*
X002515Y001573D03*
D457*
X002515Y001573D03*
X002515Y001574D03*
X002515Y001574D03*
X001840Y001551D03*
X001840Y001550D03*
D458*
X002511Y001551D03*
D459*
X002511Y001551D03*
X002511Y001552D03*
D460*
X002515Y001575D03*
X001840Y001554D03*
X001840Y001553D03*
X001840Y001552D03*
D461*
X001840Y001552D03*
X001840Y001553D03*
X002515Y001575D03*
X002515Y001576D03*
D462*
X002512Y001555D03*
X002512Y001554D03*
D463*
X001839Y001555D03*
X001839Y001554D03*
D464*
X002512Y001555D03*
D465*
X001839Y001556D03*
X001839Y001555D03*
D466*
X001839Y001556D03*
X001839Y001557D03*
X001839Y001558D03*
X002516Y001578D03*
X002516Y001579D03*
X002516Y001579D03*
D467*
X002516Y001578D03*
X001839Y001557D03*
D468*
X001839Y001558D03*
X001839Y001560D03*
D469*
X001839Y001559D03*
X001839Y001559D03*
D470*
X002513Y001560D03*
X002513Y001559D03*
D471*
X002513Y001560D03*
D472*
X002516Y001581D03*
X002516Y001582D03*
X002516Y001583D03*
X001839Y001562D03*
X001839Y001561D03*
X001839Y001560D03*
D473*
X001839Y001561D03*
X002516Y001582D03*
D474*
X002516Y001583D03*
X001838Y001563D03*
X001838Y001562D03*
D475*
X002513Y001563D03*
X002513Y001564D03*
D476*
X002516Y001584D03*
X002516Y001584D03*
X001838Y001564D03*
X001838Y001563D03*
D477*
X002513Y001563D03*
D478*
X001838Y001564D03*
X001838Y001565D03*
X001838Y001566D03*
D479*
X001838Y001566D03*
X001838Y001565D03*
D480*
X001838Y001567D03*
X001838Y001568D03*
X002517Y001586D03*
X002517Y001587D03*
X002517Y001588D03*
D481*
X002517Y001587D03*
X001838Y001568D03*
X001838Y001567D03*
D482*
X002514Y001568D03*
X002514Y001569D03*
D483*
X002514Y001568D03*
D484*
X001838Y001569D03*
X001838Y001569D03*
X001838Y001570D03*
D485*
X001838Y001570D03*
D486*
X001837Y001571D03*
X001837Y001572D03*
X002517Y001590D03*
X002517Y001591D03*
D487*
X002515Y001572D03*
X002515Y001571D03*
D488*
X002517Y001590D03*
X002517Y001591D03*
X001837Y001572D03*
X001837Y001571D03*
D489*
X002515Y001572D03*
D490*
X002518Y001592D03*
X002518Y001593D03*
X001837Y001574D03*
X001837Y001574D03*
X001837Y001573D03*
D491*
X001837Y001573D03*
X002518Y001592D03*
D492*
X001837Y001576D03*
X001837Y001575D03*
D493*
X001837Y001575D03*
X001837Y001576D03*
D494*
X002515Y001577D03*
X002515Y001576D03*
D495*
X002518Y001595D03*
X002518Y001596D03*
X001837Y001579D03*
X001837Y001578D03*
X001837Y001577D03*
D496*
X002515Y001577D03*
D497*
X002518Y001595D03*
X002518Y001596D03*
X001837Y001578D03*
X001837Y001577D03*
D498*
X001836Y001579D03*
X001836Y001580D03*
D499*
X002516Y001581D03*
X002516Y001580D03*
D500*
X001836Y001581D03*
X001836Y001580D03*
D501*
X002516Y001580D03*
D502*
X002519Y001599D03*
X002519Y001599D03*
X001836Y001583D03*
X001836Y001582D03*
X001836Y001581D03*
D503*
X001836Y001582D03*
X002519Y001598D03*
X002519Y001600D03*
D504*
X002519Y001601D03*
X001836Y001585D03*
X001836Y001583D03*
D505*
X001836Y001584D03*
X001836Y001584D03*
X002519Y001600D03*
X002519Y001601D03*
D506*
X002516Y001586D03*
X002516Y001585D03*
D507*
X002516Y001585D03*
D508*
X001836Y001586D03*
X001836Y001587D03*
X001836Y001585D03*
D509*
X001836Y001586D03*
D510*
X001835Y001587D03*
X001835Y001588D03*
X002519Y001603D03*
X002519Y001605D03*
D511*
X002519Y001604D03*
X002519Y001604D03*
X001835Y001589D03*
X001835Y001588D03*
D512*
X002517Y001588D03*
D513*
X002517Y001589D03*
X002517Y001589D03*
D514*
X001835Y001590D03*
X001835Y001589D03*
X001835Y001591D03*
D515*
X001835Y001591D03*
X001835Y001590D03*
D516*
X001835Y001592D03*
X001835Y001593D03*
X002520Y001607D03*
X002520Y001608D03*
D517*
X002520Y001608D03*
X002520Y001607D03*
X001835Y001593D03*
X001835Y001592D03*
D518*
X002518Y001593D03*
D519*
X002518Y001594D03*
X002518Y001594D03*
D520*
X002520Y001609D03*
X002520Y001609D03*
X001835Y001595D03*
X001835Y001594D03*
X001835Y001594D03*
D521*
X001835Y001595D03*
X002520Y001610D03*
D522*
X001834Y001597D03*
X001834Y001596D03*
D523*
X001834Y001596D03*
X001834Y001597D03*
D524*
X002518Y001598D03*
X002518Y001597D03*
D525*
X002518Y001597D03*
D526*
X002521Y001612D03*
X002521Y001613D03*
X001834Y001599D03*
X001834Y001599D03*
X001834Y001598D03*
D527*
X001834Y001598D03*
X002521Y001612D03*
X002521Y001613D03*
D528*
X001834Y001601D03*
X001834Y001600D03*
D529*
X001834Y001600D03*
X001834Y001601D03*
D530*
X002519Y001602D03*
X002519Y001603D03*
D531*
X002521Y001615D03*
X002521Y001616D03*
X002521Y001617D03*
X001834Y001604D03*
X001834Y001603D03*
X001834Y001602D03*
D532*
X002519Y001602D03*
D533*
X002521Y001616D03*
X001834Y001603D03*
X001834Y001602D03*
D534*
X001833Y001604D03*
X001833Y001605D03*
X002521Y001618D03*
D535*
X002521Y001618D03*
X002521Y001617D03*
X001833Y001606D03*
X001833Y001605D03*
D536*
X002520Y001606D03*
X002520Y001605D03*
D537*
X002520Y001606D03*
D538*
X001833Y001607D03*
X001833Y001608D03*
X001833Y001606D03*
D539*
X001833Y001607D03*
D540*
X001833Y001608D03*
X001833Y001610D03*
X002522Y001621D03*
D541*
X002522Y001621D03*
X002522Y001622D03*
X002522Y001620D03*
X001833Y001609D03*
X001833Y001609D03*
D542*
X002520Y001610D03*
X002520Y001611D03*
D543*
X001833Y001612D03*
X001833Y001611D03*
X001833Y001610D03*
D544*
X002520Y001611D03*
D545*
X001833Y001611D03*
D546*
X001832Y001612D03*
X001832Y001613D03*
X002522Y001625D03*
D547*
X002522Y001625D03*
X002522Y001624D03*
X002522Y001624D03*
X001832Y001614D03*
X001832Y001613D03*
D548*
X002521Y001614D03*
X002521Y001614D03*
D549*
X002523Y001626D03*
X002523Y001627D03*
X001832Y001616D03*
X001832Y001615D03*
X001832Y001614D03*
D550*
X002521Y001615D03*
D551*
X002523Y001626D03*
X001832Y001616D03*
X001832Y001615D03*
D552*
X001832Y001617D03*
X001832Y001618D03*
D553*
X001832Y001618D03*
X001832Y001617D03*
D554*
X002521Y001619D03*
X002521Y001619D03*
D555*
X002523Y001629D03*
X002523Y001629D03*
X002523Y001630D03*
X001832Y001620D03*
X001832Y001619D03*
X001832Y001619D03*
D556*
X002521Y001620D03*
D557*
X002523Y001630D03*
X001832Y001620D03*
D558*
X001831Y001621D03*
X001831Y001622D03*
D559*
X001831Y001622D03*
X001831Y001621D03*
D560*
X002522Y001622D03*
X002522Y001623D03*
D561*
X002522Y001623D03*
D562*
X002524Y001633D03*
X002524Y001634D03*
X001831Y001624D03*
X001831Y001624D03*
X001831Y001623D03*
D563*
X001831Y001623D03*
X002524Y001632D03*
X002524Y001633D03*
D564*
X002524Y001635D03*
X001831Y001626D03*
X001831Y001625D03*
D565*
X001831Y001625D03*
X001831Y001626D03*
X002524Y001634D03*
X002524Y001635D03*
D566*
X001831Y001629D03*
X001831Y001628D03*
X001831Y001627D03*
D567*
X002523Y001628D03*
X002523Y001627D03*
D568*
X001831Y001628D03*
X001831Y001627D03*
D569*
X002523Y001628D03*
D570*
X002524Y001638D03*
X002524Y001639D03*
X001830Y001630D03*
X001830Y001629D03*
D571*
X001830Y001630D03*
X001830Y001631D03*
X002524Y001637D03*
X002524Y001638D03*
D572*
X002523Y001631D03*
D573*
X002523Y001631D03*
X002523Y001632D03*
D574*
X001830Y001633D03*
X001830Y001632D03*
X001830Y001631D03*
D575*
X001830Y001632D03*
D576*
X001830Y001633D03*
X001830Y001635D03*
X002525Y001641D03*
X002525Y001642D03*
D577*
X002525Y001642D03*
X002525Y001641D03*
X001830Y001634D03*
X001830Y001634D03*
D578*
X001830Y001635D03*
X001830Y001636D03*
X001830Y001637D03*
X002525Y001643D03*
X002525Y001644D03*
D579*
X002524Y001636D03*
D580*
X002525Y001643D03*
X001830Y001636D03*
D581*
X002524Y001637D03*
X002524Y001636D03*
D582*
X001829Y001637D03*
X001829Y001638D03*
D583*
X001829Y001638D03*
X001829Y001639D03*
D584*
X002525Y001640D03*
X002525Y001639D03*
D585*
X002526Y001646D03*
X002526Y001647D03*
X001829Y001641D03*
X001829Y001640D03*
X001829Y001639D03*
D586*
X002525Y001640D03*
D587*
X002526Y001646D03*
X002526Y001647D03*
X001829Y001641D03*
X001829Y001640D03*
D588*
X001829Y001642D03*
X001829Y001643D03*
D589*
X001829Y001643D03*
X001829Y001642D03*
D590*
X001829Y001644D03*
X001829Y001644D03*
X001829Y001645D03*
X002526Y001649D03*
X002526Y001650D03*
D591*
X002525Y001645D03*
X002525Y001644D03*
D592*
X002525Y001645D03*
D593*
X002526Y001650D03*
X002526Y001651D03*
X001829Y001645D03*
D594*
X001828Y001646D03*
X001828Y001647D03*
X002526Y001652D03*
D595*
X002526Y001652D03*
X002526Y001651D03*
X001828Y001647D03*
X001828Y001646D03*
D596*
X002526Y001648D03*
X002526Y001649D03*
D597*
X001828Y001649D03*
X001828Y001649D03*
X001828Y001648D03*
D598*
X002526Y001648D03*
D599*
X001828Y001648D03*
D600*
X001828Y001650D03*
X001828Y001651D03*
X002527Y001655D03*
X002527Y001656D03*
D601*
X002527Y001655D03*
X002527Y001654D03*
X001828Y001651D03*
X001828Y001650D03*
D602*
X001828Y001652D03*
X001828Y001653D03*
X001828Y001654D03*
D603*
X001828Y001653D03*
X001828Y001652D03*
D604*
X002526Y001653D03*
X002526Y001654D03*
D605*
X002526Y001653D03*
D606*
X002527Y001658D03*
X002527Y001659D03*
X002527Y001659D03*
X001827Y001655D03*
X001827Y001654D03*
D607*
X001827Y001655D03*
X001827Y001656D03*
X002527Y001658D03*
D608*
X002527Y001657D03*
X002527Y001656D03*
D609*
X002528Y001660D03*
X001827Y001658D03*
X001827Y001657D03*
X001827Y001656D03*
D610*
X002527Y001657D03*
D611*
X002528Y001660D03*
X002528Y001661D03*
X001827Y001657D03*
D612*
X001827Y001658D03*
X001827Y001660D03*
D613*
X001827Y001659D03*
X001827Y001659D03*
D614*
X001827Y001660D03*
X001827Y001661D03*
X001827Y001662D03*
X002528Y001663D03*
X002528Y001664D03*
X002528Y001664D03*
D615*
X002528Y001663D03*
X001827Y001661D03*
D616*
X002528Y001662D03*
X002528Y001661D03*
D617*
X002528Y001662D03*
D618*
X001826Y001663D03*
X001826Y001662D03*
D619*
X001826Y001663D03*
X001826Y001664D03*
D620*
X001826Y001664D03*
X001826Y001665D03*
X001826Y001666D03*
X002529Y001667D03*
X002529Y001668D03*
X002529Y001666D03*
D621*
X002528Y001666D03*
X002528Y001665D03*
D622*
X002529Y001667D03*
X001826Y001666D03*
X001826Y001665D03*
D623*
X002528Y001665D03*
D624*
X002529Y001669D03*
X002529Y001669D03*
X001826Y001668D03*
X001826Y001667D03*
D625*
X001826Y001667D03*
X001826Y001668D03*
X002529Y001668D03*
D626*
X001826Y001669D03*
X001826Y001669D03*
X001826Y001670D03*
D627*
X002529Y001671D03*
X002529Y001670D03*
D628*
X001826Y001670D03*
D629*
X002529Y001670D03*
D630*
X002529Y001672D03*
X001825Y001672D03*
X001825Y001671D03*
D631*
X001825Y001671D03*
X001825Y001672D03*
X002529Y001673D03*
X002529Y001672D03*
X002529Y001671D03*
D632*
X001825Y001673D03*
X001825Y001674D03*
X001825Y001674D03*
D633*
X002530Y001673D03*
D634*
X001825Y001673D03*
D635*
X002530Y001674D03*
X002530Y001674D03*
D636*
X002530Y001675D03*
X002530Y001676D03*
X001825Y001676D03*
X001825Y001675D03*
D637*
X001825Y001675D03*
X001825Y001676D03*
X002530Y001676D03*
X002530Y001675D03*
D638*
X002530Y001677D03*
X002530Y001678D03*
X001825Y001679D03*
X001825Y001678D03*
X001825Y001677D03*
D639*
X001825Y001677D03*
X001825Y001678D03*
X002530Y001677D03*
D640*
X002530Y001678D03*
D641*
X002530Y001679D03*
X002530Y001679D03*
D642*
X001824Y001680D03*
X001824Y001679D03*
D643*
X001824Y001682D03*
X002531Y001681D03*
X002531Y001680D03*
D644*
X001824Y001681D03*
X001824Y001680D03*
D645*
X001824Y001681D03*
X001824Y001682D03*
X001824Y001683D03*
X002531Y001681D03*
X002531Y001680D03*
D646*
X002531Y001682D03*
X002531Y001683D03*
D647*
X002531Y001682D03*
D648*
X002531Y001683D03*
X002531Y001685D03*
X001824Y001686D03*
D649*
X001824Y001685D03*
X001824Y001683D03*
D650*
X001824Y001685D03*
X001824Y001686D03*
X001824Y001687D03*
X002531Y001684D03*
X002531Y001684D03*
D651*
X001824Y001684D03*
X001824Y001684D03*
D652*
X001823Y001688D03*
X001823Y001689D03*
X002531Y001686D03*
X002531Y001685D03*
D653*
X002531Y001686D03*
X001823Y001687D03*
X001823Y001688D03*
D654*
X002531Y001688D03*
X002531Y001687D03*
D655*
X002531Y001687D03*
D656*
X002532Y001688D03*
X002532Y001690D03*
X001823Y001692D03*
X001823Y001693D03*
D657*
X001823Y001693D03*
X001823Y001692D03*
X002532Y001689D03*
X002532Y001689D03*
D658*
X001823Y001690D03*
X001823Y001689D03*
X001823Y001691D03*
D659*
X001823Y001691D03*
X001823Y001690D03*
D660*
X002532Y001691D03*
X002532Y001690D03*
D661*
X002532Y001691D03*
D662*
X002532Y001692D03*
X002532Y001693D03*
X001822Y001696D03*
X001822Y001697D03*
D663*
X001822Y001697D03*
X001822Y001696D03*
X002532Y001693D03*
X002532Y001692D03*
D664*
X002533Y001694D03*
X002533Y001694D03*
X001822Y001698D03*
X001822Y001699D03*
X001822Y001699D03*
D665*
X001823Y001695D03*
X001823Y001694D03*
X001823Y001694D03*
D666*
X001822Y001698D03*
X002533Y001695D03*
D667*
X001823Y001695D03*
D668*
X002533Y001696D03*
X002533Y001695D03*
D669*
X002533Y001696D03*
D670*
X002533Y001697D03*
X002533Y001698D03*
X001822Y001702D03*
X001822Y001703D03*
X001822Y001704D03*
D671*
X001822Y001703D03*
X001822Y001702D03*
X002533Y001698D03*
X002533Y001697D03*
D672*
X002533Y001699D03*
X002533Y001699D03*
D673*
X002533Y001700D03*
D674*
X001822Y001701D03*
X001822Y001700D03*
D675*
X001821Y001706D03*
X001821Y001707D03*
X001821Y001708D03*
X002534Y001702D03*
X002534Y001701D03*
X002534Y001700D03*
D676*
X001822Y001701D03*
X001822Y001700D03*
D677*
X001821Y001707D03*
X002534Y001701D03*
D678*
X002534Y001702D03*
X002534Y001703D03*
X001821Y001708D03*
X001821Y001710D03*
D679*
X001821Y001709D03*
X001821Y001709D03*
X002534Y001703D03*
D680*
X002534Y001704D03*
X002534Y001704D03*
D681*
X001821Y001705D03*
X001821Y001704D03*
D682*
X002534Y001705D03*
D683*
X001821Y001706D03*
X001821Y001705D03*
D684*
X001820Y001713D03*
X001820Y001714D03*
X002534Y001707D03*
X002534Y001706D03*
X002534Y001705D03*
D685*
X002534Y001706D03*
X001820Y001712D03*
X001820Y001713D03*
D686*
X002535Y001708D03*
X002535Y001707D03*
D687*
X002535Y001708D03*
D688*
X002535Y001709D03*
X002535Y001709D03*
X002535Y001710D03*
X001820Y001717D03*
X001820Y001718D03*
D689*
X001820Y001718D03*
X001820Y001717D03*
X002535Y001710D03*
D690*
X001821Y001711D03*
X001821Y001712D03*
X001821Y001710D03*
D691*
X001820Y001720D03*
X002535Y001711D03*
D692*
X001821Y001711D03*
D693*
X001820Y001719D03*
X001820Y001719D03*
X001820Y001720D03*
X002535Y001712D03*
X002535Y001711D03*
D694*
X002535Y001712D03*
X002535Y001713D03*
D695*
X002535Y001713D03*
D696*
X002536Y001714D03*
X002536Y001714D03*
X002536Y001715D03*
X001819Y001723D03*
X001819Y001724D03*
X001819Y001724D03*
D697*
X001820Y001716D03*
X001820Y001715D03*
X001820Y001714D03*
D698*
X001819Y001723D03*
X002536Y001715D03*
D699*
X001820Y001716D03*
X001820Y001715D03*
D700*
X002536Y001716D03*
D701*
X002536Y001716D03*
X002536Y001717D03*
D702*
X002536Y001717D03*
X002536Y001718D03*
X001819Y001727D03*
D703*
X001819Y001727D03*
X002536Y001719D03*
X002536Y001718D03*
D704*
X002536Y001719D03*
X002536Y001720D03*
D705*
X002536Y001720D03*
D706*
X002536Y001721D03*
X002536Y001722D03*
D707*
X001819Y001722D03*
X001819Y001721D03*
D708*
X002536Y001722D03*
X002536Y001721D03*
D709*
X001819Y001722D03*
X001819Y001721D03*
D710*
X002537Y001723D03*
X002537Y001724D03*
D711*
X002537Y001723D03*
D712*
X002537Y001724D03*
X002537Y001725D03*
D713*
X002537Y001725D03*
D714*
X001819Y001726D03*
X001819Y001725D03*
D715*
X001819Y001725D03*
X001819Y001726D03*
D716*
X002537Y001727D03*
X002537Y001726D03*
D717*
X002537Y001726D03*
X002537Y001727D03*
D718*
X002481Y001728D03*
X002481Y001729D03*
X002481Y001729D03*
X002481Y001730D03*
X002481Y001731D03*
X002481Y001732D03*
X002481Y001733D03*
X002481Y001734D03*
X002481Y001734D03*
X002481Y001735D03*
X002481Y001736D03*
X002481Y001737D03*
X002481Y001738D03*
X002481Y001739D03*
X002481Y001739D03*
X002481Y001740D03*
X002481Y001741D03*
X002481Y001742D03*
X002481Y001743D03*
X002481Y001744D03*
X002481Y001744D03*
X002481Y001745D03*
X002481Y001746D03*
X002481Y001747D03*
X002481Y001748D03*
X002481Y001749D03*
X002481Y001749D03*
X002481Y001750D03*
X002481Y001751D03*
X002481Y001752D03*
X002481Y001753D03*
D719*
X001873Y001753D03*
X001873Y001752D03*
X001873Y001751D03*
X001873Y001750D03*
X001873Y001749D03*
X001873Y001749D03*
X001873Y001748D03*
X001873Y001747D03*
X001873Y001746D03*
X001873Y001745D03*
X001873Y001744D03*
X001873Y001744D03*
X001873Y001743D03*
X001873Y001742D03*
X001873Y001741D03*
X001873Y001740D03*
X001873Y001739D03*
X001873Y001739D03*
X001873Y001738D03*
X001873Y001737D03*
X001873Y001736D03*
X001873Y001735D03*
X001873Y001734D03*
X001873Y001734D03*
X001873Y001733D03*
X001873Y001732D03*
X001873Y001731D03*
X001873Y001730D03*
X001873Y001729D03*
X001873Y001729D03*
X001873Y001728D03*
D720*
X002481Y001728D03*
X002481Y001730D03*
X002481Y001731D03*
X002481Y001732D03*
X002481Y001733D03*
X002481Y001735D03*
X002481Y001736D03*
X002481Y001737D03*
X002481Y001738D03*
X002481Y001740D03*
X002481Y001741D03*
X002481Y001742D03*
X002481Y001743D03*
X002481Y001745D03*
X002481Y001746D03*
X002481Y001747D03*
X002481Y001748D03*
X002481Y001750D03*
X002481Y001751D03*
X002481Y001752D03*
X002481Y001753D03*
D721*
X001873Y001753D03*
X001873Y001752D03*
X001873Y001751D03*
X001873Y001750D03*
X001873Y001748D03*
X001873Y001747D03*
X001873Y001746D03*
X001873Y001745D03*
X001873Y001743D03*
X001873Y001742D03*
X001873Y001741D03*
X001873Y001740D03*
X001873Y001738D03*
X001873Y001737D03*
X001873Y001736D03*
X001873Y001735D03*
X001873Y001733D03*
X001873Y001732D03*
X001873Y001731D03*
X001873Y001730D03*
X001873Y001728D03*
D722*
X002177Y001754D03*
X002177Y001754D03*
X002177Y001755D03*
X002177Y001756D03*
X002177Y001757D03*
X002177Y001758D03*
X002177Y001759D03*
X002177Y001759D03*
X002177Y001760D03*
X002177Y001761D03*
X002177Y001762D03*
X002177Y001763D03*
X002177Y001764D03*
X002177Y001764D03*
X002177Y001765D03*
X002177Y001766D03*
X002177Y001767D03*
X002177Y001768D03*
X002177Y001769D03*
X002177Y001769D03*
X002177Y001770D03*
X002177Y001771D03*
X002177Y001772D03*
X002177Y001773D03*
X002177Y001774D03*
X002177Y001903D03*
X002177Y001904D03*
X002177Y001904D03*
X002177Y001905D03*
X002177Y001906D03*
X002177Y001907D03*
X002177Y001908D03*
X002177Y001909D03*
X002177Y001909D03*
X002177Y001910D03*
X002177Y001911D03*
X002177Y001912D03*
X002177Y001913D03*
X002177Y001914D03*
X002177Y001914D03*
X002177Y001915D03*
X002177Y001916D03*
X002177Y001917D03*
X002177Y001918D03*
X002177Y001919D03*
X002177Y001919D03*
X002177Y001920D03*
X002177Y001921D03*
X002177Y001922D03*
X002177Y001923D03*
X002177Y001924D03*
X002177Y001924D03*
X002177Y001925D03*
X002177Y001926D03*
X002177Y001927D03*
X002177Y001928D03*
X002177Y001929D03*
X002177Y001929D03*
X002177Y001930D03*
X002177Y001931D03*
X002177Y001932D03*
X002177Y001933D03*
X002177Y001934D03*
X002177Y001934D03*
X002177Y001935D03*
X002177Y001936D03*
X002177Y001937D03*
X002177Y001938D03*
X002177Y001939D03*
D723*
X002177Y001938D03*
X002177Y001937D03*
X002177Y001936D03*
X002177Y001935D03*
X002177Y001933D03*
X002177Y001932D03*
X002177Y001931D03*
X002177Y001930D03*
X002177Y001928D03*
X002177Y001927D03*
X002177Y001926D03*
X002177Y001925D03*
X002177Y001923D03*
X002177Y001922D03*
X002177Y001921D03*
X002177Y001920D03*
X002177Y001918D03*
X002177Y001917D03*
X002177Y001916D03*
X002177Y001915D03*
X002177Y001913D03*
X002177Y001912D03*
X002177Y001911D03*
X002177Y001910D03*
X002177Y001908D03*
X002177Y001907D03*
X002177Y001906D03*
X002177Y001905D03*
X002177Y001903D03*
X002177Y001773D03*
X002177Y001772D03*
X002177Y001771D03*
X002177Y001770D03*
X002177Y001768D03*
X002177Y001767D03*
X002177Y001766D03*
X002177Y001765D03*
X002177Y001763D03*
X002177Y001762D03*
X002177Y001761D03*
X002177Y001760D03*
X002177Y001758D03*
X002177Y001757D03*
X002177Y001756D03*
X002177Y001755D03*
D724*
X002451Y001774D03*
X002451Y001775D03*
X002451Y001776D03*
X002451Y001777D03*
X002451Y001778D03*
X002451Y001779D03*
X002451Y001779D03*
X002451Y001780D03*
X002451Y001781D03*
X002451Y001782D03*
X002451Y001783D03*
X002451Y001784D03*
X002451Y001784D03*
X002451Y001785D03*
X002451Y001786D03*
X002451Y001787D03*
X002451Y001788D03*
X002451Y001789D03*
X002451Y001789D03*
X002451Y001790D03*
X002451Y001791D03*
X002451Y001792D03*
X002451Y001793D03*
X002451Y001794D03*
X002451Y001794D03*
X002451Y001795D03*
X002451Y001796D03*
X002451Y001797D03*
X002451Y001798D03*
X002451Y001799D03*
X002451Y001799D03*
X002451Y001800D03*
X002451Y001801D03*
X002451Y001802D03*
X002451Y001803D03*
X002451Y001804D03*
X002451Y001804D03*
X002451Y001805D03*
X002451Y001806D03*
X002451Y001807D03*
X002451Y001808D03*
X002451Y001809D03*
X002451Y001809D03*
X002451Y001810D03*
X002451Y001811D03*
X002451Y001812D03*
X002451Y001813D03*
X002451Y001814D03*
X002451Y001814D03*
X002451Y001815D03*
X002451Y001816D03*
X002451Y001817D03*
X002451Y001818D03*
X002451Y001819D03*
X002451Y001819D03*
X002451Y001820D03*
X002451Y001821D03*
X002451Y001822D03*
X002451Y001823D03*
X002451Y001824D03*
X002451Y001824D03*
X002451Y001825D03*
X002451Y001826D03*
X002451Y001827D03*
X002451Y001828D03*
X002451Y001829D03*
X002451Y001829D03*
X002451Y001830D03*
X002451Y001831D03*
X002451Y001832D03*
X002451Y001833D03*
X002451Y001834D03*
X002451Y001834D03*
X002451Y001835D03*
X002451Y001836D03*
X002451Y001837D03*
X002451Y001838D03*
X002451Y001839D03*
X002451Y001839D03*
X002451Y001840D03*
X002451Y001841D03*
X002451Y001842D03*
X002451Y001843D03*
X002451Y001844D03*
X002451Y001844D03*
X002451Y001845D03*
X002451Y001846D03*
X002451Y001847D03*
X002451Y001848D03*
X002451Y001849D03*
X002451Y001849D03*
X002451Y001850D03*
X002451Y001851D03*
X002451Y001852D03*
X002451Y001853D03*
X002451Y001854D03*
X002451Y001854D03*
X002451Y001855D03*
X002451Y001856D03*
X002451Y001857D03*
X002451Y001858D03*
X002451Y001859D03*
X002451Y001859D03*
X002451Y001860D03*
X002451Y001861D03*
X002451Y001862D03*
X002451Y001863D03*
X002451Y001864D03*
X002451Y001864D03*
X002451Y001865D03*
X002451Y001866D03*
X002451Y001867D03*
X002451Y001868D03*
X002451Y001869D03*
X002451Y001869D03*
X002451Y001870D03*
X002451Y001871D03*
X002451Y001872D03*
X002451Y001873D03*
X002451Y001874D03*
X002451Y001874D03*
X002451Y001875D03*
X002451Y001876D03*
X002451Y001877D03*
X002451Y001878D03*
X002451Y001879D03*
X002451Y001879D03*
X002451Y001880D03*
X002451Y001881D03*
X002451Y001882D03*
X002451Y001883D03*
X002451Y001884D03*
X002451Y001884D03*
X002451Y001885D03*
X002451Y001886D03*
X002451Y001887D03*
X002451Y001888D03*
X002451Y001889D03*
X002451Y001889D03*
X002451Y001890D03*
X002451Y001891D03*
X002451Y001892D03*
X002451Y001893D03*
X002451Y001894D03*
X002451Y001894D03*
X002451Y001895D03*
X002451Y001896D03*
X002451Y001897D03*
X002451Y001898D03*
X002451Y001899D03*
X002451Y001899D03*
X002451Y001900D03*
X002451Y001901D03*
X002451Y001902D03*
D725*
X001896Y001902D03*
X001896Y001901D03*
X001896Y001900D03*
X001896Y001899D03*
X001896Y001899D03*
X001896Y001898D03*
X001896Y001897D03*
X001896Y001896D03*
X001896Y001895D03*
X001896Y001894D03*
X001896Y001894D03*
X001896Y001893D03*
X001896Y001892D03*
X001896Y001891D03*
X001896Y001890D03*
X001896Y001889D03*
X001896Y001889D03*
X001896Y001888D03*
X001896Y001887D03*
X001896Y001886D03*
X001896Y001885D03*
X001896Y001884D03*
X001896Y001884D03*
X001896Y001883D03*
X001896Y001882D03*
X001896Y001881D03*
X001896Y001880D03*
X001896Y001879D03*
X001896Y001879D03*
X001896Y001878D03*
X001896Y001877D03*
X001896Y001876D03*
X001896Y001875D03*
X001896Y001874D03*
X001896Y001874D03*
X001896Y001873D03*
X001896Y001872D03*
X001896Y001871D03*
X001896Y001870D03*
X001896Y001869D03*
X001896Y001869D03*
X001896Y001868D03*
X001896Y001867D03*
X001896Y001866D03*
X001896Y001865D03*
X001896Y001864D03*
X001896Y001864D03*
X001896Y001863D03*
X001896Y001862D03*
X001896Y001861D03*
X001896Y001860D03*
X001896Y001859D03*
X001896Y001859D03*
X001896Y001858D03*
X001896Y001857D03*
X001896Y001856D03*
X001896Y001855D03*
X001896Y001854D03*
X001896Y001854D03*
X001896Y001853D03*
X001896Y001852D03*
X001896Y001851D03*
X001896Y001850D03*
X001896Y001849D03*
X001896Y001849D03*
X001896Y001848D03*
X001896Y001847D03*
X001896Y001846D03*
X001896Y001845D03*
X001896Y001844D03*
X001896Y001844D03*
X001896Y001843D03*
X001896Y001842D03*
X001896Y001841D03*
X001896Y001840D03*
X001896Y001839D03*
X001896Y001839D03*
X001896Y001838D03*
X001896Y001837D03*
X001896Y001836D03*
X001896Y001835D03*
X001896Y001834D03*
X001896Y001834D03*
X001896Y001833D03*
X001896Y001832D03*
X001896Y001831D03*
X001896Y001830D03*
X001896Y001829D03*
X001896Y001829D03*
X001896Y001828D03*
X001896Y001827D03*
X001896Y001826D03*
X001896Y001825D03*
X001896Y001824D03*
X001896Y001824D03*
X001896Y001823D03*
X001896Y001822D03*
X001896Y001821D03*
X001896Y001820D03*
X001896Y001819D03*
X001896Y001819D03*
X001896Y001818D03*
X001896Y001817D03*
X001896Y001816D03*
X001896Y001815D03*
X001896Y001814D03*
X001896Y001814D03*
X001896Y001813D03*
X001896Y001812D03*
X001896Y001811D03*
X001896Y001810D03*
X001896Y001809D03*
X001896Y001809D03*
X001896Y001808D03*
X001896Y001807D03*
X001896Y001806D03*
X001896Y001805D03*
X001896Y001804D03*
X001896Y001804D03*
X001896Y001803D03*
X001896Y001802D03*
X001896Y001801D03*
X001896Y001800D03*
X001896Y001799D03*
X001896Y001799D03*
X001896Y001798D03*
X001896Y001797D03*
X001896Y001796D03*
X001896Y001795D03*
X001896Y001794D03*
X001896Y001794D03*
X001896Y001793D03*
X001896Y001792D03*
X001896Y001791D03*
X001896Y001790D03*
X001896Y001789D03*
X001896Y001789D03*
X001896Y001788D03*
X001896Y001787D03*
X001896Y001786D03*
X001896Y001785D03*
X001896Y001784D03*
X001896Y001784D03*
X001896Y001783D03*
X001896Y001782D03*
X001896Y001781D03*
X001896Y001780D03*
X001896Y001779D03*
X001896Y001779D03*
X001896Y001778D03*
X001896Y001777D03*
X001896Y001776D03*
X001896Y001775D03*
X001896Y001774D03*
D726*
X002451Y001775D03*
X002451Y001776D03*
X002451Y001777D03*
X002451Y001778D03*
X002451Y001780D03*
X002451Y001781D03*
X002451Y001782D03*
X002451Y001783D03*
X002451Y001785D03*
X002451Y001786D03*
X002451Y001787D03*
X002451Y001788D03*
X002451Y001790D03*
X002451Y001791D03*
X002451Y001792D03*
X002451Y001793D03*
X002451Y001795D03*
X002451Y001796D03*
X002451Y001797D03*
X002451Y001798D03*
X002451Y001800D03*
X002451Y001801D03*
X002451Y001802D03*
X002451Y001803D03*
X002451Y001805D03*
X002451Y001806D03*
X002451Y001807D03*
X002451Y001808D03*
X002451Y001810D03*
X002451Y001811D03*
X002451Y001812D03*
X002451Y001813D03*
X002451Y001815D03*
X002451Y001816D03*
X002451Y001817D03*
X002451Y001818D03*
X002451Y001820D03*
X002451Y001821D03*
X002451Y001822D03*
X002451Y001823D03*
X002451Y001825D03*
X002451Y001826D03*
X002451Y001827D03*
X002451Y001828D03*
X002451Y001830D03*
X002451Y001831D03*
X002451Y001832D03*
X002451Y001833D03*
X002451Y001835D03*
X002451Y001836D03*
X002451Y001837D03*
X002451Y001838D03*
X002451Y001840D03*
X002451Y001841D03*
X002451Y001842D03*
X002451Y001843D03*
X002451Y001845D03*
X002451Y001846D03*
X002451Y001847D03*
X002451Y001848D03*
X002451Y001850D03*
X002451Y001851D03*
X002451Y001852D03*
X002451Y001853D03*
X002451Y001855D03*
X002451Y001856D03*
X002451Y001857D03*
X002451Y001858D03*
X002451Y001860D03*
X002451Y001861D03*
X002451Y001862D03*
X002451Y001863D03*
X002451Y001865D03*
X002451Y001866D03*
X002451Y001867D03*
X002451Y001868D03*
X002451Y001870D03*
X002451Y001871D03*
X002451Y001872D03*
X002451Y001873D03*
X002451Y001875D03*
X002451Y001876D03*
X002451Y001877D03*
X002451Y001878D03*
X002451Y001880D03*
X002451Y001881D03*
X002451Y001882D03*
X002451Y001883D03*
X002451Y001885D03*
X002451Y001886D03*
X002451Y001887D03*
X002451Y001888D03*
X002451Y001890D03*
X002451Y001891D03*
X002451Y001892D03*
X002451Y001893D03*
X002451Y001895D03*
X002451Y001896D03*
X002451Y001897D03*
X002451Y001898D03*
X002451Y001900D03*
X002451Y001901D03*
X002451Y001902D03*
D727*
X001896Y001902D03*
X001896Y001901D03*
X001896Y001900D03*
X001896Y001898D03*
X001896Y001897D03*
X001896Y001896D03*
X001896Y001895D03*
X001896Y001893D03*
X001896Y001892D03*
X001896Y001891D03*
X001896Y001890D03*
X001896Y001888D03*
X001896Y001887D03*
X001896Y001886D03*
X001896Y001885D03*
X001896Y001883D03*
X001896Y001882D03*
X001896Y001881D03*
X001896Y001880D03*
X001896Y001878D03*
X001896Y001877D03*
X001896Y001876D03*
X001896Y001875D03*
X001896Y001873D03*
X001896Y001872D03*
X001896Y001871D03*
X001896Y001870D03*
X001896Y001868D03*
X001896Y001867D03*
X001896Y001866D03*
X001896Y001865D03*
X001896Y001863D03*
X001896Y001862D03*
X001896Y001861D03*
X001896Y001860D03*
X001896Y001858D03*
X001896Y001857D03*
X001896Y001856D03*
X001896Y001855D03*
X001896Y001853D03*
X001896Y001852D03*
X001896Y001851D03*
X001896Y001850D03*
X001896Y001848D03*
X001896Y001847D03*
X001896Y001846D03*
X001896Y001845D03*
X001896Y001843D03*
X001896Y001842D03*
X001896Y001841D03*
X001896Y001840D03*
X001896Y001838D03*
X001896Y001837D03*
X001896Y001836D03*
X001896Y001835D03*
X001896Y001833D03*
X001896Y001832D03*
X001896Y001831D03*
X001896Y001830D03*
X001896Y001828D03*
X001896Y001827D03*
X001896Y001826D03*
X001896Y001825D03*
X001896Y001823D03*
X001896Y001822D03*
X001896Y001821D03*
X001896Y001820D03*
X001896Y001818D03*
X001896Y001817D03*
X001896Y001816D03*
X001896Y001815D03*
X001896Y001813D03*
X001896Y001812D03*
X001896Y001811D03*
X001896Y001810D03*
X001896Y001808D03*
X001896Y001807D03*
X001896Y001806D03*
X001896Y001805D03*
X001896Y001803D03*
X001896Y001802D03*
X001896Y001801D03*
X001896Y001800D03*
X001896Y001798D03*
X001896Y001797D03*
X001896Y001796D03*
X001896Y001795D03*
X001896Y001793D03*
X001896Y001792D03*
X001896Y001791D03*
X001896Y001790D03*
X001896Y001788D03*
X001896Y001787D03*
X001896Y001786D03*
X001896Y001785D03*
X001896Y001783D03*
X001896Y001782D03*
X001896Y001781D03*
X001896Y001780D03*
X001896Y001778D03*
X001896Y001777D03*
X001896Y001776D03*
X001896Y001775D03*
D728*
X002178Y001939D03*
D729*
X002178Y001940D03*
D730*
X002177Y001940D03*
X002177Y001941D03*
X002177Y001942D03*
X002177Y001943D03*
D731*
X002177Y001943D03*
X002177Y001942D03*
X002177Y001941D03*
D732*
X002177Y001944D03*
D733*
X002177Y001944D03*
X002177Y001945D03*
X002177Y001946D03*
D734*
X002177Y001946D03*
X002177Y001945D03*
D735*
X002177Y001947D03*
D736*
X002177Y001947D03*
D737*
X002177Y001948D03*
X002177Y001949D03*
X002177Y001949D03*
D738*
X002177Y001948D03*
D739*
X002177Y001950D03*
D740*
X002177Y001950D03*
D741*
X002177Y001951D03*
D742*
X002177Y001951D03*
X002177Y001952D03*
D743*
X002177Y001952D03*
D744*
X002177Y001953D03*
D745*
X002177Y001953D03*
D746*
X002177Y001954D03*
X002177Y001954D03*
D747*
X002177Y001955D03*
D748*
X002177Y001955D03*
D749*
X002177Y001956D03*
D750*
X002177Y001956D03*
X002177Y001957D03*
D751*
X002177Y001957D03*
D752*
X002177Y001958D03*
X002177Y001959D03*
X002177Y001959D03*
D753*
X002177Y001958D03*
D754*
X002177Y001960D03*
X002177Y001961D03*
D755*
X002177Y001961D03*
X002177Y001960D03*
D756*
X002177Y001962D03*
X002177Y001963D03*
D757*
X002177Y001963D03*
X002177Y001962D03*
D758*
X002177Y001964D03*
X002177Y001964D03*
X002177Y001965D03*
D759*
X002177Y001965D03*
D760*
X002177Y001966D03*
X002177Y001967D03*
D761*
X002177Y001967D03*
X002177Y001966D03*
D762*
X002177Y001968D03*
X002177Y001969D03*
D763*
X002177Y001968D03*
D764*
X002178Y001969D03*
D765*
X002177Y001970D03*
D766*
X002177Y001970D03*
D767*
X002178Y001971D03*
D768*
X002177Y001971D03*
X002177Y001972D03*
D769*
X002177Y001972D03*
D770*
X002178Y001973D03*
D771*
X002177Y001973D03*
D772*
X002177Y001974D03*
D773*
X002178Y001974D03*
D774*
X002177Y001975D03*
D775*
X002177Y001975D03*
D776*
X002178Y001976D03*
D777*
X002177Y001976D03*
X002177Y001977D03*
D778*
X002178Y001977D03*
D779*
X002177Y001978D03*
D780*
X002178Y001978D03*
D781*
X002177Y001979D03*
X002177Y001979D03*
D782*
X002178Y001980D03*
D783*
X002177Y001980D03*
D784*
X002177Y001981D03*
D785*
X002178Y001981D03*
D786*
X002177Y001982D03*
D787*
X002178Y001982D03*
D788*
X002177Y001983D03*
D789*
X002177Y001983D03*
D790*
X002178Y001984D03*
D791*
X002177Y001984D03*
D792*
X002178Y001985D03*
D793*
X002178Y001985D03*
D794*
X002178Y001986D03*
D795*
X002177Y001986D03*
D796*
X002177Y001987D03*
D797*
X002177Y001987D03*
D798*
X002177Y001988D03*
D799*
X002177Y001988D03*
D800*
X002177Y001989D03*
D801*
X002177Y001989D03*
D802*
X002177Y001990D03*
D803*
X002177Y001990D03*
D804*
X002177Y001991D03*
D805*
X002177Y001991D03*
D806*
X002177Y001992D03*
D807*
X002177Y001992D03*
D808*
X002177Y001993D03*
D809*
X002177Y001993D03*
D810*
X002177Y001994D03*
D811*
X002177Y001994D03*
D812*
X002177Y001995D03*
D813*
X002177Y001995D03*
D814*
X002177Y001996D03*
D815*
X002177Y001996D03*
D816*
X002177Y001997D03*
D817*
X002177Y001997D03*
D818*
X002177Y001998D03*
D819*
X002177Y001998D03*
D820*
X002177Y001999D03*
D821*
X002177Y001999D03*
D822*
X002177Y002000D03*
D823*
X002177Y002000D03*
D824*
X002177Y002001D03*
D825*
X002177Y002001D03*
D826*
X002177Y002002D03*
D827*
X002178Y002002D03*
D828*
X002178Y002003D03*
D829*
X002178Y002003D03*
D830*
X002178Y002004D03*
D831*
X002178Y002004D03*
D832*
X002178Y002005D03*
D833*
X002178Y002005D03*
D834*
X002178Y002006D03*
D835*
X002178Y002006D03*
D836*
X002178Y002007D03*
D837*
X002178Y002007D03*
D838*
X002178Y002008D03*
D839*
X002178Y002008D03*
D840*
X002178Y002009D03*
D841*
X002178Y002009D03*
D842*
X002178Y002010D03*
D843*
X002178Y002010D03*
D844*
X002177Y002011D03*
D845*
X002177Y002011D03*
D846*
X002177Y002012D03*
D847*
X002177Y002012D03*
D848*
X002177Y002013D03*
D849*
X002177Y002013D03*
D850*
X002177Y002014D03*
D851*
X002177Y002014D03*
D852*
X002177Y002015D03*
D853*
X002177Y002015D03*
D854*
X002177Y002016D03*
D855*
X002177Y002016D03*
D856*
X002177Y002017D03*
D857*
X002177Y002017D03*
D858*
X002177Y002018D03*
D859*
X002177Y002018D03*
D860*
X002177Y002019D03*
D861*
X002177Y002019D03*
D862*
X002177Y002020D03*
D863*
X002177Y002020D03*
D864*
X002177Y002021D03*
D865*
X002177Y002021D03*
D866*
X002177Y002022D03*
D867*
X002177Y002022D03*
D868*
X002177Y002023D03*
D869*
X002177Y002023D03*
D870*
X002177Y002024D03*
D871*
X002177Y002024D03*
D872*
X002177Y002025D03*
D873*
X002177Y002025D03*
D874*
X002177Y002026D03*
D875*
X002177Y002026D03*
D876*
X002178Y002027D03*
D877*
X002178Y002027D03*
D878*
X002178Y002028D03*
D879*
X002178Y002028D03*
D880*
X002178Y002029D03*
D881*
X002178Y002029D03*
D882*
X002178Y002030D03*
D883*
X002178Y002030D03*
D884*
X002178Y002031D03*
D885*
X002178Y002031D03*
D886*
X002178Y002032D03*
D887*
X002178Y002032D03*
D888*
X002178Y002033D03*
D889*
X002178Y002033D03*
D890*
X002178Y002034D03*
D891*
X002178Y002034D03*
D892*
X002178Y002035D03*
D893*
X002177Y002035D03*
D894*
X002177Y002036D03*
D895*
X002177Y002036D03*
D896*
X002177Y002037D03*
D897*
X002177Y002037D03*
D898*
X002177Y002038D03*
D899*
X002177Y002038D03*
D900*
X002177Y002039D03*
D901*
X002177Y002039D03*
D902*
X002177Y002040D03*
D903*
X002177Y002040D03*
D904*
X002177Y002041D03*
D905*
X002177Y002041D03*
D906*
X002177Y002042D03*
D907*
X002177Y002042D03*
D908*
X002177Y002043D03*
D909*
X002177Y002043D03*
D910*
X002177Y002044D03*
D911*
X002177Y002044D03*
D912*
X002177Y002045D03*
D913*
X002177Y002045D03*
D914*
X002177Y002046D03*
D915*
X002177Y002046D03*
D916*
X002177Y002047D03*
D917*
X002177Y002047D03*
D918*
X002177Y002048D03*
D919*
X002177Y002048D03*
D920*
X002177Y002049D03*
D921*
X002177Y002049D03*
D922*
X002177Y002050D03*
D923*
X002177Y002050D03*
D924*
X002177Y002051D03*
D925*
X002177Y002051D03*
D926*
X002178Y002052D03*
D927*
X002178Y002052D03*
D928*
X002178Y002053D03*
D929*
X002178Y002053D03*
D930*
X002178Y002054D03*
D931*
X002178Y002054D03*
D932*
X002178Y002055D03*
D933*
X002178Y002055D03*
D934*
X002178Y002056D03*
D935*
X002178Y002056D03*
D936*
X002178Y002057D03*
D937*
X002178Y002057D03*
D938*
X002178Y002058D03*
D939*
X002178Y002058D03*
D940*
X002178Y002059D03*
D941*
X002177Y002059D03*
D942*
X002177Y002060D03*
D943*
X002177Y002060D03*
D944*
X002177Y002061D03*
D945*
X002177Y002061D03*
D946*
X002177Y002062D03*
D947*
X002177Y002062D03*
D948*
X002177Y002063D03*
D949*
X002177Y002063D03*
D950*
X002177Y002064D03*
D951*
X002177Y002064D03*
D952*
X002177Y002065D03*
D953*
X002177Y002065D03*
D954*
X002177Y002066D03*
D955*
X002177Y002066D03*
D956*
X002177Y002067D03*
D957*
X002177Y002067D03*
D958*
X002177Y002068D03*
D959*
X002177Y002068D03*
D960*
X002177Y002069D03*
D961*
X002177Y002069D03*
D962*
X002177Y002070D03*
D963*
X002177Y002070D03*
D964*
X002177Y002071D03*
D965*
X002177Y002071D03*
D966*
X002177Y002072D03*
D967*
X002177Y002072D03*
D968*
X002177Y002073D03*
D969*
X002177Y002073D03*
D970*
X002177Y002074D03*
D971*
X002177Y002074D03*
D972*
X002177Y002075D03*
D973*
X002177Y002075D03*
D974*
X002177Y002076D03*
D975*
X002178Y002076D03*
D976*
X002178Y002077D03*
D977*
X002178Y002077D03*
D978*
X002178Y002078D03*
D979*
X002178Y002078D03*
D980*
X002178Y002079D03*
D981*
X002178Y002079D03*
D982*
X002178Y002080D03*
D983*
X002178Y002080D03*
D984*
X002178Y002081D03*
D985*
X002178Y002081D03*
D986*
X002178Y002082D03*
D987*
X002178Y002082D03*
D988*
X002178Y002083D03*
D989*
X002178Y002083D03*
D990*
X002177Y002084D03*
D991*
X002177Y002084D03*
D992*
X002177Y002085D03*
D993*
X002177Y002085D03*
D994*
X002177Y002086D03*
D995*
X002177Y002086D03*
D996*
X002177Y002087D03*
D997*
X002177Y002087D03*
D998*
X002177Y002088D03*
D999*
X002177Y002088D03*
D1000*
X002177Y002089D03*
D1001*
X002177Y002089D03*
D1002*
X002177Y002090D03*
D1003*
X002177Y002090D03*
D1004*
X002177Y002091D03*
D1005*
X002177Y002091D03*
D1006*
X002177Y002092D03*
D1007*
X002177Y002092D03*
D1008*
X002177Y002093D03*
D1009*
X002177Y002093D03*
D1010*
X002177Y002094D03*
D1011*
X002177Y002094D03*
D1012*
X002177Y002095D03*
D1013*
X002177Y002095D03*
D1014*
X002177Y002096D03*
D1015*
X002177Y002096D03*
D1016*
X002177Y002097D03*
D1017*
X002177Y002097D03*
D1018*
X002177Y002098D03*
D1019*
X002177Y002098D03*
D1020*
X002177Y002099D03*
D1021*
X002177Y002099D03*
D1022*
X002177Y002100D03*
D1023*
X002177Y002100D03*
D1024*
X002178Y002101D03*
D1025*
X002178Y002101D03*
D1026*
X002178Y002102D03*
D1027*
X002178Y002102D03*
D1028*
X002178Y002103D03*
D1029*
X002178Y002103D03*
D1030*
X002178Y002104D03*
D1031*
X002178Y002104D03*
D1032*
X002178Y002105D03*
D1033*
X002178Y002105D03*
D1034*
X002178Y002106D03*
D1035*
X002178Y002106D03*
D1036*
X002178Y002107D03*
D1037*
X002178Y002107D03*
D1038*
X002178Y002108D03*
D1039*
X002177Y002108D03*
D1040*
X002177Y002109D03*
D1041*
X002177Y002109D03*
D1042*
X002177Y002110D03*
D1043*
X002177Y002110D03*
D1044*
X002177Y002111D03*
D1045*
X002177Y002111D03*
D1046*
X002177Y002112D03*
D1047*
X002177Y002112D03*
D1048*
X002177Y002113D03*
D1049*
X002177Y002113D03*
D1050*
X002177Y002114D03*
D1051*
X002177Y002114D03*
D1052*
X002177Y002115D03*
D1053*
X002177Y002115D03*
D1054*
X002177Y002116D03*
D1055*
X002177Y002116D03*
D1056*
X002177Y002117D03*
D1057*
X002177Y002117D03*
D1058*
X002177Y002118D03*
D1059*
X002177Y002118D03*
D1060*
X002177Y002119D03*
D1061*
X002178Y002119D03*
D1062*
X002177Y002120D03*
D1063*
X002177Y002120D03*
D1064*
X002177Y002121D03*
D1065*
X002177Y002121D03*
D1066*
X002177Y002122D03*
D1067*
X002178Y002122D03*
D1068*
X002178Y002123D03*
D1069*
X002178Y002123D03*
D1070*
X002178Y002124D03*
D1071*
X002178Y002124D03*
D1072*
X002178Y002125D03*
D1073*
X002178Y002125D03*
D1074*
X002178Y002126D03*
D1075*
X002178Y002126D03*
D1076*
X002178Y002127D03*
D1077*
X002178Y002127D03*
D1078*
X002178Y002128D03*
D1079*
X002178Y002128D03*
D1080*
X002178Y002129D03*
D1081*
X002178Y002129D03*
D1082*
X002681Y001076D02*
X002680Y001076D01*
X002680Y001075D01*
X002681Y001075D01*
X002681Y001075D01*
X002681Y001076D01*
X002681Y001076D01*
X002681Y001075D01*
X002682Y001076D02*
X002681Y001076D01*
X002682Y001076D02*
X002682Y001076D01*
X002682Y001076D01*
X002682Y001075D01*
X002682Y001076D01*
X002682Y001076D01*
X002682Y001076D01*
X002682Y001075D01*
X002682Y001075D01*
X002683Y001075D01*
X002683Y001076D01*
X002682Y001076D01*
X002683Y001075D02*
X002683Y001075D01*
X002683Y001075D01*
X002683Y001075D01*
X002683Y001075D01*
X002684Y001075D02*
X002684Y001076D01*
X002684Y001076D01*
X002684Y001076D01*
X002684Y001076D01*
X002684Y001075D01*
X002684Y001075D01*
X002684Y001075D01*
X002684Y001075D01*
X002685Y001075D02*
X002685Y001075D01*
X002685Y001075D01*
X002685Y001075D01*
X002685Y001076D01*
X002685Y001076D01*
X002685Y001076D01*
X002685Y001075D01*
X002685Y001075D01*
X002686Y001075D02*
X002686Y001076D01*
X002686Y001076D01*
X002686Y001076D01*
X002686Y001076D01*
X002686Y001075D01*
X002686Y001075D01*
X002686Y001075D01*
X002686Y001075D01*
X002687Y001075D01*
X002688Y001075D01*
X002688Y001075D01*
X002688Y001076D01*
X002688Y001076D01*
X002688Y001076D01*
X002689Y001076D02*
X002689Y001075D01*
X002689Y001075D01*
X002689Y001075D01*
X002689Y001075D01*
X002689Y001075D01*
X002689Y001076D02*
X002689Y001076D01*
X002689Y001076D01*
X002690Y001075D02*
X002690Y001076D01*
X002691Y001076D01*
X002691Y001076D01*
X002691Y001076D01*
X002692Y001076D01*
X002692Y001076D01*
X002693Y001076D01*
X002693Y001076D01*
X002693Y001076D01*
X002693Y001075D01*
X002692Y001075D01*
X002691Y001075D01*
X002691Y001075D01*
X002691Y001075D01*
X002691Y001076D01*
X002690Y001075D02*
X002690Y001076D01*
X002691Y001075D02*
X002690Y001075D01*
X002692Y001075D02*
X002692Y001075D01*
X002692Y001076D01*
X002692Y001075D02*
X002693Y001075D01*
X002694Y001075D01*
X002694Y001076D01*
X002694Y001075D01*
X002693Y001076D02*
X002693Y001075D01*
X002692Y001075D02*
X002692Y001075D01*
X002692Y001075D01*
X002693Y001076D02*
X002694Y001076D01*
X002695Y001075D02*
X002695Y001076D01*
X002696Y001076D02*
X002696Y001075D01*
X002696Y001075D01*
X002696Y001075D01*
X002696Y001076D01*
X002696Y001076D01*
X002696Y001076D01*
X002696Y001076D01*
X002696Y001075D02*
X002696Y001075D01*
X002697Y001076D02*
X002697Y001075D01*
X002697Y001076D01*
X002697Y001076D01*
X002697Y001076D01*
X002697Y001075D01*
X002697Y001076D01*
X002697Y001076D01*
X002697Y001076D01*
X002698Y001076D01*
X002698Y001076D01*
X002698Y001076D01*
X002698Y001075D01*
X002698Y001075D01*
X002698Y001075D01*
X002697Y001075D01*
X002698Y001076D02*
X002698Y001075D01*
X002699Y001076D02*
X002698Y001076D01*
X002699Y001076D02*
X002699Y001076D01*
X002699Y001075D01*
X002699Y001076D02*
X002699Y001076D01*
X002700Y001075D01*
X002687Y001076D02*
X002687Y001076D01*
X002687Y001075D01*
M02*
