G75*
%MOIN*%
%OFA0B0*%
%FSLAX24Y24*%
%IPPOS*%
%LPD*%
%AMOC8*
5,1,8,0,0,1.08239X$1,22.5*
%
%ADD10C,0.0080*%
D10*
X000657Y000811D02*
X000657Y003489D01*
X001720Y003489D02*
X001850Y003489D01*
X001850Y000811D01*
X001720Y000811D01*
X002386Y000790D02*
X002386Y000510D01*
X002456Y000440D01*
X002597Y000440D01*
X002667Y000510D01*
X002667Y000650D01*
X002526Y000650D01*
X002386Y000790D02*
X002456Y000860D01*
X002597Y000860D01*
X002667Y000790D01*
X002847Y000860D02*
X003127Y000440D01*
X003127Y000860D01*
X003307Y000860D02*
X003517Y000860D01*
X003587Y000790D01*
X003587Y000510D01*
X003517Y000440D01*
X003307Y000440D01*
X003307Y000860D01*
X002847Y000860D02*
X002847Y000440D01*
X002847Y001440D02*
X003057Y001440D01*
X003127Y001510D01*
X003127Y001790D01*
X003057Y001860D01*
X002847Y001860D01*
X002847Y001440D01*
X003307Y001650D02*
X003587Y001650D01*
X003447Y001790D02*
X003447Y001510D01*
X003057Y002440D02*
X002847Y002440D01*
X002847Y002860D01*
X003057Y002860D01*
X003127Y002790D01*
X003127Y002510D01*
X003057Y002440D01*
X003307Y002650D02*
X003587Y002650D01*
X003517Y003440D02*
X003377Y003440D01*
X003307Y003510D01*
X003377Y003650D02*
X003517Y003650D01*
X003587Y003580D01*
X003587Y003510D01*
X003517Y003440D01*
X003377Y003650D02*
X003307Y003720D01*
X003307Y003790D01*
X003377Y003860D01*
X003517Y003860D01*
X003587Y003790D01*
X003127Y003860D02*
X003127Y003510D01*
X003057Y003440D01*
X002917Y003440D01*
X002847Y003510D01*
X002847Y003860D01*
X002667Y003790D02*
X002667Y003720D01*
X002597Y003650D01*
X002386Y003650D01*
X002206Y003580D02*
X002206Y003860D01*
X002386Y003860D02*
X002597Y003860D01*
X002667Y003790D01*
X002597Y003650D02*
X002667Y003580D01*
X002667Y003510D01*
X002597Y003440D01*
X002386Y003440D01*
X002386Y003860D01*
X002206Y003580D02*
X002066Y003440D01*
X001926Y003580D01*
X001926Y003860D01*
M02*
