G75*
%MOIN*%
%OFA0B0*%
%FSLAX24Y24*%
%IPPOS*%
%LPD*%
%AMOC8*
5,1,8,0,0,1.08239X$1,22.5*
%
%ADD10C,0.0030*%
%ADD11C,0.0020*%
%ADD12C,0.0080*%
D10*
X001362Y002793D02*
X001458Y002889D01*
X001458Y003083D01*
X001560Y003083D02*
X001705Y003083D01*
X001753Y003034D01*
X001753Y002986D01*
X001705Y002938D01*
X001560Y002938D01*
X001705Y002938D02*
X001753Y002889D01*
X001753Y002841D01*
X001705Y002793D01*
X001560Y002793D01*
X001560Y003083D01*
X001362Y002793D02*
X001265Y002889D01*
X001265Y003083D01*
X001854Y003083D02*
X001854Y002841D01*
X001903Y002793D01*
X001999Y002793D01*
X002048Y002841D01*
X002048Y003083D01*
X002149Y003034D02*
X002149Y002986D01*
X002197Y002938D01*
X002294Y002938D01*
X002342Y002889D01*
X002342Y002841D01*
X002294Y002793D01*
X002197Y002793D01*
X002149Y002841D01*
X002149Y003034D02*
X002197Y003083D01*
X002294Y003083D01*
X002342Y003034D01*
X002565Y003083D02*
X002565Y002793D01*
X002710Y002793D01*
X002758Y002841D01*
X002758Y003034D01*
X002710Y003083D01*
X002565Y003083D01*
X002860Y002938D02*
X003053Y002938D01*
X002956Y003034D02*
X002956Y002841D01*
X002710Y003843D02*
X002565Y003843D01*
X002565Y004133D01*
X002710Y004133D01*
X002758Y004084D01*
X002758Y003891D01*
X002710Y003843D01*
X002860Y003988D02*
X003053Y003988D01*
X002048Y003891D02*
X002048Y004084D01*
X001999Y004133D01*
X001854Y004133D01*
X001854Y003843D01*
X001999Y003843D01*
X002048Y003891D01*
X001753Y003843D02*
X001753Y004133D01*
X001560Y004133D02*
X001753Y003843D01*
X001560Y003843D02*
X001560Y004133D01*
X001458Y004084D02*
X001410Y004133D01*
X001313Y004133D01*
X001265Y004084D01*
X001265Y003891D01*
X001313Y003843D01*
X001410Y003843D01*
X001458Y003891D01*
X001458Y003988D01*
X001362Y003988D01*
D11*
X003840Y002313D02*
X003840Y002240D01*
X003877Y002203D01*
X003950Y002277D02*
X003950Y002313D01*
X003987Y002350D01*
X004023Y002350D01*
X004060Y002313D01*
X004060Y002240D01*
X004023Y002203D01*
X004023Y002129D02*
X004060Y002129D01*
X004060Y002093D01*
X004023Y002093D01*
X004023Y002129D01*
X004060Y002019D02*
X004060Y001872D01*
X004060Y001945D02*
X003840Y001945D01*
X003913Y001872D01*
X003913Y001798D02*
X004060Y001724D01*
X003913Y001651D01*
X003950Y002313D02*
X003913Y002350D01*
X003877Y002350D01*
X003840Y002313D01*
D12*
X003489Y000657D02*
X000811Y000657D01*
X000811Y001720D02*
X000811Y001850D01*
X003489Y001850D01*
X003489Y001720D01*
X003150Y002478D02*
X004150Y002478D01*
X004150Y004478D01*
X003150Y004478D01*
X003150Y002478D01*
X001150Y002478D02*
X001150Y004478D01*
X000150Y004478D01*
X000150Y002478D01*
X001150Y002478D01*
M02*
