G75*
%MOIN*%
%OFA0B0*%
%FSLAX24Y24*%
%IPPOS*%
%LPD*%
%AMOC8*
5,1,8,0,0,1.08239X$1,22.5*
%
%ADD10R,0.0740X0.0740*%
%ADD11C,0.0740*%
%ADD12C,0.0476*%
%ADD13C,0.0787*%
%ADD14C,0.0100*%
D10*
X004228Y000650D03*
D11*
X004228Y001650D03*
X004228Y002650D03*
X004228Y003650D03*
D12*
X002330Y003105D03*
X002330Y001195D03*
D13*
X001228Y000729D03*
X001228Y003571D03*
D14*
X000863Y003196D02*
X000863Y001104D01*
X000931Y001173D01*
X001123Y001252D01*
X001332Y001252D01*
X001524Y001173D01*
X001672Y001025D01*
X001751Y000833D01*
X001751Y000625D01*
X001672Y000432D01*
X001524Y000285D01*
X003708Y000285D01*
X003708Y000600D01*
X004178Y000600D01*
X004178Y000700D01*
X003708Y000700D01*
X003708Y001040D01*
X003718Y001078D01*
X003738Y001112D01*
X003765Y001140D01*
X003800Y001160D01*
X003838Y001170D01*
X004080Y001170D01*
X003944Y001226D01*
X003804Y001367D01*
X003728Y001551D01*
X003728Y001749D01*
X003804Y001933D01*
X003944Y002074D01*
X004128Y002150D01*
X004327Y002150D01*
X004511Y002074D01*
X004593Y001992D01*
X004593Y002308D01*
X004511Y002226D01*
X004327Y002150D01*
X004128Y002150D01*
X003944Y002226D01*
X003804Y002367D01*
X003728Y002551D01*
X003728Y002749D01*
X003804Y002933D01*
X003944Y003074D01*
X004128Y003150D01*
X004327Y003150D01*
X004511Y003074D01*
X004593Y002992D01*
X004593Y003308D01*
X004511Y003226D01*
X004327Y003150D01*
X004128Y003150D01*
X003944Y003226D01*
X003804Y003367D01*
X003728Y003551D01*
X003728Y003749D01*
X003804Y003933D01*
X003885Y004015D01*
X001524Y004015D01*
X001672Y003868D01*
X001751Y003675D01*
X001751Y003467D01*
X001672Y003275D01*
X001524Y003127D01*
X001332Y003048D01*
X001123Y003048D01*
X000931Y003127D01*
X000863Y003196D01*
X000863Y003105D02*
X000985Y003105D01*
X000863Y003007D02*
X001972Y003007D01*
X001962Y003032D02*
X002018Y002896D01*
X002121Y002793D01*
X002257Y002737D01*
X002403Y002737D01*
X002538Y002793D01*
X002642Y002896D01*
X002698Y003032D01*
X002698Y003178D01*
X002642Y003313D01*
X002538Y003417D01*
X002403Y003473D01*
X002257Y003473D01*
X002121Y003417D01*
X002018Y003313D01*
X001962Y003178D01*
X001962Y003032D01*
X001962Y003105D02*
X001470Y003105D01*
X001600Y003204D02*
X001972Y003204D01*
X002013Y003302D02*
X001683Y003302D01*
X001724Y003401D02*
X002105Y003401D01*
X001751Y003499D02*
X003749Y003499D01*
X003728Y003598D02*
X001751Y003598D01*
X001743Y003696D02*
X003728Y003696D01*
X003746Y003795D02*
X001702Y003795D01*
X001646Y003893D02*
X003787Y003893D01*
X003862Y003992D02*
X001548Y003992D01*
X002555Y003401D02*
X003790Y003401D01*
X003868Y003302D02*
X002647Y003302D01*
X002687Y003204D02*
X003999Y003204D01*
X004019Y003105D02*
X002698Y003105D01*
X002688Y003007D02*
X003877Y003007D01*
X003793Y002908D02*
X002647Y002908D01*
X002555Y002810D02*
X003752Y002810D01*
X003728Y002711D02*
X000863Y002711D01*
X000863Y002810D02*
X002105Y002810D01*
X002013Y002908D02*
X000863Y002908D01*
X000863Y002613D02*
X003728Y002613D01*
X003743Y002514D02*
X000863Y002514D01*
X000863Y002416D02*
X003783Y002416D01*
X003853Y002317D02*
X000863Y002317D01*
X000863Y002219D02*
X003963Y002219D01*
X004056Y002120D02*
X000863Y002120D01*
X000863Y002022D02*
X003892Y002022D01*
X003799Y001923D02*
X000863Y001923D01*
X000863Y001825D02*
X003759Y001825D01*
X003728Y001726D02*
X000863Y001726D01*
X000863Y001628D02*
X003728Y001628D01*
X003736Y001529D02*
X002486Y001529D01*
X002538Y001507D02*
X002403Y001563D01*
X002257Y001563D01*
X002121Y001507D01*
X002018Y001404D01*
X001962Y001268D01*
X001962Y001122D01*
X002018Y000987D01*
X002121Y000883D01*
X002257Y000827D01*
X002403Y000827D01*
X002538Y000883D01*
X002642Y000987D01*
X002698Y001122D01*
X002698Y001268D01*
X002642Y001404D01*
X002538Y001507D01*
X002615Y001431D02*
X003777Y001431D01*
X003838Y001332D02*
X002672Y001332D01*
X002698Y001234D02*
X003937Y001234D01*
X003760Y001135D02*
X002698Y001135D01*
X002663Y001037D02*
X003708Y001037D01*
X003708Y000938D02*
X002593Y000938D01*
X002433Y000840D02*
X003708Y000840D01*
X003708Y000741D02*
X001751Y000741D01*
X001749Y000840D02*
X002227Y000840D01*
X002067Y000938D02*
X001708Y000938D01*
X001660Y001037D02*
X001997Y001037D01*
X001962Y001135D02*
X001562Y001135D01*
X001377Y001234D02*
X001962Y001234D01*
X001988Y001332D02*
X000863Y001332D01*
X000863Y001234D02*
X001078Y001234D01*
X000893Y001135D02*
X000863Y001135D01*
X000863Y001431D02*
X002045Y001431D01*
X002174Y001529D02*
X000863Y001529D01*
X001751Y000643D02*
X004178Y000643D01*
X003708Y000544D02*
X001718Y000544D01*
X001677Y000446D02*
X003708Y000446D01*
X003708Y000347D02*
X001586Y000347D01*
X004399Y002120D02*
X004593Y002120D01*
X004593Y002022D02*
X004563Y002022D01*
X004593Y002219D02*
X004492Y002219D01*
X004578Y003007D02*
X004593Y003007D01*
X004593Y003105D02*
X004436Y003105D01*
X004456Y003204D02*
X004593Y003204D01*
X004587Y003302D02*
X004593Y003302D01*
M02*
