G75*
%MOIN*%
%OFA0B0*%
%FSLAX24Y24*%
%IPPOS*%
%LPD*%
%AMOC8*
5,1,8,0,0,1.08239X$1,22.5*
%
%ADD10C,0.0740*%
%ADD11C,0.0476*%
%ADD12C,0.0787*%
%ADD13C,0.0100*%
%ADD14C,0.0160*%
D10*
X000650Y002828D03*
X000650Y003828D03*
X000650Y004828D03*
X000650Y005828D03*
X003650Y005828D03*
X003650Y004828D03*
X003650Y003828D03*
X003650Y002828D03*
D11*
X003105Y002330D03*
X001195Y002330D03*
D12*
X000729Y001228D03*
X003571Y001228D03*
D13*
X003196Y005038D02*
X001104Y005038D01*
X001074Y005111D01*
X000933Y005251D01*
X000768Y005320D01*
X000772Y005320D01*
X000850Y005346D01*
X000923Y005383D01*
X000989Y005431D01*
X001047Y005489D01*
X001095Y005555D01*
X001132Y005628D01*
X001157Y005706D01*
X001169Y005778D01*
X000700Y005778D01*
X000700Y005878D01*
X001169Y005878D01*
X001157Y005949D01*
X001132Y006027D01*
X001095Y006100D01*
X001047Y006166D01*
X001020Y006193D01*
X003280Y006193D01*
X003253Y006166D01*
X003205Y006100D01*
X003168Y006027D01*
X003143Y005949D01*
X003131Y005878D01*
X003600Y005878D01*
X003600Y005778D01*
X003131Y005778D01*
X003143Y005706D01*
X003168Y005628D01*
X003205Y005555D01*
X003253Y005489D01*
X003311Y005431D01*
X003377Y005383D01*
X003450Y005346D01*
X003528Y005320D01*
X003532Y005320D01*
X003367Y005251D01*
X003226Y005111D01*
X003196Y005038D01*
X003206Y005062D02*
X001094Y005062D01*
X001025Y005160D02*
X003275Y005160D01*
X003384Y005259D02*
X000916Y005259D01*
X000872Y005357D02*
X003428Y005357D01*
X003287Y005456D02*
X001013Y005456D01*
X001094Y005554D02*
X003206Y005554D01*
X003160Y005653D02*
X001140Y005653D01*
X001164Y005751D02*
X003136Y005751D01*
X003143Y005948D02*
X001157Y005948D01*
X001122Y006047D02*
X003178Y006047D01*
X003238Y006145D02*
X001062Y006145D01*
X000700Y005850D02*
X003600Y005850D01*
D14*
X003650Y005828D02*
X000650Y005828D01*
X000650Y004828D02*
X003650Y004828D01*
X003650Y003828D02*
X000650Y003828D01*
X000850Y003028D02*
X000650Y002828D01*
X000850Y003028D02*
X003450Y003028D01*
X003650Y002828D01*
M02*
