G75*
%MOIN*%
%OFA0B0*%
%FSLAX24Y24*%
%IPPOS*%
%LPD*%
%AMOC8*
5,1,8,0,0,1.08239X$1,22.5*
%
%ADD10C,0.0476*%
%ADD11C,0.0787*%
%ADD12R,0.0740X0.0740*%
%ADD13C,0.0740*%
%ADD14C,0.0100*%
%ADD15C,0.0400*%
%ADD16C,0.0160*%
D10*
X001195Y002330D03*
X003105Y002330D03*
D11*
X003571Y001228D03*
X000729Y001228D03*
D12*
X000650Y002978D03*
D13*
X000650Y003978D03*
X003650Y003978D03*
X003650Y002978D03*
D14*
X001173Y000931D02*
X001104Y000863D01*
X003196Y000863D01*
X003127Y000931D01*
X003048Y001123D01*
X003048Y001332D01*
X003127Y001524D01*
X003275Y001672D01*
X003467Y001751D01*
X003675Y001751D01*
X003868Y001672D01*
X004015Y001524D01*
X004015Y002635D01*
X003933Y002554D01*
X003749Y002478D01*
X003551Y002478D01*
X003420Y002532D01*
X003473Y002403D01*
X003473Y002257D01*
X003417Y002121D01*
X003313Y002018D01*
X003178Y001962D01*
X003032Y001962D01*
X002896Y002018D01*
X002793Y002121D01*
X002737Y002257D01*
X002737Y002403D01*
X002793Y002538D01*
X002896Y002642D01*
X003032Y002698D01*
X003178Y002698D01*
X003254Y002667D01*
X003226Y002694D01*
X003189Y002783D01*
X003180Y002785D01*
X003139Y002841D01*
X003090Y002891D01*
X003090Y002910D01*
X002942Y003118D01*
X002587Y003118D01*
X002517Y003048D01*
X002396Y002998D01*
X002264Y002998D01*
X002143Y003048D01*
X002050Y003141D01*
X002000Y003262D01*
X001966Y003248D01*
X001834Y003248D01*
X001713Y003298D01*
X001620Y003391D01*
X001570Y003512D01*
X001570Y003643D01*
X001620Y003764D01*
X001713Y003857D01*
X001834Y003908D01*
X001910Y003908D01*
X002040Y004056D01*
X002040Y004065D01*
X002097Y004121D01*
X002149Y004181D01*
X002157Y004182D01*
X002163Y004188D01*
X002243Y004188D01*
X002323Y004193D01*
X002329Y004188D01*
X003196Y004188D01*
X003226Y004261D01*
X003308Y004343D01*
X001020Y004343D01*
X001047Y004316D01*
X001095Y004250D01*
X001132Y004177D01*
X001157Y004099D01*
X001169Y004028D01*
X000700Y004028D01*
X000700Y003928D01*
X001169Y003928D01*
X001157Y003856D01*
X001132Y003778D01*
X001095Y003705D01*
X001047Y003639D01*
X000989Y003581D01*
X000923Y003533D01*
X000850Y003496D01*
X000794Y003478D01*
X001074Y003478D01*
X001150Y003401D01*
X001150Y002698D01*
X001268Y002698D01*
X001404Y002642D01*
X001507Y002538D01*
X001563Y002403D01*
X001563Y002257D01*
X001507Y002121D01*
X001404Y002018D01*
X001268Y001962D01*
X001122Y001962D01*
X000987Y002018D01*
X000883Y002121D01*
X000827Y002257D01*
X000827Y002403D01*
X000858Y002478D01*
X000285Y002478D01*
X000285Y001524D01*
X000432Y001672D01*
X000625Y001751D01*
X000833Y001751D01*
X001025Y001672D01*
X001173Y001524D01*
X001252Y001332D01*
X001252Y001123D01*
X001173Y000931D01*
X001166Y000925D02*
X003134Y000925D01*
X003089Y001023D02*
X001211Y001023D01*
X001252Y001122D02*
X003048Y001122D01*
X003048Y001220D02*
X001252Y001220D01*
X001252Y001319D02*
X003048Y001319D01*
X003083Y001417D02*
X001217Y001417D01*
X001176Y001516D02*
X003124Y001516D01*
X003217Y001614D02*
X001083Y001614D01*
X000926Y001713D02*
X003374Y001713D01*
X003290Y002008D02*
X004015Y002008D01*
X004015Y001910D02*
X000285Y001910D01*
X000285Y002008D02*
X001010Y002008D01*
X000898Y002107D02*
X000285Y002107D01*
X000285Y002205D02*
X000849Y002205D01*
X000827Y002304D02*
X000285Y002304D01*
X000285Y002402D02*
X000827Y002402D01*
X001150Y002796D02*
X003172Y002796D01*
X003179Y002698D02*
X003225Y002698D01*
X003090Y002895D02*
X001150Y002895D01*
X001150Y002993D02*
X003031Y002993D01*
X002960Y003092D02*
X002561Y003092D01*
X002853Y002599D02*
X001447Y002599D01*
X001523Y002501D02*
X002777Y002501D01*
X002737Y002402D02*
X001563Y002402D01*
X001563Y002304D02*
X002737Y002304D01*
X002758Y002205D02*
X001542Y002205D01*
X001493Y002107D02*
X002807Y002107D01*
X002920Y002008D02*
X001380Y002008D01*
X001270Y002698D02*
X003030Y002698D01*
X003432Y002501D02*
X003495Y002501D01*
X003473Y002402D02*
X004015Y002402D01*
X004015Y002304D02*
X003473Y002304D01*
X003451Y002205D02*
X004015Y002205D01*
X004015Y002107D02*
X003402Y002107D01*
X003769Y001713D02*
X004015Y001713D01*
X004015Y001811D02*
X000285Y001811D01*
X000285Y001713D02*
X000531Y001713D01*
X000375Y001614D02*
X000285Y001614D01*
X001150Y003092D02*
X002099Y003092D01*
X002030Y003190D02*
X001150Y003190D01*
X001150Y003289D02*
X001735Y003289D01*
X001624Y003387D02*
X001150Y003387D01*
X000992Y003584D02*
X001570Y003584D01*
X001581Y003486D02*
X000819Y003486D01*
X001078Y003683D02*
X001586Y003683D01*
X001637Y003781D02*
X001133Y003781D01*
X001161Y003880D02*
X001767Y003880D01*
X001971Y003978D02*
X000700Y003978D01*
X001078Y004274D02*
X003239Y004274D01*
X002144Y004175D02*
X001133Y004175D01*
X001161Y004077D02*
X002052Y004077D01*
X003805Y002501D02*
X004015Y002501D01*
X004015Y002599D02*
X003979Y002599D01*
X004015Y001614D02*
X003925Y001614D01*
D15*
X002330Y003328D03*
X001900Y003578D03*
D16*
X002250Y003978D01*
X003650Y003978D01*
X003050Y003328D02*
X003300Y002978D01*
X003650Y002978D01*
X003050Y003328D02*
X002330Y003328D01*
M02*
